NotoSerifKhmer-Light.ufo
<glyph name="uni1780" format="2">
  <advance width="629"/>
  <unicode hex="1780"/>
  <anchor x="320" y="760" name="abvm"/>
  <anchor x="320" y="728" name="abvm_high"/>
  <anchor x="309" y="0" name="blwm"/>
  <outline>
    <contour>
      <point x="498" y="316" type="line" smooth="yes"/>
      <point x="498" y="398"/>
      <point x="413" y="459"/>
      <point x="309" y="459" type="curve" smooth="yes"/>
      <point x="205" y="459"/>
      <point x="119" y="400"/>
      <point x="119" y="316" type="curve" smooth="yes"/>
      <point x="119" y="0" type="line"/>
      <point x="145" y="0" type="line"/>
      <point x="145" y="321" type="line" smooth="yes"/>
      <point x="145" y="381"/>
      <point x="217" y="433"/>
      <point x="309" y="433" type="curve" smooth="yes"/>
      <point x="401" y="433"/>
      <point x="472" y="380"/>
      <point x="472" y="321" type="curve" smooth="yes"/>
      <point x="472" y="0" type="line"/>
      <point x="498" y="0" type="line"/>
    </contour>
    <contour>
      <point x="140" y="497" type="line"/>
      <point x="96" y="546"/>
      <point x="87" y="558"/>
      <point x="87" y="569" type="curve" smooth="yes"/>
      <point x="87" y="581"/>
      <point x="98" y="594"/>
      <point x="127" y="619" type="curve" smooth="yes"/>
      <point x="157" y="645"/>
      <point x="176" y="657"/>
      <point x="185" y="657" type="curve" smooth="yes"/>
      <point x="195" y="657"/>
      <point x="212" y="638"/>
      <point x="233" y="615" type="curve" smooth="yes"/>
      <point x="271" y="573"/>
      <point x="286" y="565"/>
      <point x="302" y="565" type="curve" smooth="yes"/>
      <point x="325" y="565"/>
      <point x="347" y="582"/>
      <point x="363" y="595" type="curve" smooth="yes"/>
      <point x="404" y="628"/>
      <point x="424" y="657"/>
      <point x="433" y="657" type="curve" smooth="yes"/>
      <point x="448" y="657"/>
      <point x="517" y="544"/>
      <point x="549" y="544" type="curve" smooth="yes"/>
      <point x="558" y="544"/>
      <point x="565" y="554"/>
      <point x="565" y="571" type="curve"/>
      <point x="546" y="571"/>
      <point x="533" y="583"/>
      <point x="515" y="605" type="curve" smooth="yes"/>
      <point x="477" y="651" type="line" smooth="yes"/>
      <point x="459" y="672"/>
      <point x="445" y="683"/>
      <point x="434" y="683" type="curve" smooth="yes"/>
      <point x="417" y="683"/>
      <point x="390" y="652"/>
      <point x="357" y="624" type="curve" smooth="yes"/>
      <point x="328" y="600"/>
      <point x="310" y="591"/>
      <point x="303" y="591" type="curve" smooth="yes"/>
      <point x="294" y="591"/>
      <point x="277" y="608"/>
      <point x="249" y="636" type="curve" smooth="yes"/>
      <point x="213" y="672"/>
      <point x="203" y="683"/>
      <point x="185" y="683" type="curve" smooth="yes"/>
      <point x="167" y="683"/>
      <point x="148" y="671"/>
      <point x="112" y="639" type="curve" smooth="yes"/>
      <point x="66" y="599"/>
      <point x="60" y="580"/>
      <point x="60" y="568" type="curve" smooth="yes"/>
      <point x="60" y="556"/>
      <point x="68" y="538"/>
      <point x="120" y="481" type="curve"/>
    </contour>
  </outline>
</glyph>
<glyph name="uni1781" format="2">
  <advance width="650"/>
  <unicode hex="1781"/>
  <note>
uni1781
</note>
  <anchor x="319" y="760" name="abvm"/>
  <anchor x="320" y="0" name="blwm"/>
  <outline>
    <contour>
      <point x="120" y="512" type="line"/>
      <point x="146" y="512" type="line"/>
      <point x="146" y="549" type="line" smooth="yes"/>
      <point x="146" y="602"/>
      <point x="217" y="656"/>
      <point x="320" y="656" type="curve" smooth="yes"/>
      <point x="420" y="656"/>
      <point x="494" y="604"/>
      <point x="494" y="549" type="curve" smooth="yes"/>
      <point x="494" y="463" type="line" smooth="yes"/>
      <point x="494" y="437"/>
      <point x="436" y="397"/>
      <point x="320" y="338" type="curve" smooth="yes"/>
      <point x="120" y="235" type="line"/>
      <point x="120" y="125" type="line" smooth="yes"/>
      <point x="120" y="63"/>
      <point x="208" y="0"/>
      <point x="320" y="0" type="curve" smooth="yes"/>
      <point x="432" y="0"/>
      <point x="520" y="61"/>
      <point x="520" y="125" type="curve" smooth="yes"/>
      <point x="520" y="287" type="line"/>
      <point x="494" y="272" type="line"/>
      <point x="494" y="129" type="line" smooth="yes"/>
      <point x="494" y="76"/>
      <point x="420" y="26"/>
      <point x="320" y="26" type="curve" smooth="yes"/>
      <point x="220" y="26"/>
      <point x="146" y="75"/>
      <point x="146" y="129" type="curve" smooth="yes"/>
      <point x="146" y="219" type="line"/>
      <point x="366" y="333" type="line" smooth="yes"/>
      <point x="468" y="386"/>
      <point x="520" y="421"/>
      <point x="520" y="476" type="curve" smooth="yes"/>
      <point x="520" y="556" type="line" smooth="yes"/>
      <point x="520" y="620"/>
      <point x="432" y="682"/>
      <point x="320" y="682" type="curve" smooth="yes"/>
      <point x="210" y="682"/>
      <point x="120" y="620"/>
      <point x="120" y="556" type="curve" smooth="yes"/>
    </contour>
    <contour>
      <point x="146" y="536" type="line"/>
      <point x="120" y="536" type="line"/>
      <point x="120" y="397" type="line" smooth="yes"/>
      <point x="120" y="377"/>
      <point x="134" y="372"/>
      <point x="147" y="372" type="curve" smooth="yes"/>
      <point x="178" y="372"/>
      <point x="217" y="401"/>
      <point x="217" y="452" type="curve" smooth="yes"/>
      <point x="217" y="502"/>
      <point x="179" y="528"/>
      <point x="146" y="528" type="curve"/>
    </contour>
    <contour>
      <point x="146" y="502" type="line"/>
      <point x="166" y="502"/>
      <point x="191" y="487"/>
      <point x="191" y="453" type="curve" smooth="yes"/>
      <point x="191" y="428"/>
      <point x="177" y="400"/>
      <point x="146" y="398" type="curve"/>
    </contour>
  </outline>
</glyph>
<glyph name="uni1782" format="2">
  <advance width="629"/>
  <unicode hex="1782"/>
  <note>
uni1782
</note>
  <anchor x="320" y="760" name="abvm"/>
  <anchor x="320" y="728" name="abvm_high"/>
  <anchor x="309" y="0" name="blwm"/>
  <outline>
    <contour>
      <point x="146" y="321" type="line" smooth="yes"/>
      <point x="146" y="381"/>
      <point x="218" y="433"/>
      <point x="310" y="433" type="curve" smooth="yes"/>
      <point x="402" y="433"/>
      <point x="473" y="380"/>
      <point x="473" y="321" type="curve" smooth="yes"/>
      <point x="473" y="0" type="line"/>
      <point x="499" y="0" type="line"/>
      <point x="499" y="316" type="line" smooth="yes"/>
      <point x="499" y="398"/>
      <point x="414" y="459"/>
      <point x="310" y="459" type="curve" smooth="yes"/>
      <point x="206" y="459"/>
      <point x="120" y="400"/>
      <point x="120" y="316" type="curve" smooth="yes"/>
      <point x="120" y="0" type="line"/>
      <point x="146" y="0" type="line"/>
      <point x="146" y="53" type="line"/>
      <point x="235" y="176" type="line" smooth="yes"/>
      <point x="252" y="200"/>
      <point x="262" y="206"/>
      <point x="274" y="206" type="curve" smooth="yes"/>
      <point x="288" y="206"/>
      <point x="289" y="198"/>
      <point x="301" y="198" type="curve" smooth="yes"/>
      <point x="313" y="198"/>
      <point x="322" y="207"/>
      <point x="322" y="220" type="curve" smooth="yes"/>
      <point x="322" y="233"/>
      <point x="313" y="244"/>
      <point x="290" y="244" type="curve" smooth="yes"/>
      <point x="252" y="244"/>
      <point x="227" y="209"/>
      <point x="146" y="97" type="curve"/>
    </contour>
    <contour>
      <point x="140" y="497" type="line"/>
      <point x="96" y="546"/>
      <point x="87" y="558"/>
      <point x="87" y="569" type="curve" smooth="yes"/>
      <point x="87" y="581"/>
      <point x="98" y="594"/>
      <point x="127" y="619" type="curve" smooth="yes"/>
      <point x="157" y="645"/>
      <point x="176" y="657"/>
      <point x="185" y="657" type="curve" smooth="yes"/>
      <point x="195" y="657"/>
      <point x="212" y="638"/>
      <point x="233" y="615" type="curve" smooth="yes"/>
      <point x="271" y="573"/>
      <point x="286" y="565"/>
      <point x="302" y="565" type="curve" smooth="yes"/>
      <point x="325" y="565"/>
      <point x="347" y="582"/>
      <point x="363" y="595" type="curve" smooth="yes"/>
      <point x="404" y="628"/>
      <point x="424" y="657"/>
      <point x="433" y="657" type="curve" smooth="yes"/>
      <point x="448" y="657"/>
      <point x="517" y="544"/>
      <point x="549" y="544" type="curve" smooth="yes"/>
      <point x="558" y="544"/>
      <point x="565" y="554"/>
      <point x="565" y="571" type="curve"/>
      <point x="546" y="571"/>
      <point x="533" y="583"/>
      <point x="515" y="605" type="curve" smooth="yes"/>
      <point x="477" y="651" type="line" smooth="yes"/>
      <point x="459" y="672"/>
      <point x="445" y="683"/>
      <point x="434" y="683" type="curve" smooth="yes"/>
      <point x="417" y="683"/>
      <point x="390" y="652"/>
      <point x="357" y="624" type="curve" smooth="yes"/>
      <point x="328" y="600"/>
      <point x="310" y="591"/>
      <point x="303" y="591" type="curve" smooth="yes"/>
      <point x="294" y="591"/>
      <point x="277" y="608"/>
      <point x="249" y="636" type="curve" smooth="yes"/>
      <point x="213" y="672"/>
      <point x="203" y="683"/>
      <point x="185" y="683" type="curve" smooth="yes"/>
      <point x="167" y="683"/>
      <point x="148" y="671"/>
      <point x="112" y="639" type="curve" smooth="yes"/>
      <point x="66" y="599"/>
      <point x="60" y="580"/>
      <point x="60" y="568" type="curve" smooth="yes"/>
      <point x="60" y="556"/>
      <point x="68" y="538"/>
      <point x="120" y="481" type="curve"/>
    </contour>
  </outline>
</glyph>
<glyph name="uni1783" format="2">
  <advance width="973"/>
  <unicode hex="1783"/>
  <note>
uni1783
</note>
  <anchor x="639" y="760" name="abvm"/>
  <anchor x="667" y="0" name="blwm"/>
  <outline>
    <contour>
      <point x="843" y="388" type="line"/>
      <point x="817" y="388" type="line"/>
      <point x="817" y="133" type="line" smooth="yes"/>
      <point x="817" y="82"/>
      <point x="746" y="26"/>
      <point x="656" y="26" type="curve" smooth="yes"/>
      <point x="566" y="26"/>
      <point x="494" y="68"/>
      <point x="494" y="105" type="curve" smooth="yes"/>
      <point x="494" y="388" type="line"/>
      <point x="468" y="388" type="line"/>
      <point x="468" y="105" type="line" smooth="yes"/>
      <point x="468" y="68"/>
      <point x="397" y="26"/>
      <point x="307" y="26" type="curve" smooth="yes"/>
      <point x="217" y="26"/>
      <point x="146" y="82"/>
      <point x="146" y="133" type="curve" smooth="yes"/>
      <point x="146" y="388" type="line"/>
      <point x="120" y="388" type="line"/>
      <point x="120" y="126" type="line" smooth="yes"/>
      <point x="120" y="62"/>
      <point x="211" y="0"/>
      <point x="307" y="0" type="curve" smooth="yes"/>
      <point x="403" y="0"/>
      <point x="453" y="36"/>
      <point x="482" y="62" type="curve"/>
      <point x="514" y="32"/>
      <point x="560" y="0"/>
      <point x="656" y="0" type="curve" smooth="yes"/>
      <point x="752" y="0"/>
      <point x="843" y="62"/>
      <point x="843" y="126" type="curve" smooth="yes"/>
    </contour>
    <contour>
      <point x="494" y="370" type="line"/>
      <point x="494" y="445" type="line"/>
      <point x="406" y="536" type="line"/>
      <point x="481" y="641" type="line"/>
      <point x="493" y="631"/>
      <point x="536" y="587"/>
      <point x="566" y="587" type="curve" smooth="yes"/>
      <point x="578" y="587"/>
      <point x="587" y="594"/>
      <point x="583" y="612" type="curve"/>
      <point x="552" y="609"/>
      <point x="523" y="634"/>
      <point x="479" y="682" type="curve"/>
      <point x="397" y="569"/>
      <point x="379" y="544"/>
      <point x="379" y="537" type="curve" smooth="yes"/>
      <point x="379" y="526"/>
      <point x="392" y="513"/>
      <point x="468" y="435" type="curve"/>
      <point x="468" y="370" type="line"/>
    </contour>
    <contour>
      <point x="146" y="335" type="line"/>
      <point x="146" y="650" type="line" smooth="yes"/>
      <point x="146" y="656"/>
      <point x="147" y="672"/>
      <point x="119" y="672" type="curve" smooth="yes"/>
      <point x="69" y="672"/>
      <point x="14" y="623"/>
      <point x="14" y="553" type="curve" smooth="yes"/>
      <point x="14" y="480"/>
      <point x="71" y="458"/>
      <point x="120" y="461" type="curve"/>
      <point x="120" y="335" type="line"/>
    </contour>
    <contour>
      <point x="120" y="488" type="line"/>
      <point x="73" y="485"/>
      <point x="40" y="502"/>
      <point x="40" y="552" type="curve" smooth="yes"/>
      <point x="40" y="590"/>
      <point x="60" y="637"/>
      <point x="120" y="644" type="curve"/>
    </contour>
    <contour>
      <point x="843" y="370" type="line"/>
      <point x="843" y="445" type="line"/>
      <point x="755" y="536" type="line"/>
      <point x="830" y="641" type="line"/>
      <point x="842" y="631"/>
      <point x="885" y="587"/>
      <point x="915" y="587" type="curve" smooth="yes"/>
      <point x="927" y="587"/>
      <point x="936" y="594"/>
      <point x="932" y="612" type="curve"/>
      <point x="901" y="609"/>
      <point x="872" y="634"/>
      <point x="828" y="682" type="curve"/>
      <point x="746" y="569"/>
      <point x="728" y="544"/>
      <point x="728" y="537" type="curve" smooth="yes"/>
      <point x="728" y="526"/>
      <point x="741" y="513"/>
      <point x="817" y="435" type="curve"/>
      <point x="817" y="370" type="line"/>
    </contour>
  </outline>
</glyph>
<glyph name="uni1784" format="2">
  <advance width="679"/>
  <unicode hex="1784"/>
  <note>
uni1784
</note>
  <anchor x="333" y="840" name="abvm"/>
  <anchor x="349" y="0" name="blwm"/>
  <outline>
    <contour>
      <point x="151" y="0" type="line"/>
      <point x="183" y="0" type="line"/>
      <point x="351" y="154" type="line"/>
      <point x="517" y="0" type="line"/>
      <point x="549" y="0" type="line"/>
      <point x="549" y="391" type="line" smooth="yes"/>
      <point x="549" y="451"/>
      <point x="460" y="516"/>
      <point x="433" y="537" type="curve" smooth="yes"/>
      <point x="414" y="552"/>
      <point x="392" y="577"/>
      <point x="392" y="606" type="curve" smooth="yes"/>
      <point x="392" y="633"/>
      <point x="410" y="642"/>
      <point x="425" y="642" type="curve" smooth="yes"/>
      <point x="443" y="642"/>
      <point x="457" y="629"/>
      <point x="457" y="606" type="curve" smooth="yes"/>
      <point x="457" y="577"/>
      <point x="436" y="546"/>
      <point x="409" y="526" type="curve" smooth="yes"/>
      <point x="367" y="496"/>
      <point x="329" y="487"/>
      <point x="280" y="487" type="curve" smooth="yes"/>
      <point x="248" y="487"/>
      <point x="169" y="491"/>
      <point x="169" y="572" type="curve" smooth="yes"/>
      <point x="169" y="628"/>
      <point x="203" y="638"/>
      <point x="203" y="695" type="curve" smooth="yes"/>
      <point x="203" y="742"/>
      <point x="179" y="780"/>
      <point x="155" y="780" type="curve" smooth="yes"/>
      <point x="144" y="780"/>
      <point x="133" y="772"/>
      <point x="133" y="751" type="curve"/>
      <point x="160" y="748"/>
      <point x="175" y="724"/>
      <point x="175" y="688" type="curve" smooth="yes"/>
      <point x="175" y="637"/>
      <point x="143" y="625"/>
      <point x="143" y="567" type="curve" smooth="yes"/>
      <point x="143" y="487"/>
      <point x="209" y="461"/>
      <point x="278" y="461" type="curve" smooth="yes"/>
      <point x="328" y="461"/>
      <point x="383" y="475"/>
      <point x="430" y="512" type="curve" smooth="yes"/>
      <point x="461" y="537"/>
      <point x="483" y="569"/>
      <point x="483" y="606" type="curve" smooth="yes"/>
      <point x="483" y="641"/>
      <point x="464" y="668"/>
      <point x="427" y="668" type="curve" smooth="yes"/>
      <point x="386" y="668"/>
      <point x="366" y="636"/>
      <point x="366" y="605" type="curve" smooth="yes"/>
      <point x="366" y="570"/>
      <point x="392" y="540"/>
      <point x="422" y="513" type="curve" smooth="yes"/>
      <point x="461" y="478"/>
      <point x="523" y="434"/>
      <point x="523" y="387" type="curve" smooth="yes"/>
      <point x="523" y="30" type="line"/>
      <point x="351" y="189" type="line"/>
      <point x="177" y="29" type="line"/>
      <point x="177" y="193" type="line"/>
      <point x="151" y="193" type="line"/>
    </contour>
    <contour>
      <point x="177" y="183" type="line"/>
      <point x="177" y="373" type="line" smooth="yes"/>
      <point x="177" y="398"/>
      <point x="168" y="405"/>
      <point x="151" y="405" type="curve" smooth="yes"/>
      <point x="103" y="405"/>
      <point x="60" y="351"/>
      <point x="60" y="290" type="curve" smooth="yes"/>
      <point x="60" y="233"/>
      <point x="99" y="194"/>
      <point x="151" y="191" type="curve"/>
      <point x="151" y="183" type="line"/>
    </contour>
    <contour>
      <point x="151" y="217" type="line"/>
      <point x="132" y="217"/>
      <point x="86" y="231"/>
      <point x="86" y="289" type="curve" smooth="yes"/>
      <point x="86" y="340"/>
      <point x="122" y="378"/>
      <point x="151" y="378" type="curve"/>
    </contour>
  </outline>
</glyph>
<glyph name="uni1785" format="2">
  <advance width="626"/>
  <unicode hex="1785"/>
  <note>
uni1785
</note>
  <anchor x="313" y="760" name="abvm"/>
  <anchor x="313" y="0" name="blwm"/>
  <outline>
    <contour>
      <point x="502" y="227" type="line"/>
      <point x="476" y="227" type="line"/>
      <point x="476" y="136" type="line" smooth="yes"/>
      <point x="476" y="77"/>
      <point x="405" y="26"/>
      <point x="313" y="26" type="curve" smooth="yes"/>
      <point x="223" y="26"/>
      <point x="150" y="76"/>
      <point x="150" y="136" type="curve" smooth="yes"/>
      <point x="150" y="430" type="line"/>
      <point x="124" y="430" type="line"/>
      <point x="124" y="132" type="line" smooth="yes"/>
      <point x="124" y="54"/>
      <point x="213" y="0"/>
      <point x="313" y="0" type="curve" smooth="yes"/>
      <point x="413" y="0"/>
      <point x="502" y="62"/>
      <point x="502" y="132" type="curve" smooth="yes"/>
    </contour>
    <contour>
      <point x="502" y="219" type="line"/>
      <point x="502" y="409" type="line" smooth="yes"/>
      <point x="502" y="434"/>
      <point x="493" y="441"/>
      <point x="476" y="441" type="curve" smooth="yes"/>
      <point x="428" y="441"/>
      <point x="385" y="387"/>
      <point x="385" y="326" type="curve" smooth="yes"/>
      <point x="385" y="269"/>
      <point x="424" y="230"/>
      <point x="476" y="227" type="curve"/>
      <point x="476" y="219" type="line"/>
    </contour>
    <contour>
      <point x="476" y="253" type="line"/>
      <point x="457" y="253"/>
      <point x="411" y="267"/>
      <point x="411" y="325" type="curve" smooth="yes"/>
      <point x="411" y="376"/>
      <point x="447" y="414"/>
      <point x="476" y="414" type="curve"/>
    </contour>
    <contour>
      <point x="124" y="422" type="line"/>
      <point x="150" y="422" type="line"/>
      <point x="150" y="472" type="line"/>
      <point x="116" y="508"/>
      <point x="87" y="539"/>
      <point x="87" y="551" type="curve" smooth="yes"/>
      <point x="87" y="560"/>
      <point x="98" y="579"/>
      <point x="138" y="615" type="curve" smooth="yes"/>
      <point x="171" y="645"/>
      <point x="191" y="656"/>
      <point x="200" y="656" type="curve" smooth="yes"/>
      <point x="211" y="656"/>
      <point x="228" y="637"/>
      <point x="249" y="614" type="curve" smooth="yes"/>
      <point x="288" y="571"/>
      <point x="300" y="559"/>
      <point x="317" y="559" type="curve" smooth="yes"/>
      <point x="341" y="559"/>
      <point x="363" y="581"/>
      <point x="388" y="608" type="curve" smooth="yes"/>
      <point x="410" y="632"/>
      <point x="431" y="655"/>
      <point x="440" y="655" type="curve" smooth="yes"/>
      <point x="455" y="655"/>
      <point x="536" y="541"/>
      <point x="561" y="541" type="curve" smooth="yes"/>
      <point x="572" y="541"/>
      <point x="580" y="549"/>
      <point x="580" y="566" type="curve"/>
      <point x="554" y="568"/>
      <point x="542" y="584"/>
      <point x="514" y="616" type="curve" smooth="yes"/>
      <point x="487" y="646" type="line" smooth="yes"/>
      <point x="469" y="666"/>
      <point x="455" y="682"/>
      <point x="441" y="682" type="curve" smooth="yes"/>
      <point x="428" y="682"/>
      <point x="403" y="659"/>
      <point x="367" y="623" type="curve" smooth="yes"/>
      <point x="337" y="593"/>
      <point x="327" y="586"/>
      <point x="320" y="586" type="curve" smooth="yes"/>
      <point x="310" y="586"/>
      <point x="294" y="604"/>
      <point x="266" y="635" type="curve" smooth="yes"/>
      <point x="232" y="672"/>
      <point x="218" y="682"/>
      <point x="200" y="682" type="curve" smooth="yes"/>
      <point x="177" y="682"/>
      <point x="155" y="667"/>
      <point x="119" y="634" type="curve" smooth="yes"/>
      <point x="73" y="591"/>
      <point x="60" y="568"/>
      <point x="60" y="550" type="curve" smooth="yes"/>
      <point x="60" y="531"/>
      <point x="79" y="510"/>
      <point x="124" y="460" type="curve"/>
    </contour>
  </outline>
</glyph>
<glyph name="uni1786" format="2">
  <advance width="660"/>
  <unicode hex="1786"/>
  <note>
uni1786
</note>
  <anchor x="325" y="760" name="abvm"/>
  <anchor x="325" y="0" name="blwm"/>
  <outline>
    <contour>
      <point x="160" y="433" type="line"/>
      <point x="134" y="433" type="line"/>
      <point x="134" y="202" type="line"/>
      <point x="110" y="200"/>
      <point x="72" y="184"/>
      <point x="72" y="128" type="curve" smooth="yes"/>
      <point x="72" y="88"/>
      <point x="92" y="43"/>
      <point x="134" y="0" type="curve"/>
      <point x="160" y="0" type="line"/>
      <point x="160" y="176" type="line"/>
      <point x="201" y="171"/>
      <point x="249" y="146"/>
      <point x="289" y="98" type="curve" smooth="yes"/>
      <point x="324" y="56"/>
      <point x="350" y="0"/>
      <point x="417" y="0" type="curve" smooth="yes"/>
      <point x="490" y="0"/>
      <point x="532" y="62"/>
      <point x="532" y="151" type="curve" smooth="yes"/>
      <point x="532" y="207" type="line"/>
      <point x="506" y="207" type="line"/>
      <point x="506" y="151" type="line" smooth="yes"/>
      <point x="506" y="87"/>
      <point x="483" y="26"/>
      <point x="417" y="26" type="curve" smooth="yes"/>
      <point x="360" y="26"/>
      <point x="350" y="72"/>
      <point x="302" y="123" type="curve" smooth="yes"/>
      <point x="262" y="166"/>
      <point x="208" y="198"/>
      <point x="160" y="202" type="curve"/>
    </contour>
    <contour>
      <point x="134" y="35" type="line"/>
      <point x="115" y="60"/>
      <point x="98" y="91"/>
      <point x="98" y="123" type="curve" smooth="yes"/>
      <point x="98" y="157"/>
      <point x="117" y="173"/>
      <point x="134" y="176" type="curve"/>
    </contour>
    <contour>
      <point x="532" y="203" type="line"/>
      <point x="532" y="393" type="line" smooth="yes"/>
      <point x="532" y="418"/>
      <point x="523" y="425"/>
      <point x="506" y="425" type="curve" smooth="yes"/>
      <point x="458" y="425"/>
      <point x="415" y="371"/>
      <point x="415" y="310" type="curve" smooth="yes"/>
      <point x="415" y="253"/>
      <point x="454" y="214"/>
      <point x="506" y="211" type="curve"/>
      <point x="506" y="203" type="line"/>
    </contour>
    <contour>
      <point x="506" y="237" type="line"/>
      <point x="487" y="237"/>
      <point x="441" y="251"/>
      <point x="441" y="309" type="curve" smooth="yes"/>
      <point x="441" y="360"/>
      <point x="477" y="398"/>
      <point x="506" y="398" type="curve"/>
    </contour>
    <contour>
      <point x="134" y="422" type="line"/>
      <point x="160" y="422" type="line"/>
      <point x="160" y="472" type="line"/>
      <point x="126" y="508"/>
      <point x="97" y="539"/>
      <point x="97" y="551" type="curve" smooth="yes"/>
      <point x="97" y="560"/>
      <point x="108" y="579"/>
      <point x="148" y="615" type="curve" smooth="yes"/>
      <point x="181" y="645"/>
      <point x="201" y="656"/>
      <point x="210" y="656" type="curve" smooth="yes"/>
      <point x="221" y="656"/>
      <point x="238" y="637"/>
      <point x="259" y="614" type="curve" smooth="yes"/>
      <point x="298" y="571"/>
      <point x="310" y="559"/>
      <point x="327" y="559" type="curve" smooth="yes"/>
      <point x="351" y="559"/>
      <point x="373" y="581"/>
      <point x="398" y="608" type="curve" smooth="yes"/>
      <point x="420" y="632"/>
      <point x="441" y="655"/>
      <point x="450" y="655" type="curve" smooth="yes"/>
      <point x="465" y="655"/>
      <point x="546" y="541"/>
      <point x="571" y="541" type="curve" smooth="yes"/>
      <point x="582" y="541"/>
      <point x="590" y="549"/>
      <point x="590" y="566" type="curve"/>
      <point x="564" y="568"/>
      <point x="552" y="584"/>
      <point x="524" y="616" type="curve" smooth="yes"/>
      <point x="497" y="646" type="line" smooth="yes"/>
      <point x="479" y="666"/>
      <point x="465" y="682"/>
      <point x="451" y="682" type="curve" smooth="yes"/>
      <point x="438" y="682"/>
      <point x="413" y="659"/>
      <point x="377" y="623" type="curve" smooth="yes"/>
      <point x="347" y="593"/>
      <point x="337" y="586"/>
      <point x="330" y="586" type="curve" smooth="yes"/>
      <point x="320" y="586"/>
      <point x="304" y="604"/>
      <point x="276" y="635" type="curve" smooth="yes"/>
      <point x="242" y="672"/>
      <point x="228" y="682"/>
      <point x="210" y="682" type="curve" smooth="yes"/>
      <point x="187" y="682"/>
      <point x="165" y="667"/>
      <point x="129" y="634" type="curve" smooth="yes"/>
      <point x="83" y="591"/>
      <point x="70" y="568"/>
      <point x="70" y="550" type="curve" smooth="yes"/>
      <point x="70" y="531"/>
      <point x="89" y="510"/>
      <point x="134" y="460" type="curve"/>
    </contour>
  </outline>
</glyph>
<glyph name="uni1787" format="2">
  <advance width="647"/>
  <unicode hex="1787"/>
  <note>
uni1787
</note>
  <anchor x="324" y="860" name="abvm"/>
  <anchor x="324" y="830" name="abvm_high"/>
  <anchor x="324" y="0" name="blwm"/>
  <outline>
    <contour>
      <point x="150" y="455" type="line"/>
      <point x="124" y="455" type="line"/>
      <point x="124" y="0" type="line"/>
      <point x="156" y="0" type="line"/>
      <point x="324" y="155" type="line"/>
      <point x="492" y="0" type="line"/>
      <point x="524" y="0" type="line"/>
      <point x="524" y="428" type="line"/>
      <point x="498" y="428" type="line"/>
      <point x="498" y="33" type="line"/>
      <point x="324" y="189" type="line"/>
      <point x="150" y="33" type="line"/>
    </contour>
    <contour>
      <point x="150" y="445" type="line"/>
      <point x="150" y="470" type="line"/>
      <point x="118" y="506"/>
      <point x="87" y="541"/>
      <point x="87" y="550" type="curve" smooth="yes"/>
      <point x="87" y="559"/>
      <point x="97" y="577"/>
      <point x="135" y="615" type="curve" smooth="yes"/>
      <point x="164" y="644"/>
      <point x="179" y="656"/>
      <point x="189" y="656" type="curve" smooth="yes"/>
      <point x="205" y="656"/>
      <point x="221" y="623"/>
      <point x="272" y="580" type="curve" smooth="yes"/>
      <point x="307" y="550"/>
      <point x="353" y="521"/>
      <point x="401" y="521" type="curve" smooth="yes"/>
      <point x="458" y="521"/>
      <point x="527" y="561"/>
      <point x="527" y="642" type="curve" smooth="yes"/>
      <point x="527" y="730"/>
      <point x="442" y="761"/>
      <point x="404" y="761" type="curve" smooth="yes"/>
      <point x="382" y="761"/>
      <point x="376" y="750"/>
      <point x="376" y="726" type="curve"/>
      <point x="453" y="742"/>
      <point x="501" y="697"/>
      <point x="501" y="641" type="curve" smooth="yes"/>
      <point x="501" y="593"/>
      <point x="465" y="547"/>
      <point x="405" y="547" type="curve" smooth="yes"/>
      <point x="351" y="547"/>
      <point x="307" y="584"/>
      <point x="286" y="603" type="curve" smooth="yes"/>
      <point x="237" y="648"/>
      <point x="220" y="682"/>
      <point x="190" y="682" type="curve" smooth="yes"/>
      <point x="173" y="682"/>
      <point x="154" y="672"/>
      <point x="114" y="631" type="curve" smooth="yes"/>
      <point x="73" y="588"/>
      <point x="60" y="565"/>
      <point x="60" y="550" type="curve" smooth="yes"/>
      <point x="60" y="531"/>
      <point x="79" y="510"/>
      <point x="124" y="460" type="curve"/>
      <point x="124" y="445" type="line"/>
    </contour>
  </outline>
</glyph>
<glyph name="uni1788" format="2">
  <advance width="1323"/>
  <unicode hex="1788"/>
  <note>
uni1788
</note>
  <anchor x="979" y="760" name="abvm"/>
  <anchor x="1007" y="0" name="blwm"/>
  <outline>
    <contour>
      <point x="118" y="295" type="line"/>
      <point x="144" y="295" type="line"/>
      <point x="144" y="454" type="line"/>
      <point x="88" y="499" type="line"/>
      <point x="118" y="564"/>
      <point x="208" y="656"/>
      <point x="282" y="656" type="curve" smooth="yes"/>
      <point x="327" y="656"/>
      <point x="379" y="623"/>
      <point x="411" y="589" type="curve" smooth="yes"/>
      <point x="433" y="566"/>
      <point x="468" y="520"/>
      <point x="468" y="463" type="curve" smooth="yes"/>
      <point x="468" y="142" type="line" smooth="yes"/>
      <point x="468" y="54"/>
      <point x="560" y="0"/>
      <point x="656" y="0" type="curve" smooth="yes"/>
      <point x="730" y="0"/>
      <point x="790" y="28"/>
      <point x="830" y="62" type="curve"/>
      <point x="868" y="26"/>
      <point x="929" y="0"/>
      <point x="1000" y="0" type="curve" smooth="yes"/>
      <point x="1099" y="0"/>
      <point x="1192" y="54"/>
      <point x="1192" y="142" type="curve" smooth="yes"/>
      <point x="1192" y="388" type="line"/>
      <point x="1166" y="388" type="line"/>
      <point x="1166" y="136" type="line" smooth="yes"/>
      <point x="1166" y="76"/>
      <point x="1079" y="26"/>
      <point x="1003" y="26" type="curve" smooth="yes"/>
      <point x="939" y="26"/>
      <point x="842" y="60"/>
      <point x="842" y="107" type="curve" smooth="yes"/>
      <point x="842" y="388" type="line"/>
      <point x="816" y="388" type="line"/>
      <point x="816" y="107" type="line" smooth="yes"/>
      <point x="816" y="60"/>
      <point x="720" y="26"/>
      <point x="656" y="26" type="curve" smooth="yes"/>
      <point x="580" y="26"/>
      <point x="494" y="76"/>
      <point x="494" y="136" type="curve" smooth="yes"/>
      <point x="494" y="463" type="line" smooth="yes"/>
      <point x="494" y="529"/>
      <point x="458" y="579"/>
      <point x="426" y="611" type="curve" smooth="yes"/>
      <point x="402" y="635"/>
      <point x="348" y="682"/>
      <point x="282" y="682" type="curve" smooth="yes"/>
      <point x="228" y="682"/>
      <point x="173" y="649"/>
      <point x="117" y="587" type="curve" smooth="yes"/>
      <point x="91" y="557"/>
      <point x="62" y="518"/>
      <point x="62" y="497" type="curve" smooth="yes"/>
      <point x="62" y="487"/>
      <point x="69" y="480"/>
      <point x="118" y="442" type="curve"/>
    </contour>
    <contour>
      <point x="842" y="370" type="line"/>
      <point x="842" y="445" type="line"/>
      <point x="754" y="536" type="line"/>
      <point x="829" y="641" type="line"/>
      <point x="841" y="631"/>
      <point x="884" y="587"/>
      <point x="914" y="587" type="curve" smooth="yes"/>
      <point x="926" y="587"/>
      <point x="935" y="594"/>
      <point x="931" y="612" type="curve"/>
      <point x="900" y="609"/>
      <point x="871" y="634"/>
      <point x="827" y="682" type="curve"/>
      <point x="745" y="569"/>
      <point x="727" y="544"/>
      <point x="727" y="537" type="curve" smooth="yes"/>
      <point x="727" y="526"/>
      <point x="740" y="513"/>
      <point x="816" y="435" type="curve"/>
      <point x="816" y="370" type="line"/>
    </contour>
    <contour>
      <point x="118" y="316" type="line"/>
      <point x="118" y="0" type="line"/>
      <point x="144" y="0" type="line"/>
      <point x="211" y="63"/>
      <point x="235" y="101"/>
      <point x="235" y="149" type="curve" smooth="yes"/>
      <point x="235" y="186"/>
      <point x="219" y="226"/>
      <point x="144" y="227" type="curve"/>
      <point x="144" y="316" type="line"/>
    </contour>
    <contour>
      <point x="144" y="200" type="line"/>
      <point x="184" y="199"/>
      <point x="209" y="185"/>
      <point x="209" y="146" type="curve" smooth="yes"/>
      <point x="209" y="106"/>
      <point x="182" y="72"/>
      <point x="144" y="35" type="curve"/>
    </contour>
    <contour>
      <point x="1192" y="370" type="line"/>
      <point x="1192" y="445" type="line"/>
      <point x="1104" y="536" type="line"/>
      <point x="1179" y="641" type="line"/>
      <point x="1191" y="631"/>
      <point x="1234" y="587"/>
      <point x="1264" y="587" type="curve" smooth="yes"/>
      <point x="1276" y="587"/>
      <point x="1285" y="594"/>
      <point x="1281" y="612" type="curve"/>
      <point x="1250" y="609"/>
      <point x="1221" y="634"/>
      <point x="1177" y="682" type="curve"/>
      <point x="1095" y="569"/>
      <point x="1077" y="544"/>
      <point x="1077" y="537" type="curve" smooth="yes"/>
      <point x="1077" y="526"/>
      <point x="1090" y="513"/>
      <point x="1166" y="435" type="curve"/>
      <point x="1166" y="370" type="line"/>
    </contour>
  </outline>
</glyph>
<glyph name="uni178A" format="2">
  <advance width="651"/>
  <unicode hex="178A"/>
  <note>
uni178A
</note>
  <anchor x="321" y="840" name="abvm"/>
  <anchor x="310" y="750" name="abvm_high"/>
  <anchor x="321" y="0" name="blwm"/>
  <outline>
    <contour>
      <point x="121" y="428" type="line"/>
      <point x="121" y="0" type="line"/>
      <point x="153" y="0" type="line"/>
      <point x="321" y="155" type="line"/>
      <point x="489" y="0" type="line"/>
      <point x="521" y="0" type="line"/>
      <point x="521" y="436" type="line"/>
      <point x="495" y="436" type="line"/>
      <point x="495" y="29" type="line"/>
      <point x="321" y="189" type="line"/>
      <point x="147" y="29" type="line"/>
      <point x="147" y="416" type="line"/>
    </contour>
    <contour>
      <point x="268" y="557" type="curve" smooth="yes"/>
      <point x="268" y="524"/>
      <point x="244" y="500"/>
      <point x="226" y="485" type="curve"/>
      <point x="255" y="477" type="line"/>
      <point x="282" y="508"/>
      <point x="295" y="532"/>
      <point x="295" y="561" type="curve" smooth="yes"/>
      <point x="295" y="606"/>
      <point x="263" y="639"/>
      <point x="210" y="639" type="curve" smooth="yes"/>
      <point x="150" y="639"/>
      <point x="123" y="596"/>
      <point x="123" y="557" type="curve" smooth="yes"/>
      <point x="123" y="510"/>
      <point x="164" y="457"/>
      <point x="271" y="457" type="curve" smooth="yes"/>
      <point x="433" y="457"/>
      <point x="508" y="560"/>
      <point x="508" y="650" type="curve" smooth="yes"/>
      <point x="508" y="693"/>
      <point x="491" y="758"/>
      <point x="450" y="758" type="curve" smooth="yes"/>
      <point x="434" y="758"/>
      <point x="422" y="748"/>
      <point x="426" y="723" type="curve"/>
      <point x="456" y="734"/>
      <point x="482" y="699"/>
      <point x="482" y="648" type="curve" smooth="yes"/>
      <point x="482" y="545"/>
      <point x="379" y="483"/>
      <point x="266" y="483" type="curve" smooth="yes"/>
      <point x="195" y="483"/>
      <point x="149" y="516"/>
      <point x="149" y="557" type="curve" smooth="yes"/>
      <point x="149" y="583"/>
      <point x="167" y="613"/>
      <point x="210" y="613" type="curve" smooth="yes"/>
      <point x="249" y="613"/>
      <point x="268" y="587"/>
    </contour>
  </outline>
</glyph>
<glyph name="uni178C" format="2">
  <advance width="636"/>
  <unicode hex="178C"/>
  <note>
uni178C
</note>
  <anchor x="320" y="760" name="abvm"/>
  <anchor x="329" y="-49" name="blwm"/>
  <outline>
    <contour>
      <point x="120" y="516" type="line"/>
      <point x="146" y="516" type="line"/>
      <point x="146" y="549" type="line" smooth="yes"/>
      <point x="146" y="605"/>
      <point x="195" y="656"/>
      <point x="227" y="656" type="curve" smooth="yes"/>
      <point x="251" y="656"/>
      <point x="285" y="628"/>
      <point x="318" y="587" type="curve"/>
      <point x="353" y="628"/>
      <point x="385" y="656"/>
      <point x="409" y="656" type="curve" smooth="yes"/>
      <point x="438" y="656"/>
      <point x="490" y="616"/>
      <point x="490" y="560" type="curve" smooth="yes"/>
      <point x="490" y="463" type="line" smooth="yes"/>
      <point x="490" y="437"/>
      <point x="434" y="397"/>
      <point x="318" y="338" type="curve" smooth="yes"/>
      <point x="120" y="237" type="line"/>
      <point x="120" y="122" type="line" smooth="yes"/>
      <point x="120" y="36"/>
      <point x="177" y="0"/>
      <point x="228" y="0" type="curve" smooth="yes"/>
      <point x="271" y="0"/>
      <point x="302" y="25"/>
      <point x="362" y="73" type="curve" smooth="yes"/>
      <point x="424" y="122"/>
      <point x="463" y="156"/>
      <point x="490" y="166" type="curve"/>
      <point x="490" y="49" type="line" smooth="yes"/>
      <point x="490" y="31"/>
      <point x="486" y="10"/>
      <point x="472" y="-1" type="curve"/>
      <point x="472" y="-16"/>
      <point x="479" y="-29"/>
      <point x="493" y="-29" type="curve" smooth="yes"/>
      <point x="508" y="-29"/>
      <point x="516" y="-14"/>
      <point x="516" y="5" type="curve" smooth="yes"/>
      <point x="516" y="273" type="line"/>
      <point x="490" y="262" type="line"/>
      <point x="490" y="197" type="line"/>
      <point x="462" y="187"/>
      <point x="389" y="130"/>
      <point x="352" y="99" type="curve" smooth="yes"/>
      <point x="307" y="62"/>
      <point x="270" y="26"/>
      <point x="228" y="26" type="curve" smooth="yes"/>
      <point x="181" y="26"/>
      <point x="146" y="74"/>
      <point x="146" y="109" type="curve" smooth="yes"/>
      <point x="146" y="221" type="line"/>
      <point x="364" y="332" type="line" smooth="yes"/>
      <point x="455" y="378"/>
      <point x="516" y="422"/>
      <point x="516" y="463" type="curve" smooth="yes"/>
      <point x="516" y="558" type="line" smooth="yes"/>
      <point x="516" y="638"/>
      <point x="445" y="682"/>
      <point x="409" y="682" type="curve" smooth="yes"/>
      <point x="387" y="682"/>
      <point x="356" y="665"/>
      <point x="318" y="627" type="curve"/>
      <point x="282" y="665"/>
      <point x="253" y="682"/>
      <point x="229" y="682" type="curve" smooth="yes"/>
      <point x="186" y="682"/>
      <point x="120" y="629"/>
      <point x="120" y="549" type="curve" smooth="yes"/>
    </contour>
    <contour>
      <point x="146" y="536" type="line"/>
      <point x="120" y="536" type="line"/>
      <point x="120" y="397" type="line" smooth="yes"/>
      <point x="120" y="377"/>
      <point x="134" y="372"/>
      <point x="147" y="372" type="curve" smooth="yes"/>
      <point x="178" y="372"/>
      <point x="217" y="401"/>
      <point x="217" y="452" type="curve" smooth="yes"/>
      <point x="217" y="502"/>
      <point x="179" y="528"/>
      <point x="146" y="528" type="curve"/>
    </contour>
    <contour>
      <point x="146" y="502" type="line"/>
      <point x="166" y="502"/>
      <point x="191" y="487"/>
      <point x="191" y="453" type="curve" smooth="yes"/>
      <point x="191" y="428"/>
      <point x="177" y="400"/>
      <point x="146" y="398" type="curve"/>
    </contour>
  </outline>
</glyph>
<glyph name="uni178D" format="2">
  <advance width="1002"/>
  <unicode hex="178D"/>
  <note>
uni178D
</note>
  <anchor x="646" y="760" name="abvm"/>
  <anchor x="621" y="0" name="blwm"/>
  <outline>
    <contour>
      <point x="114" y="302" type="line"/>
      <point x="140" y="302" type="line"/>
      <point x="140" y="479" type="line"/>
      <point x="109" y="516"/>
      <point x="87" y="542"/>
      <point x="87" y="550" type="curve" smooth="yes"/>
      <point x="87" y="560"/>
      <point x="100" y="575"/>
      <point x="140" y="612" type="curve" smooth="yes"/>
      <point x="173" y="642"/>
      <point x="191" y="655"/>
      <point x="197" y="655" type="curve" smooth="yes"/>
      <point x="211" y="655"/>
      <point x="262" y="578"/>
      <point x="292" y="578" type="curve" smooth="yes"/>
      <point x="322" y="578"/>
      <point x="365" y="656"/>
      <point x="402" y="656" type="curve" smooth="yes"/>
      <point x="436" y="656"/>
      <point x="486" y="592"/>
      <point x="486" y="531" type="curve" smooth="yes"/>
      <point x="486" y="227" type="line"/>
      <point x="444" y="225"/>
      <point x="408" y="201"/>
      <point x="408" y="141" type="curve" smooth="yes"/>
      <point x="408" y="97"/>
      <point x="428" y="63"/>
      <point x="486" y="0" type="curve"/>
      <point x="512" y="0" type="line"/>
      <point x="512" y="201" type="line"/>
      <point x="554" y="198"/>
      <point x="591" y="172"/>
      <point x="622" y="129" type="curve" smooth="yes"/>
      <point x="653" y="86"/>
      <point x="695" y="0"/>
      <point x="764" y="0" type="curve" smooth="yes"/>
      <point x="825" y="0"/>
      <point x="862" y="70"/>
      <point x="862" y="122" type="curve" smooth="yes"/>
      <point x="862" y="390" type="line"/>
      <point x="836" y="390" type="line"/>
      <point x="836" y="122" type="line" smooth="yes"/>
      <point x="836" y="76"/>
      <point x="807" y="26"/>
      <point x="763" y="26" type="curve" smooth="yes"/>
      <point x="710" y="26"/>
      <point x="679" y="98"/>
      <point x="641" y="148" type="curve" smooth="yes"/>
      <point x="602" y="199"/>
      <point x="558" y="224"/>
      <point x="512" y="227" type="curve"/>
      <point x="512" y="531" type="line" smooth="yes"/>
      <point x="512" y="569"/>
      <point x="497" y="608"/>
      <point x="476" y="637" type="curve" smooth="yes"/>
      <point x="456" y="664"/>
      <point x="429" y="682"/>
      <point x="403" y="682" type="curve" smooth="yes"/>
      <point x="376" y="682"/>
      <point x="354" y="663"/>
      <point x="342" y="651" type="curve" smooth="yes"/>
      <point x="319" y="628"/>
      <point x="306" y="606"/>
      <point x="293" y="606" type="curve" smooth="yes"/>
      <point x="285" y="606"/>
      <point x="276" y="615"/>
      <point x="250" y="643" type="curve" smooth="yes"/>
      <point x="230" y="665"/>
      <point x="216" y="681"/>
      <point x="198" y="681" type="curve" smooth="yes"/>
      <point x="186" y="681"/>
      <point x="172" y="681"/>
      <point x="117" y="626" type="curve" smooth="yes"/>
      <point x="64" y="573"/>
      <point x="60" y="556"/>
      <point x="60" y="548" type="curve" smooth="yes"/>
      <point x="60" y="532"/>
      <point x="85" y="503"/>
      <point x="114" y="469" type="curve"/>
    </contour>
    <contour>
      <point x="486" y="35" type="line"/>
      <point x="464" y="64"/>
      <point x="434" y="96"/>
      <point x="434" y="141" type="curve" smooth="yes"/>
      <point x="434" y="190"/>
      <point x="468" y="201"/>
      <point x="486" y="201" type="curve"/>
    </contour>
    <contour>
      <point x="114" y="316" type="line"/>
      <point x="114" y="0" type="line"/>
      <point x="140" y="0" type="line"/>
      <point x="207" y="63"/>
      <point x="231" y="101"/>
      <point x="231" y="149" type="curve" smooth="yes"/>
      <point x="231" y="186"/>
      <point x="215" y="226"/>
      <point x="140" y="227" type="curve"/>
      <point x="140" y="316" type="line"/>
    </contour>
    <contour>
      <point x="140" y="200" type="line"/>
      <point x="180" y="199"/>
      <point x="205" y="185"/>
      <point x="205" y="146" type="curve" smooth="yes"/>
      <point x="205" y="106"/>
      <point x="178" y="72"/>
      <point x="140" y="35" type="curve"/>
    </contour>
    <contour>
      <point x="862" y="370" type="line"/>
      <point x="862" y="445" type="line"/>
      <point x="774" y="536" type="line"/>
      <point x="849" y="641" type="line"/>
      <point x="861" y="631"/>
      <point x="904" y="587"/>
      <point x="934" y="587" type="curve" smooth="yes"/>
      <point x="946" y="587"/>
      <point x="955" y="594"/>
      <point x="951" y="612" type="curve"/>
      <point x="920" y="609"/>
      <point x="891" y="634"/>
      <point x="847" y="682" type="curve"/>
      <point x="765" y="569"/>
      <point x="747" y="544"/>
      <point x="747" y="537" type="curve" smooth="yes"/>
      <point x="747" y="526"/>
      <point x="760" y="513"/>
      <point x="836" y="435" type="curve"/>
      <point x="836" y="370" type="line"/>
    </contour>
  </outline>
</glyph>
<glyph name="uni178E" format="2">
  <advance width="1322"/>
  <unicode hex="178E"/>
  <note>
uni178E
</note>
  <anchor x="655" y="760" name="abvm"/>
  <anchor x="655" y="0" name="blwm"/>
  <outline>
    <contour>
      <point x="120" y="307" type="line"/>
      <point x="146" y="307" type="line"/>
      <point x="146" y="454" type="line"/>
      <point x="90" y="499" type="line"/>
      <point x="129" y="560"/>
      <point x="191" y="656"/>
      <point x="279" y="656" type="curve" smooth="yes"/>
      <point x="374" y="656"/>
      <point x="470" y="548"/>
      <point x="470" y="463" type="curve" smooth="yes"/>
      <point x="470" y="0" type="line"/>
      <point x="501" y="0" type="line"/>
      <point x="655" y="155" type="line"/>
      <point x="810" y="0" type="line"/>
      <point x="841" y="0" type="line"/>
      <point x="841" y="454" type="line"/>
      <point x="785" y="499" type="line"/>
      <point x="824" y="560"/>
      <point x="886" y="656"/>
      <point x="974" y="656" type="curve" smooth="yes"/>
      <point x="1069" y="656"/>
      <point x="1165" y="548"/>
      <point x="1165" y="463" type="curve" smooth="yes"/>
      <point x="1165" y="0" type="line"/>
      <point x="1191" y="0" type="line"/>
      <point x="1191" y="463" type="line" smooth="yes"/>
      <point x="1191" y="529"/>
      <point x="1155" y="579"/>
      <point x="1129" y="605" type="curve" smooth="yes"/>
      <point x="1099" y="635"/>
      <point x="1046" y="682"/>
      <point x="976" y="682" type="curve" smooth="yes"/>
      <point x="901" y="682"/>
      <point x="855" y="633"/>
      <point x="824" y="598" type="curve" smooth="yes"/>
      <point x="800" y="570"/>
      <point x="759" y="519"/>
      <point x="759" y="497" type="curve" smooth="yes"/>
      <point x="759" y="488"/>
      <point x="766" y="480"/>
      <point x="815" y="442" type="curve"/>
      <point x="815" y="33" type="line"/>
      <point x="655" y="192" type="line"/>
      <point x="496" y="33" type="line"/>
      <point x="496" y="463" type="line" smooth="yes"/>
      <point x="496" y="529"/>
      <point x="460" y="579"/>
      <point x="434" y="605" type="curve" smooth="yes"/>
      <point x="404" y="635"/>
      <point x="351" y="682"/>
      <point x="281" y="682" type="curve" smooth="yes"/>
      <point x="206" y="682"/>
      <point x="160" y="633"/>
      <point x="129" y="598" type="curve" smooth="yes"/>
      <point x="105" y="570"/>
      <point x="64" y="519"/>
      <point x="64" y="497" type="curve" smooth="yes"/>
      <point x="64" y="488"/>
      <point x="71" y="480"/>
      <point x="120" y="442" type="curve"/>
    </contour>
    <contour>
      <point x="120" y="316" type="line"/>
      <point x="120" y="0" type="line"/>
      <point x="146" y="0" type="line"/>
      <point x="213" y="63"/>
      <point x="237" y="101"/>
      <point x="237" y="149" type="curve" smooth="yes"/>
      <point x="237" y="186"/>
      <point x="221" y="226"/>
      <point x="146" y="227" type="curve"/>
      <point x="146" y="316" type="line"/>
    </contour>
    <contour>
      <point x="146" y="200" type="line"/>
      <point x="186" y="199"/>
      <point x="211" y="185"/>
      <point x="211" y="146" type="curve" smooth="yes"/>
      <point x="211" y="106"/>
      <point x="184" y="72"/>
      <point x="146" y="35" type="curve"/>
    </contour>
  </outline>
</glyph>
<glyph name="uni178F" format="2">
  <advance width="629"/>
  <unicode hex="178F"/>
  <note>
uni178F
</note>
  <anchor x="318" y="760" name="abvm"/>
  <anchor x="318" y="728" name="abvm_high"/>
  <anchor x="307" y="0" name="blwm"/>
  <outline>
    <contour>
      <point x="121" y="273" type="line"/>
      <point x="147" y="273" type="line"/>
      <point x="147" y="321" type="line" smooth="yes"/>
      <point x="147" y="377"/>
      <point x="221" y="433"/>
      <point x="312" y="433" type="curve" smooth="yes"/>
      <point x="400" y="433"/>
      <point x="475" y="379"/>
      <point x="475" y="321" type="curve" smooth="yes"/>
      <point x="475" y="0" type="line"/>
      <point x="501" y="0" type="line"/>
      <point x="501" y="316" type="line" smooth="yes"/>
      <point x="501" y="394"/>
      <point x="424" y="459"/>
      <point x="312" y="459" type="curve" smooth="yes"/>
      <point x="204" y="459"/>
      <point x="121" y="394"/>
      <point x="121" y="316" type="curve" smooth="yes"/>
    </contour>
    <contour>
      <point x="121" y="316" type="line"/>
      <point x="121" y="0" type="line"/>
      <point x="147" y="0" type="line"/>
      <point x="214" y="63"/>
      <point x="238" y="101"/>
      <point x="238" y="149" type="curve" smooth="yes"/>
      <point x="238" y="186"/>
      <point x="222" y="226"/>
      <point x="147" y="227" type="curve"/>
      <point x="147" y="316" type="line"/>
    </contour>
    <contour>
      <point x="147" y="200" type="line"/>
      <point x="187" y="199"/>
      <point x="212" y="185"/>
      <point x="212" y="146" type="curve" smooth="yes"/>
      <point x="212" y="106"/>
      <point x="185" y="72"/>
      <point x="147" y="35" type="curve"/>
    </contour>
    <contour>
      <point x="140" y="497" type="line"/>
      <point x="96" y="546"/>
      <point x="87" y="558"/>
      <point x="87" y="569" type="curve" smooth="yes"/>
      <point x="87" y="581"/>
      <point x="98" y="594"/>
      <point x="127" y="619" type="curve" smooth="yes"/>
      <point x="157" y="645"/>
      <point x="176" y="657"/>
      <point x="185" y="657" type="curve" smooth="yes"/>
      <point x="195" y="657"/>
      <point x="212" y="638"/>
      <point x="233" y="615" type="curve" smooth="yes"/>
      <point x="271" y="573"/>
      <point x="286" y="565"/>
      <point x="302" y="565" type="curve" smooth="yes"/>
      <point x="325" y="565"/>
      <point x="347" y="582"/>
      <point x="363" y="595" type="curve" smooth="yes"/>
      <point x="404" y="628"/>
      <point x="424" y="657"/>
      <point x="433" y="657" type="curve" smooth="yes"/>
      <point x="448" y="657"/>
      <point x="517" y="544"/>
      <point x="549" y="544" type="curve" smooth="yes"/>
      <point x="558" y="544"/>
      <point x="565" y="554"/>
      <point x="565" y="571" type="curve"/>
      <point x="546" y="571"/>
      <point x="533" y="583"/>
      <point x="515" y="605" type="curve" smooth="yes"/>
      <point x="477" y="651" type="line" smooth="yes"/>
      <point x="459" y="672"/>
      <point x="445" y="683"/>
      <point x="434" y="683" type="curve" smooth="yes"/>
      <point x="417" y="683"/>
      <point x="390" y="652"/>
      <point x="357" y="624" type="curve" smooth="yes"/>
      <point x="328" y="600"/>
      <point x="310" y="591"/>
      <point x="303" y="591" type="curve" smooth="yes"/>
      <point x="294" y="591"/>
      <point x="277" y="608"/>
      <point x="249" y="636" type="curve" smooth="yes"/>
      <point x="213" y="672"/>
      <point x="203" y="683"/>
      <point x="185" y="683" type="curve" smooth="yes"/>
      <point x="167" y="683"/>
      <point x="148" y="671"/>
      <point x="112" y="639" type="curve" smooth="yes"/>
      <point x="66" y="599"/>
      <point x="60" y="580"/>
      <point x="60" y="568" type="curve" smooth="yes"/>
      <point x="60" y="556"/>
      <point x="68" y="538"/>
      <point x="120" y="481" type="curve"/>
    </contour>
  </outline>
</glyph>
<glyph name="uni1790" format="2">
  <advance width="641"/>
  <unicode hex="1790"/>
  <note>
uni1790
</note>
  <anchor x="308" y="860" name="abvm"/>
  <anchor x="309" y="860" name="abvm_high"/>
  <anchor x="312" y="0" name="blwm"/>
  <outline>
    <contour>
      <point x="138" y="455" type="line"/>
      <point x="112" y="455" type="line"/>
      <point x="112" y="136" type="line" smooth="yes"/>
      <point x="112" y="66"/>
      <point x="208" y="0"/>
      <point x="312" y="0" type="curve" smooth="yes"/>
      <point x="416" y="0"/>
      <point x="510" y="66"/>
      <point x="510" y="136" type="curve" smooth="yes"/>
      <point x="510" y="222" type="line"/>
      <point x="484" y="222" type="line"/>
      <point x="484" y="136" type="line" smooth="yes"/>
      <point x="484" y="84"/>
      <point x="399" y="26"/>
      <point x="312" y="26" type="curve" smooth="yes"/>
      <point x="225" y="26"/>
      <point x="138" y="84"/>
      <point x="138" y="136" type="curve" smooth="yes"/>
    </contour>
    <contour>
      <point x="510" y="206" type="line"/>
      <point x="510" y="396" type="line" smooth="yes"/>
      <point x="510" y="421"/>
      <point x="501" y="428"/>
      <point x="484" y="428" type="curve" smooth="yes"/>
      <point x="436" y="428"/>
      <point x="393" y="374"/>
      <point x="393" y="313" type="curve" smooth="yes"/>
      <point x="393" y="256"/>
      <point x="432" y="217"/>
      <point x="484" y="214" type="curve"/>
      <point x="484" y="206" type="line"/>
    </contour>
    <contour>
      <point x="484" y="240" type="line"/>
      <point x="465" y="240"/>
      <point x="419" y="254"/>
      <point x="419" y="312" type="curve" smooth="yes"/>
      <point x="419" y="363"/>
      <point x="455" y="401"/>
      <point x="484" y="401" type="curve"/>
    </contour>
    <contour>
      <point x="138" y="445" type="line"/>
      <point x="138" y="470" type="line"/>
      <point x="106" y="506"/>
      <point x="75" y="541"/>
      <point x="75" y="550" type="curve" smooth="yes"/>
      <point x="75" y="559"/>
      <point x="85" y="577"/>
      <point x="123" y="615" type="curve" smooth="yes"/>
      <point x="152" y="644"/>
      <point x="167" y="656"/>
      <point x="177" y="656" type="curve" smooth="yes"/>
      <point x="193" y="656"/>
      <point x="209" y="623"/>
      <point x="260" y="580" type="curve" smooth="yes"/>
      <point x="295" y="550"/>
      <point x="341" y="521"/>
      <point x="389" y="521" type="curve" smooth="yes"/>
      <point x="446" y="521"/>
      <point x="515" y="561"/>
      <point x="515" y="642" type="curve" smooth="yes"/>
      <point x="515" y="730"/>
      <point x="430" y="761"/>
      <point x="392" y="761" type="curve" smooth="yes"/>
      <point x="370" y="761"/>
      <point x="364" y="750"/>
      <point x="364" y="726" type="curve"/>
      <point x="441" y="742"/>
      <point x="489" y="697"/>
      <point x="489" y="641" type="curve" smooth="yes"/>
      <point x="489" y="593"/>
      <point x="453" y="547"/>
      <point x="393" y="547" type="curve" smooth="yes"/>
      <point x="339" y="547"/>
      <point x="295" y="584"/>
      <point x="274" y="603" type="curve" smooth="yes"/>
      <point x="225" y="648"/>
      <point x="208" y="682"/>
      <point x="178" y="682" type="curve" smooth="yes"/>
      <point x="161" y="682"/>
      <point x="142" y="672"/>
      <point x="102" y="631" type="curve" smooth="yes"/>
      <point x="61" y="588"/>
      <point x="48" y="565"/>
      <point x="48" y="550" type="curve" smooth="yes"/>
      <point x="48" y="531"/>
      <point x="67" y="510"/>
      <point x="112" y="460" type="curve"/>
      <point x="112" y="445" type="line"/>
    </contour>
  </outline>
</glyph>
<glyph name="uni1791" format="2">
  <advance width="541"/>
  <unicode hex="1791"/>
  <note>
uni1791
</note>
  <anchor x="268" y="760" name="abvm"/>
  <anchor x="243" y="0" name="blwm"/>
  <outline>
    <contour>
      <point x="113" y="193" type="line"/>
      <point x="113" y="142" type="line" smooth="yes"/>
      <point x="113" y="31"/>
      <point x="184" y="0"/>
      <point x="236" y="0" type="curve" smooth="yes"/>
      <point x="288" y="0"/>
      <point x="354" y="31"/>
      <point x="354" y="142" type="curve" smooth="yes"/>
      <point x="354" y="260" type="line"/>
      <point x="417" y="260"/>
      <point x="481" y="288"/>
      <point x="481" y="335" type="curve" smooth="yes"/>
      <point x="481" y="361"/>
      <point x="460" y="379"/>
      <point x="427" y="379" type="curve" smooth="yes"/>
      <point x="369" y="379"/>
      <point x="335" y="325"/>
      <point x="328" y="286" type="curve"/>
      <point x="244" y="286" type="line" smooth="yes"/>
      <point x="160" y="286"/>
      <point x="86" y="352"/>
      <point x="86" y="434" type="curve" smooth="yes"/>
      <point x="86" y="539" type="line" smooth="yes"/>
      <point x="86" y="599"/>
      <point x="164" y="656"/>
      <point x="262" y="656" type="curve" smooth="yes"/>
      <point x="361" y="656"/>
      <point x="442" y="600"/>
      <point x="442" y="550" type="curve"/>
      <point x="405" y="550"/>
      <point x="377" y="520"/>
      <point x="377" y="482" type="curve" smooth="yes"/>
      <point x="377" y="442"/>
      <point x="409" y="413"/>
      <point x="438" y="413" type="curve" smooth="yes"/>
      <point x="453" y="413"/>
      <point x="468" y="420"/>
      <point x="468" y="446" type="curve" smooth="yes"/>
      <point x="468" y="548" type="line" smooth="yes"/>
      <point x="468" y="613"/>
      <point x="382" y="682"/>
      <point x="262" y="682" type="curve" smooth="yes"/>
      <point x="151" y="682"/>
      <point x="60" y="614"/>
      <point x="60" y="536" type="curve" smooth="yes"/>
      <point x="60" y="434" type="line" smooth="yes"/>
      <point x="60" y="319"/>
      <point x="150" y="260"/>
      <point x="250" y="260" type="curve" smooth="yes"/>
      <point x="328" y="260" type="line"/>
      <point x="328" y="144" type="line" smooth="yes"/>
      <point x="328" y="59"/>
      <point x="283" y="26"/>
      <point x="236" y="26" type="curve" smooth="yes"/>
      <point x="185" y="26"/>
      <point x="139" y="59"/>
      <point x="139" y="140" type="curve" smooth="yes"/>
      <point x="139" y="193" type="line"/>
    </contour>
    <contour>
      <point x="427" y="353" type="curve" smooth="yes"/>
      <point x="448" y="353"/>
      <point x="455" y="344"/>
      <point x="455" y="333" type="curve" smooth="yes"/>
      <point x="455" y="296"/>
      <point x="381" y="287"/>
      <point x="355" y="286" type="curve"/>
      <point x="359" y="299"/>
      <point x="375" y="353"/>
    </contour>
    <contour>
      <point x="442" y="438" type="line"/>
      <point x="414" y="438"/>
      <point x="403" y="461"/>
      <point x="403" y="481" type="curve" smooth="yes"/>
      <point x="403" y="500"/>
      <point x="412" y="524"/>
      <point x="442" y="524" type="curve"/>
    </contour>
  </outline>
</glyph>
<glyph name="uni1792" format="2">
  <advance width="649"/>
  <unicode hex="1792"/>
  <note>
uni1792
</note>
  <anchor x="318" y="760" name="abvm"/>
  <anchor x="318" y="0" name="blwm"/>
  <outline>
    <contour>
      <point x="118" y="422" type="line"/>
      <point x="144" y="422" type="line"/>
      <point x="144" y="472" type="line"/>
      <point x="110" y="508"/>
      <point x="81" y="539"/>
      <point x="81" y="551" type="curve" smooth="yes"/>
      <point x="81" y="560"/>
      <point x="92" y="579"/>
      <point x="132" y="615" type="curve" smooth="yes"/>
      <point x="165" y="645"/>
      <point x="185" y="656"/>
      <point x="194" y="656" type="curve" smooth="yes"/>
      <point x="205" y="656"/>
      <point x="222" y="637"/>
      <point x="243" y="614" type="curve" smooth="yes"/>
      <point x="282" y="571"/>
      <point x="294" y="559"/>
      <point x="311" y="559" type="curve" smooth="yes"/>
      <point x="335" y="559"/>
      <point x="357" y="581"/>
      <point x="382" y="608" type="curve" smooth="yes"/>
      <point x="404" y="632"/>
      <point x="425" y="655"/>
      <point x="434" y="655" type="curve" smooth="yes"/>
      <point x="449" y="655"/>
      <point x="530" y="541"/>
      <point x="555" y="541" type="curve" smooth="yes"/>
      <point x="566" y="541"/>
      <point x="574" y="549"/>
      <point x="574" y="566" type="curve"/>
      <point x="548" y="568"/>
      <point x="536" y="584"/>
      <point x="508" y="616" type="curve" smooth="yes"/>
      <point x="481" y="646" type="line" smooth="yes"/>
      <point x="463" y="666"/>
      <point x="449" y="682"/>
      <point x="435" y="682" type="curve" smooth="yes"/>
      <point x="422" y="682"/>
      <point x="397" y="659"/>
      <point x="361" y="623" type="curve" smooth="yes"/>
      <point x="331" y="593"/>
      <point x="321" y="586"/>
      <point x="314" y="586" type="curve" smooth="yes"/>
      <point x="304" y="586"/>
      <point x="288" y="604"/>
      <point x="260" y="635" type="curve" smooth="yes"/>
      <point x="226" y="672"/>
      <point x="212" y="682"/>
      <point x="194" y="682" type="curve" smooth="yes"/>
      <point x="171" y="682"/>
      <point x="149" y="667"/>
      <point x="113" y="634" type="curve" smooth="yes"/>
      <point x="67" y="591"/>
      <point x="54" y="568"/>
      <point x="54" y="550" type="curve" smooth="yes"/>
      <point x="54" y="531"/>
      <point x="73" y="510"/>
      <point x="118" y="460" type="curve"/>
    </contour>
    <contour>
      <point x="144" y="451" type="line"/>
      <point x="118" y="451" type="line"/>
      <point x="118" y="0" type="line"/>
      <point x="149" y="0" type="line"/>
      <point x="318" y="155" type="line"/>
      <point x="485" y="0" type="line"/>
      <point x="516" y="0" type="line"/>
      <point x="516" y="228" type="line"/>
      <point x="490" y="228" type="line"/>
      <point x="490" y="32" type="line"/>
      <point x="318" y="188" type="line"/>
      <point x="144" y="32" type="line"/>
    </contour>
    <contour>
      <point x="516" y="220" type="line"/>
      <point x="516" y="410" type="line" smooth="yes"/>
      <point x="516" y="435"/>
      <point x="507" y="442"/>
      <point x="490" y="442" type="curve" smooth="yes"/>
      <point x="442" y="442"/>
      <point x="399" y="388"/>
      <point x="399" y="327" type="curve" smooth="yes"/>
      <point x="399" y="270"/>
      <point x="438" y="231"/>
      <point x="490" y="228" type="curve"/>
      <point x="490" y="220" type="line"/>
    </contour>
    <contour>
      <point x="490" y="254" type="line"/>
      <point x="471" y="254"/>
      <point x="425" y="268"/>
      <point x="425" y="326" type="curve" smooth="yes"/>
      <point x="425" y="377"/>
      <point x="461" y="415"/>
      <point x="490" y="415" type="curve"/>
    </contour>
  </outline>
</glyph>
<glyph name="uni1793" format="2">
  <advance width="646"/>
  <unicode hex="1793"/>
  <note>
uni1793
</note>
  <anchor x="324" y="760" name="abvm"/>
  <anchor x="324" y="0" name="blwm"/>
  <outline>
    <contour>
      <point x="490" y="526" type="line"/>
      <point x="516" y="526" type="line"/>
      <point x="516" y="543" type="line" smooth="yes"/>
      <point x="516" y="612"/>
      <point x="446" y="682"/>
      <point x="324" y="682" type="curve" smooth="yes"/>
      <point x="202" y="682"/>
      <point x="120" y="616"/>
      <point x="120" y="536" type="curve" smooth="yes"/>
      <point x="120" y="463" type="line" smooth="yes"/>
      <point x="120" y="382"/>
      <point x="198" y="334"/>
      <point x="279" y="306" type="curve" smooth="yes"/>
      <point x="490" y="232" type="line"/>
      <point x="490" y="120" type="line" smooth="yes"/>
      <point x="490" y="50"/>
      <point x="450" y="26"/>
      <point x="410" y="26" type="curve" smooth="yes"/>
      <point x="374" y="26"/>
      <point x="347" y="50"/>
      <point x="304" y="88" type="curve" smooth="yes"/>
      <point x="262" y="125"/>
      <point x="188" y="175"/>
      <point x="146" y="179" type="curve"/>
      <point x="146" y="252" type="line"/>
      <point x="120" y="269" type="line"/>
      <point x="120" y="0" type="line"/>
      <point x="146" y="0" type="line"/>
      <point x="146" y="153" type="line"/>
      <point x="176" y="147"/>
      <point x="242" y="109"/>
      <point x="283" y="72" type="curve" smooth="yes"/>
      <point x="329" y="31"/>
      <point x="364" y="0"/>
      <point x="410" y="0" type="curve" smooth="yes"/>
      <point x="458" y="0"/>
      <point x="516" y="30"/>
      <point x="516" y="122" type="curve" smooth="yes"/>
      <point x="516" y="251" type="line"/>
      <point x="290" y="331" type="line" smooth="yes"/>
      <point x="179" y="370"/>
      <point x="146" y="426"/>
      <point x="146" y="463" type="curve" smooth="yes"/>
      <point x="146" y="539" type="line" smooth="yes"/>
      <point x="146" y="599"/>
      <point x="228" y="656"/>
      <point x="324" y="656" type="curve" smooth="yes"/>
      <point x="416" y="656"/>
      <point x="490" y="598"/>
      <point x="490" y="536" type="curve" smooth="yes"/>
    </contour>
    <contour>
      <point x="490" y="531" type="line"/>
      <point x="490" y="513" type="line"/>
      <point x="457" y="513"/>
      <point x="415" y="492"/>
      <point x="415" y="439" type="curve" smooth="yes"/>
      <point x="415" y="386"/>
      <point x="456" y="366"/>
      <point x="487" y="366" type="curve" smooth="yes"/>
      <point x="504" y="366"/>
      <point x="516" y="372"/>
      <point x="516" y="392" type="curve" smooth="yes"/>
      <point x="516" y="531" type="line"/>
    </contour>
    <contour>
      <point x="490" y="490" type="curve"/>
      <point x="490" y="390" type="line"/>
      <point x="458" y="390"/>
      <point x="441" y="411"/>
      <point x="441" y="439" type="curve" smooth="yes"/>
      <point x="441" y="466"/>
      <point x="457" y="490"/>
    </contour>
  </outline>
</glyph>
<glyph name="uni1795" format="2">
  <advance width="650"/>
  <unicode hex="1795"/>
  <note>
uni1795
</note>
  <anchor x="315" y="860" name="abvm"/>
  <anchor x="316" y="810" name="abvm_high"/>
  <anchor x="325" y="0" name="blwm"/>
  <outline>
    <contour>
      <point x="145" y="445" type="line"/>
      <point x="145" y="470" type="line"/>
      <point x="113" y="506"/>
      <point x="82" y="541"/>
      <point x="82" y="550" type="curve" smooth="yes"/>
      <point x="82" y="559"/>
      <point x="92" y="577"/>
      <point x="130" y="615" type="curve" smooth="yes"/>
      <point x="159" y="644"/>
      <point x="174" y="656"/>
      <point x="184" y="656" type="curve" smooth="yes"/>
      <point x="200" y="656"/>
      <point x="216" y="623"/>
      <point x="267" y="580" type="curve" smooth="yes"/>
      <point x="302" y="550"/>
      <point x="348" y="521"/>
      <point x="396" y="521" type="curve" smooth="yes"/>
      <point x="453" y="521"/>
      <point x="522" y="561"/>
      <point x="522" y="642" type="curve" smooth="yes"/>
      <point x="522" y="730"/>
      <point x="437" y="761"/>
      <point x="399" y="761" type="curve" smooth="yes"/>
      <point x="377" y="761"/>
      <point x="371" y="750"/>
      <point x="371" y="726" type="curve"/>
      <point x="448" y="742"/>
      <point x="496" y="697"/>
      <point x="496" y="641" type="curve" smooth="yes"/>
      <point x="496" y="593"/>
      <point x="460" y="547"/>
      <point x="400" y="547" type="curve" smooth="yes"/>
      <point x="346" y="547"/>
      <point x="302" y="584"/>
      <point x="281" y="603" type="curve" smooth="yes"/>
      <point x="232" y="648"/>
      <point x="215" y="682"/>
      <point x="185" y="682" type="curve" smooth="yes"/>
      <point x="168" y="682"/>
      <point x="149" y="672"/>
      <point x="109" y="631" type="curve" smooth="yes"/>
      <point x="68" y="588"/>
      <point x="55" y="565"/>
      <point x="55" y="550" type="curve" smooth="yes"/>
      <point x="55" y="531"/>
      <point x="74" y="510"/>
      <point x="119" y="460" type="curve"/>
      <point x="119" y="445" type="line"/>
    </contour>
    <contour>
      <point x="145" y="451" type="line"/>
      <point x="119" y="451" type="line"/>
      <point x="119" y="0" type="line"/>
      <point x="150" y="0" type="line"/>
      <point x="319" y="155" type="line"/>
      <point x="486" y="0" type="line"/>
      <point x="517" y="0" type="line"/>
      <point x="517" y="228" type="line"/>
      <point x="491" y="228" type="line"/>
      <point x="491" y="32" type="line"/>
      <point x="319" y="188" type="line"/>
      <point x="145" y="32" type="line"/>
    </contour>
    <contour>
      <point x="517" y="220" type="line"/>
      <point x="517" y="410" type="line" smooth="yes"/>
      <point x="517" y="435"/>
      <point x="508" y="442"/>
      <point x="491" y="442" type="curve" smooth="yes"/>
      <point x="443" y="442"/>
      <point x="400" y="388"/>
      <point x="400" y="327" type="curve" smooth="yes"/>
      <point x="400" y="270"/>
      <point x="439" y="231"/>
      <point x="491" y="228" type="curve"/>
      <point x="491" y="220" type="line"/>
    </contour>
    <contour>
      <point x="491" y="254" type="line"/>
      <point x="472" y="254"/>
      <point x="426" y="268"/>
      <point x="426" y="326" type="curve" smooth="yes"/>
      <point x="426" y="377"/>
      <point x="462" y="415"/>
      <point x="491" y="415" type="curve"/>
    </contour>
  </outline>
</glyph>
<glyph name="uni1796" format="2">
  <advance width="648"/>
  <unicode hex="1796"/>
  <note>
uni1796
</note>
  <anchor x="299" y="760" name="abvm"/>
  <anchor x="320" y="0" name="blwm"/>
  <outline>
    <contour>
      <point x="120" y="302" type="line"/>
      <point x="146" y="302" type="line"/>
      <point x="146" y="479" type="line"/>
      <point x="115" y="516"/>
      <point x="93" y="542"/>
      <point x="93" y="552" type="curve" smooth="yes"/>
      <point x="93" y="560"/>
      <point x="103" y="572"/>
      <point x="144" y="610" type="curve" smooth="yes"/>
      <point x="176" y="639"/>
      <point x="197" y="655"/>
      <point x="203" y="655" type="curve" smooth="yes"/>
      <point x="217" y="655"/>
      <point x="268" y="578"/>
      <point x="298" y="578" type="curve" smooth="yes"/>
      <point x="328" y="578"/>
      <point x="371" y="656"/>
      <point x="408" y="656" type="curve" smooth="yes"/>
      <point x="442" y="656"/>
      <point x="492" y="592"/>
      <point x="492" y="531" type="curve" smooth="yes"/>
      <point x="492" y="0" type="line"/>
      <point x="518" y="0" type="line"/>
      <point x="518" y="531" type="line" smooth="yes"/>
      <point x="518" y="604"/>
      <point x="464" y="682"/>
      <point x="409" y="682" type="curve" smooth="yes"/>
      <point x="382" y="682"/>
      <point x="360" y="663"/>
      <point x="348" y="651" type="curve" smooth="yes"/>
      <point x="325" y="629"/>
      <point x="312" y="606"/>
      <point x="299" y="606" type="curve" smooth="yes"/>
      <point x="291" y="606"/>
      <point x="282" y="615"/>
      <point x="256" y="643" type="curve" smooth="yes"/>
      <point x="236" y="665"/>
      <point x="221" y="681"/>
      <point x="204" y="681" type="curve" smooth="yes"/>
      <point x="191" y="681"/>
      <point x="172" y="672"/>
      <point x="123" y="626" type="curve" smooth="yes"/>
      <point x="72" y="578"/>
      <point x="66" y="562"/>
      <point x="66" y="552" type="curve" smooth="yes"/>
      <point x="66" y="532"/>
      <point x="91" y="503"/>
      <point x="120" y="469" type="curve"/>
    </contour>
    <contour>
      <point x="120" y="316" type="line"/>
      <point x="120" y="0" type="line"/>
      <point x="146" y="0" type="line"/>
      <point x="213" y="63"/>
      <point x="237" y="101"/>
      <point x="237" y="149" type="curve" smooth="yes"/>
      <point x="237" y="186"/>
      <point x="221" y="226"/>
      <point x="146" y="227" type="curve"/>
      <point x="146" y="316" type="line"/>
    </contour>
    <contour>
      <point x="146" y="200" type="line"/>
      <point x="186" y="199"/>
      <point x="211" y="185"/>
      <point x="211" y="146" type="curve" smooth="yes"/>
      <point x="211" y="106"/>
      <point x="184" y="72"/>
      <point x="146" y="35" type="curve"/>
    </contour>
  </outline>
</glyph>
<glyph name="uni1797" format="2">
  <advance width="645"/>
  <unicode hex="1797"/>
  <note>
uni1797
</note>
  <anchor x="317" y="760" name="abvm"/>
  <anchor x="307" y="724" name="abvm_high"/>
  <anchor x="319" y="0" name="blwm"/>
  <outline>
    <contour>
      <point x="129" y="290" type="line"/>
      <point x="155" y="290" type="line"/>
      <point x="155" y="320" type="line" smooth="yes"/>
      <point x="155" y="375"/>
      <point x="227" y="433"/>
      <point x="317" y="433" type="curve" smooth="yes"/>
      <point x="407" y="433"/>
      <point x="479" y="377"/>
      <point x="479" y="320" type="curve" smooth="yes"/>
      <point x="479" y="0" type="line"/>
      <point x="505" y="0" type="line"/>
      <point x="505" y="316" type="line" smooth="yes"/>
      <point x="505" y="395"/>
      <point x="418" y="459"/>
      <point x="318" y="459" type="curve" smooth="yes"/>
      <point x="218" y="459"/>
      <point x="129" y="398"/>
      <point x="129" y="316" type="curve" smooth="yes"/>
    </contour>
    <contour>
      <point x="155" y="306" type="line"/>
      <point x="129" y="306" type="line"/>
      <point x="129" y="228" type="line"/>
      <point x="51" y="226"/>
      <point x="38" y="169"/>
      <point x="38" y="137" type="curve" smooth="yes"/>
      <point x="38" y="96"/>
      <point x="58" y="56"/>
      <point x="129" y="0" type="curve"/>
      <point x="155" y="0" type="line"/>
    </contour>
    <contour>
      <point x="129" y="35" type="line"/>
      <point x="91" y="68"/>
      <point x="64" y="92"/>
      <point x="64" y="137" type="curve" smooth="yes"/>
      <point x="64" y="165"/>
      <point x="74" y="199"/>
      <point x="129" y="202" type="curve"/>
    </contour>
    <contour>
      <point x="139" y="497" type="line"/>
      <point x="95" y="546"/>
      <point x="86" y="558"/>
      <point x="86" y="569" type="curve" smooth="yes"/>
      <point x="86" y="581"/>
      <point x="97" y="594"/>
      <point x="126" y="619" type="curve" smooth="yes"/>
      <point x="156" y="645"/>
      <point x="175" y="657"/>
      <point x="184" y="657" type="curve" smooth="yes"/>
      <point x="194" y="657"/>
      <point x="211" y="638"/>
      <point x="232" y="615" type="curve" smooth="yes"/>
      <point x="270" y="573"/>
      <point x="285" y="565"/>
      <point x="301" y="565" type="curve" smooth="yes"/>
      <point x="324" y="565"/>
      <point x="346" y="582"/>
      <point x="362" y="595" type="curve" smooth="yes"/>
      <point x="403" y="628"/>
      <point x="423" y="657"/>
      <point x="432" y="657" type="curve" smooth="yes"/>
      <point x="447" y="657"/>
      <point x="516" y="544"/>
      <point x="548" y="544" type="curve" smooth="yes"/>
      <point x="557" y="544"/>
      <point x="564" y="554"/>
      <point x="564" y="571" type="curve"/>
      <point x="545" y="571"/>
      <point x="532" y="583"/>
      <point x="514" y="605" type="curve" smooth="yes"/>
      <point x="476" y="651" type="line" smooth="yes"/>
      <point x="458" y="672"/>
      <point x="444" y="683"/>
      <point x="433" y="683" type="curve" smooth="yes"/>
      <point x="416" y="683"/>
      <point x="389" y="652"/>
      <point x="356" y="624" type="curve" smooth="yes"/>
      <point x="327" y="600"/>
      <point x="309" y="591"/>
      <point x="302" y="591" type="curve" smooth="yes"/>
      <point x="293" y="591"/>
      <point x="276" y="608"/>
      <point x="248" y="636" type="curve" smooth="yes"/>
      <point x="212" y="672"/>
      <point x="202" y="683"/>
      <point x="184" y="683" type="curve" smooth="yes"/>
      <point x="166" y="683"/>
      <point x="147" y="671"/>
      <point x="111" y="639" type="curve" smooth="yes"/>
      <point x="65" y="599"/>
      <point x="59" y="580"/>
      <point x="59" y="568" type="curve" smooth="yes"/>
      <point x="59" y="556"/>
      <point x="67" y="538"/>
      <point x="119" y="481" type="curve"/>
    </contour>
  </outline>
</glyph>
<glyph name="uni1798" format="2">
  <advance width="643"/>
  <unicode hex="1798"/>
  <note>
uni1798
</note>
  <anchor x="323" y="760" name="abvm"/>
  <anchor x="323" y="0" name="blwm"/>
  <outline>
    <contour>
      <point x="149" y="283" type="line"/>
      <point x="149" y="257" type="line"/>
      <point x="497" y="257" type="line"/>
      <point x="497" y="283" type="line"/>
    </contour>
    <contour>
      <point x="512" y="384" type="line"/>
      <point x="486" y="384" type="line"/>
      <point x="486" y="136" type="line" smooth="yes"/>
      <point x="486" y="77"/>
      <point x="415" y="26"/>
      <point x="323" y="26" type="curve" smooth="yes"/>
      <point x="233" y="26"/>
      <point x="160" y="76"/>
      <point x="160" y="136" type="curve" smooth="yes"/>
      <point x="160" y="384" type="line"/>
      <point x="134" y="384" type="line"/>
      <point x="134" y="132" type="line" smooth="yes"/>
      <point x="134" y="54"/>
      <point x="223" y="0"/>
      <point x="323" y="0" type="curve" smooth="yes"/>
      <point x="423" y="0"/>
      <point x="512" y="62"/>
      <point x="512" y="132" type="curve" smooth="yes"/>
    </contour>
    <contour>
      <point x="160" y="370" type="line"/>
      <point x="160" y="445" type="line"/>
      <point x="72" y="536" type="line"/>
      <point x="147" y="641" type="line"/>
      <point x="159" y="631"/>
      <point x="202" y="587"/>
      <point x="232" y="587" type="curve" smooth="yes"/>
      <point x="244" y="587"/>
      <point x="253" y="594"/>
      <point x="249" y="612" type="curve"/>
      <point x="218" y="609"/>
      <point x="189" y="634"/>
      <point x="145" y="682" type="curve"/>
      <point x="63" y="569"/>
      <point x="45" y="544"/>
      <point x="45" y="537" type="curve" smooth="yes"/>
      <point x="45" y="526"/>
      <point x="58" y="513"/>
      <point x="134" y="435" type="curve"/>
      <point x="134" y="370" type="line"/>
    </contour>
    <contour>
      <point x="512" y="370" type="line"/>
      <point x="512" y="445" type="line"/>
      <point x="424" y="536" type="line"/>
      <point x="499" y="641" type="line"/>
      <point x="511" y="631"/>
      <point x="554" y="587"/>
      <point x="584" y="587" type="curve" smooth="yes"/>
      <point x="596" y="587"/>
      <point x="605" y="594"/>
      <point x="601" y="612" type="curve"/>
      <point x="570" y="609"/>
      <point x="541" y="634"/>
      <point x="497" y="682" type="curve"/>
      <point x="415" y="569"/>
      <point x="397" y="544"/>
      <point x="397" y="537" type="curve" smooth="yes"/>
      <point x="397" y="526"/>
      <point x="410" y="513"/>
      <point x="486" y="435" type="curve"/>
      <point x="486" y="370" type="line"/>
    </contour>
  </outline>
</glyph>
<glyph name="uni1799" format="2">
  <advance width="1007"/>
  <unicode hex="1799"/>
  <note>
uni1799
</note>
  <anchor x="683" y="760" name="abvm"/>
  <anchor x="688" y="0" name="blwm"/>
  <outline>
    <contour>
      <point x="876" y="370" type="line"/>
      <point x="876" y="445" type="line"/>
      <point x="788" y="536" type="line"/>
      <point x="863" y="641" type="line"/>
      <point x="875" y="631"/>
      <point x="918" y="587"/>
      <point x="948" y="587" type="curve" smooth="yes"/>
      <point x="960" y="587"/>
      <point x="969" y="594"/>
      <point x="965" y="612" type="curve"/>
      <point x="934" y="609"/>
      <point x="905" y="634"/>
      <point x="861" y="682" type="curve"/>
      <point x="779" y="569"/>
      <point x="761" y="544"/>
      <point x="761" y="537" type="curve" smooth="yes"/>
      <point x="761" y="526"/>
      <point x="774" y="513"/>
      <point x="850" y="435" type="curve"/>
      <point x="850" y="370" type="line"/>
    </contour>
    <contour>
      <point x="876" y="393" type="line"/>
      <point x="850" y="393" type="line"/>
      <point x="850" y="126" type="line" smooth="yes"/>
      <point x="850" y="89"/>
      <point x="757" y="26"/>
      <point x="688" y="26" type="curve" smooth="yes"/>
      <point x="619" y="26"/>
      <point x="526" y="68"/>
      <point x="526" y="105" type="curve" smooth="yes"/>
      <point x="526" y="393" type="line"/>
      <point x="500" y="393" type="line"/>
      <point x="500" y="105" type="line" smooth="yes"/>
      <point x="500" y="68"/>
      <point x="404" y="26"/>
      <point x="326" y="26" type="curve" smooth="yes"/>
      <point x="230" y="26"/>
      <point x="156" y="89"/>
      <point x="156" y="126" type="curve" smooth="yes"/>
      <point x="156" y="452" type="line"/>
      <point x="205" y="454"/>
      <point x="268" y="513"/>
      <point x="268" y="578" type="curve" smooth="yes"/>
      <point x="268" y="640"/>
      <point x="212" y="682"/>
      <point x="163" y="682" type="curve" smooth="yes"/>
      <point x="142" y="682"/>
      <point x="130" y="675"/>
      <point x="130" y="647" type="curve" smooth="yes"/>
      <point x="130" y="126" type="line" smooth="yes"/>
      <point x="130" y="66"/>
      <point x="228" y="0"/>
      <point x="326" y="0" type="curve" smooth="yes"/>
      <point x="407" y="0"/>
      <point x="469" y="24"/>
      <point x="514" y="62" type="curve"/>
      <point x="557" y="24"/>
      <point x="622" y="0"/>
      <point x="688" y="0" type="curve" smooth="yes"/>
      <point x="775" y="0"/>
      <point x="876" y="66"/>
      <point x="876" y="126" type="curve" smooth="yes"/>
    </contour>
    <contour>
      <point x="156" y="654" type="line"/>
      <point x="217" y="653"/>
      <point x="241" y="611"/>
      <point x="241" y="575" type="curve" smooth="yes"/>
      <point x="241" y="524"/>
      <point x="195" y="485"/>
      <point x="156" y="479" type="curve"/>
    </contour>
    <contour>
      <point x="526" y="370" type="line"/>
      <point x="526" y="445" type="line"/>
      <point x="438" y="536" type="line"/>
      <point x="513" y="641" type="line"/>
      <point x="525" y="631"/>
      <point x="568" y="587"/>
      <point x="598" y="587" type="curve" smooth="yes"/>
      <point x="610" y="587"/>
      <point x="619" y="594"/>
      <point x="615" y="612" type="curve"/>
      <point x="584" y="609"/>
      <point x="555" y="634"/>
      <point x="511" y="682" type="curve"/>
      <point x="429" y="569"/>
      <point x="411" y="544"/>
      <point x="411" y="537" type="curve" smooth="yes"/>
      <point x="411" y="526"/>
      <point x="424" y="513"/>
      <point x="500" y="435" type="curve"/>
      <point x="500" y="370" type="line"/>
    </contour>
  </outline>
</glyph>
<glyph name="uni179A" format="2">
  <advance width="329"/>
  <unicode hex="179A"/>
  <note>
uni179A
</note>
  <anchor x="174" y="760" name="abvm"/>
  <anchor x="184" y="0" name="blwm"/>
  <outline>
    <contour>
      <point x="199" y="380" type="line"/>
      <point x="173" y="380" type="line"/>
      <point x="173" y="228" type="line"/>
      <point x="95" y="226"/>
      <point x="82" y="168"/>
      <point x="82" y="136" type="curve" smooth="yes"/>
      <point x="82" y="95"/>
      <point x="102" y="56"/>
      <point x="173" y="0" type="curve"/>
      <point x="199" y="0" type="line"/>
    </contour>
    <contour>
      <point x="173" y="35" type="line"/>
      <point x="135" y="68"/>
      <point x="108" y="92"/>
      <point x="108" y="137" type="curve" smooth="yes"/>
      <point x="108" y="165"/>
      <point x="118" y="199"/>
      <point x="173" y="202" type="curve"/>
    </contour>
    <contour>
      <point x="199" y="370" type="line"/>
      <point x="199" y="445" type="line"/>
      <point x="111" y="536" type="line"/>
      <point x="186" y="641" type="line"/>
      <point x="198" y="631"/>
      <point x="241" y="587"/>
      <point x="271" y="587" type="curve" smooth="yes"/>
      <point x="283" y="587"/>
      <point x="292" y="594"/>
      <point x="288" y="612" type="curve"/>
      <point x="257" y="609"/>
      <point x="228" y="634"/>
      <point x="184" y="682" type="curve"/>
      <point x="102" y="569"/>
      <point x="84" y="544"/>
      <point x="84" y="537" type="curve" smooth="yes"/>
      <point x="84" y="526"/>
      <point x="97" y="513"/>
      <point x="173" y="435" type="curve"/>
      <point x="173" y="370" type="line"/>
    </contour>
  </outline>
</glyph>
<glyph name="uni179B" format="2">
  <advance width="994"/>
  <unicode hex="179B"/>
  <note>
uni179B
</note>
  <anchor x="677" y="760" name="abvm"/>
  <anchor x="677" y="0" name="blwm"/>
  <outline>
    <contour>
      <point x="118" y="297" type="line"/>
      <point x="144" y="297" type="line"/>
      <point x="144" y="454" type="line"/>
      <point x="88" y="499" type="line"/>
      <point x="118" y="564"/>
      <point x="206" y="656"/>
      <point x="284" y="656" type="curve" smooth="yes"/>
      <point x="370" y="656"/>
      <point x="489" y="544"/>
      <point x="489" y="463" type="curve" smooth="yes"/>
      <point x="489" y="133" type="line" smooth="yes"/>
      <point x="489" y="49"/>
      <point x="587" y="0"/>
      <point x="677" y="0" type="curve" smooth="yes"/>
      <point x="762" y="0"/>
      <point x="863" y="49"/>
      <point x="863" y="133" type="curve" smooth="yes"/>
      <point x="863" y="398" type="line"/>
      <point x="837" y="398" type="line"/>
      <point x="837" y="128" type="line" smooth="yes"/>
      <point x="837" y="71"/>
      <point x="757" y="26"/>
      <point x="677" y="26" type="curve" smooth="yes"/>
      <point x="597" y="26"/>
      <point x="515" y="71"/>
      <point x="515" y="128" type="curve" smooth="yes"/>
      <point x="515" y="463" type="line" smooth="yes"/>
      <point x="515" y="532"/>
      <point x="464" y="587"/>
      <point x="431" y="616" type="curve" smooth="yes"/>
      <point x="402" y="641"/>
      <point x="346" y="682"/>
      <point x="284" y="682" type="curve" smooth="yes"/>
      <point x="229" y="682"/>
      <point x="173" y="649"/>
      <point x="117" y="587" type="curve" smooth="yes"/>
      <point x="90" y="558"/>
      <point x="62" y="518"/>
      <point x="62" y="497" type="curve" smooth="yes"/>
      <point x="62" y="487"/>
      <point x="69" y="480"/>
      <point x="118" y="442" type="curve"/>
    </contour>
    <contour>
      <point x="118" y="316" type="line"/>
      <point x="118" y="0" type="line"/>
      <point x="144" y="0" type="line"/>
      <point x="211" y="63"/>
      <point x="235" y="101"/>
      <point x="235" y="149" type="curve" smooth="yes"/>
      <point x="235" y="186"/>
      <point x="219" y="226"/>
      <point x="144" y="227" type="curve"/>
      <point x="144" y="316" type="line"/>
    </contour>
    <contour>
      <point x="144" y="200" type="line"/>
      <point x="184" y="199"/>
      <point x="209" y="185"/>
      <point x="209" y="146" type="curve" smooth="yes"/>
      <point x="209" y="106"/>
      <point x="182" y="72"/>
      <point x="144" y="35" type="curve"/>
    </contour>
    <contour>
      <point x="863" y="370" type="line"/>
      <point x="863" y="445" type="line"/>
      <point x="775" y="536" type="line"/>
      <point x="850" y="641" type="line"/>
      <point x="862" y="631"/>
      <point x="905" y="587"/>
      <point x="935" y="587" type="curve" smooth="yes"/>
      <point x="947" y="587"/>
      <point x="956" y="594"/>
      <point x="952" y="612" type="curve"/>
      <point x="921" y="609"/>
      <point x="892" y="634"/>
      <point x="848" y="682" type="curve"/>
      <point x="766" y="569"/>
      <point x="748" y="544"/>
      <point x="748" y="537" type="curve" smooth="yes"/>
      <point x="748" y="526"/>
      <point x="761" y="513"/>
      <point x="837" y="435" type="curve"/>
      <point x="837" y="370" type="line"/>
    </contour>
  </outline>
</glyph>
<glyph name="uni179C" format="2">
  <advance width="290"/>
  <unicode hex="179C"/>
  <note>
uni179C
</note>
  <anchor x="132" y="840" name="abvm"/>
  <anchor x="132" y="0" name="blwm"/>
  <outline>
    <contour>
      <point x="158" y="380" type="line"/>
      <point x="132" y="380" type="line"/>
      <point x="132" y="228" type="line"/>
      <point x="54" y="226"/>
      <point x="41" y="168"/>
      <point x="41" y="136" type="curve" smooth="yes"/>
      <point x="41" y="95"/>
      <point x="61" y="56"/>
      <point x="132" y="0" type="curve"/>
      <point x="158" y="0" type="line"/>
    </contour>
    <contour>
      <point x="132" y="35" type="line"/>
      <point x="94" y="68"/>
      <point x="67" y="92"/>
      <point x="67" y="137" type="curve" smooth="yes"/>
      <point x="67" y="165"/>
      <point x="77" y="199"/>
      <point x="132" y="202" type="curve"/>
    </contour>
    <contour>
      <point x="132" y="330" type="line"/>
      <point x="158" y="330" type="line"/>
      <point x="158" y="445" type="line"/>
      <point x="70" y="536" type="line"/>
      <point x="147" y="644" type="line"/>
      <point x="159" y="633"/>
      <point x="173" y="628"/>
      <point x="187" y="628" type="curve" smooth="yes"/>
      <point x="222" y="628"/>
      <point x="254" y="656"/>
      <point x="254" y="698" type="curve" smooth="yes"/>
      <point x="254" y="742"/>
      <point x="219" y="773"/>
      <point x="199" y="773" type="curve" smooth="yes"/>
      <point x="187" y="773"/>
      <point x="174" y="762"/>
      <point x="175" y="746" type="curve"/>
      <point x="202" y="746"/>
      <point x="228" y="726"/>
      <point x="228" y="697" type="curve" smooth="yes"/>
      <point x="228" y="671"/>
      <point x="207" y="654"/>
      <point x="190" y="654" type="curve" smooth="yes"/>
      <point x="177" y="654"/>
      <point x="163" y="663"/>
      <point x="143" y="682" type="curve"/>
      <point x="61" y="568"/>
      <point x="43" y="543"/>
      <point x="43" y="534" type="curve" smooth="yes"/>
      <point x="43" y="526"/>
      <point x="56" y="513"/>
      <point x="132" y="435" type="curve"/>
    </contour>
  </outline>
</glyph>
<glyph name="uni17A0" format="2">
  <advance width="992"/>
  <unicode hex="17A0"/>
  <note>
uni17A0
</note>
  <anchor x="670" y="760" name="abvm"/>
  <anchor x="664" y="0" name="blwm"/>
  <outline>
    <contour>
      <point x="486" y="375" type="line"/>
      <point x="512" y="375" type="line"/>
      <point x="512" y="454" type="line"/>
      <point x="456" y="499" type="line"/>
      <point x="488" y="559"/>
      <point x="557" y="656"/>
      <point x="645" y="656" type="curve" smooth="yes"/>
      <point x="740" y="656"/>
      <point x="836" y="548"/>
      <point x="836" y="463" type="curve" smooth="yes"/>
      <point x="836" y="0" type="line"/>
      <point x="862" y="0" type="line"/>
      <point x="862" y="463" type="line" smooth="yes"/>
      <point x="862" y="529"/>
      <point x="828" y="575"/>
      <point x="800" y="605" type="curve" smooth="yes"/>
      <point x="771" y="636"/>
      <point x="720" y="682"/>
      <point x="650" y="682" type="curve" smooth="yes"/>
      <point x="572" y="682"/>
      <point x="518" y="624"/>
      <point x="495" y="598" type="curve" smooth="yes"/>
      <point x="468" y="568"/>
      <point x="430" y="520"/>
      <point x="430" y="498" type="curve" smooth="yes"/>
      <point x="430" y="489"/>
      <point x="437" y="480"/>
      <point x="486" y="442" type="curve"/>
    </contour>
    <contour>
      <point x="512" y="384" type="line"/>
      <point x="486" y="384" type="line"/>
      <point x="486" y="136" type="line" smooth="yes"/>
      <point x="486" y="77"/>
      <point x="415" y="26"/>
      <point x="323" y="26" type="curve" smooth="yes"/>
      <point x="233" y="26"/>
      <point x="160" y="76"/>
      <point x="160" y="136" type="curve" smooth="yes"/>
      <point x="160" y="384" type="line"/>
      <point x="134" y="384" type="line"/>
      <point x="134" y="132" type="line" smooth="yes"/>
      <point x="134" y="54"/>
      <point x="223" y="0"/>
      <point x="323" y="0" type="curve" smooth="yes"/>
      <point x="423" y="0"/>
      <point x="512" y="62"/>
      <point x="512" y="132" type="curve" smooth="yes"/>
    </contour>
    <contour>
      <point x="160" y="370" type="line"/>
      <point x="160" y="445" type="line"/>
      <point x="72" y="536" type="line"/>
      <point x="147" y="641" type="line"/>
      <point x="159" y="631"/>
      <point x="202" y="587"/>
      <point x="232" y="587" type="curve" smooth="yes"/>
      <point x="244" y="587"/>
      <point x="253" y="594"/>
      <point x="249" y="612" type="curve"/>
      <point x="218" y="609"/>
      <point x="189" y="634"/>
      <point x="145" y="682" type="curve"/>
      <point x="63" y="569"/>
      <point x="45" y="544"/>
      <point x="45" y="537" type="curve" smooth="yes"/>
      <point x="45" y="526"/>
      <point x="58" y="513"/>
      <point x="134" y="435" type="curve"/>
      <point x="134" y="370" type="line"/>
    </contour>
  </outline>
</glyph>
<glyph name="uni17A1" format="2">
  <advance width="882"/>
  <unicode hex="17A1"/>
  <note>
uni17A1
</note>
  <anchor x="468" y="760" name="abvm"/>
  <anchor x="506" y="-320" name="blwm"/>
  <outline>
    <contour>
      <point x="696" y="370" type="line"/>
      <point x="696" y="445" type="line"/>
      <point x="608" y="536" type="line"/>
      <point x="683" y="641" type="line"/>
      <point x="695" y="631"/>
      <point x="738" y="587"/>
      <point x="768" y="587" type="curve" smooth="yes"/>
      <point x="780" y="587"/>
      <point x="789" y="594"/>
      <point x="785" y="612" type="curve"/>
      <point x="754" y="609"/>
      <point x="725" y="634"/>
      <point x="681" y="682" type="curve"/>
      <point x="599" y="569"/>
      <point x="581" y="544"/>
      <point x="581" y="537" type="curve" smooth="yes"/>
      <point x="581" y="526"/>
      <point x="594" y="513"/>
      <point x="670" y="435" type="curve"/>
      <point x="670" y="370" type="line"/>
    </contour>
    <contour>
      <point x="113" y="193" type="line"/>
      <point x="113" y="142" type="line" smooth="yes"/>
      <point x="113" y="31"/>
      <point x="184" y="0"/>
      <point x="236" y="0" type="curve" smooth="yes"/>
      <point x="288" y="0"/>
      <point x="354" y="31"/>
      <point x="354" y="142" type="curve" smooth="yes"/>
      <point x="354" y="260" type="line"/>
      <point x="417" y="260"/>
      <point x="481" y="288"/>
      <point x="481" y="335" type="curve" smooth="yes"/>
      <point x="481" y="361"/>
      <point x="460" y="379"/>
      <point x="427" y="379" type="curve" smooth="yes"/>
      <point x="369" y="379"/>
      <point x="335" y="325"/>
      <point x="328" y="286" type="curve"/>
      <point x="244" y="286" type="line" smooth="yes"/>
      <point x="160" y="286"/>
      <point x="86" y="352"/>
      <point x="86" y="434" type="curve" smooth="yes"/>
      <point x="86" y="539" type="line" smooth="yes"/>
      <point x="86" y="599"/>
      <point x="164" y="656"/>
      <point x="262" y="656" type="curve" smooth="yes"/>
      <point x="361" y="656"/>
      <point x="442" y="600"/>
      <point x="442" y="550" type="curve"/>
      <point x="405" y="550"/>
      <point x="377" y="520"/>
      <point x="377" y="482" type="curve" smooth="yes"/>
      <point x="377" y="442"/>
      <point x="409" y="413"/>
      <point x="438" y="413" type="curve" smooth="yes"/>
      <point x="453" y="413"/>
      <point x="468" y="420"/>
      <point x="468" y="446" type="curve" smooth="yes"/>
      <point x="468" y="548" type="line" smooth="yes"/>
      <point x="468" y="613"/>
      <point x="382" y="682"/>
      <point x="262" y="682" type="curve" smooth="yes"/>
      <point x="151" y="682"/>
      <point x="60" y="614"/>
      <point x="60" y="536" type="curve" smooth="yes"/>
      <point x="60" y="434" type="line" smooth="yes"/>
      <point x="60" y="319"/>
      <point x="150" y="260"/>
      <point x="250" y="260" type="curve" smooth="yes"/>
      <point x="328" y="260" type="line"/>
      <point x="328" y="144" type="line" smooth="yes"/>
      <point x="328" y="59"/>
      <point x="283" y="26"/>
      <point x="236" y="26" type="curve" smooth="yes"/>
      <point x="185" y="26"/>
      <point x="139" y="59"/>
      <point x="139" y="140" type="curve" smooth="yes"/>
      <point x="139" y="193" type="line"/>
    </contour>
    <contour>
      <point x="427" y="353" type="curve" smooth="yes"/>
      <point x="448" y="353"/>
      <point x="455" y="344"/>
      <point x="455" y="333" type="curve" smooth="yes"/>
      <point x="455" y="296"/>
      <point x="381" y="287"/>
      <point x="355" y="286" type="curve"/>
      <point x="359" y="299"/>
      <point x="375" y="353"/>
    </contour>
    <contour>
      <point x="442" y="438" type="line"/>
      <point x="414" y="438"/>
      <point x="403" y="461"/>
      <point x="403" y="481" type="curve" smooth="yes"/>
      <point x="403" y="500"/>
      <point x="412" y="524"/>
      <point x="442" y="524" type="curve"/>
    </contour>
    <contour>
      <point x="348" y="-136" type="line"/>
      <point x="322" y="-136" type="line"/>
      <point x="322" y="-317" type="line"/>
      <point x="348" y="-317" type="line"/>
      <point x="509" y="-185" type="line"/>
      <point x="670" y="-317" type="line"/>
      <point x="696" y="-317" type="line"/>
      <point x="696" y="381" type="line"/>
      <point x="670" y="381" type="line"/>
      <point x="670" y="-283" type="line"/>
      <point x="509" y="-151" type="line"/>
      <point x="348" y="-283" type="line"/>
    </contour>
    <contour>
      <point x="322" y="-151" type="line"/>
      <point x="348" y="-151" type="line"/>
      <point x="348" y="-78" type="line" smooth="yes"/>
      <point x="348" y="-55"/>
      <point x="338" y="-49"/>
      <point x="326" y="-49" type="curve" smooth="yes"/>
      <point x="311" y="-49"/>
      <point x="296" y="-58"/>
      <point x="296" y="-78" type="curve" smooth="yes"/>
      <point x="296" y="-100"/>
      <point x="315" y="-105"/>
      <point x="322" y="-106" type="curve"/>
    </contour>
  </outline>
</glyph>
<glyph name="uni17A3" format="2">
  <advance width="694"/>
  <unicode hex="17A3"/>
  <note>
uni17A3
</note>
  <anchor x="360" y="760" name="abvm"/>
  <anchor x="357" y="0" name="blwm"/>
  <outline>
    <contour>
      <point x="564" y="370" type="line"/>
      <point x="564" y="445" type="line"/>
      <point x="476" y="536" type="line"/>
      <point x="551" y="641" type="line"/>
      <point x="563" y="631"/>
      <point x="606" y="587"/>
      <point x="636" y="587" type="curve" smooth="yes"/>
      <point x="648" y="587"/>
      <point x="657" y="594"/>
      <point x="653" y="612" type="curve"/>
      <point x="622" y="609"/>
      <point x="593" y="634"/>
      <point x="549" y="682" type="curve"/>
      <point x="467" y="569"/>
      <point x="449" y="544"/>
      <point x="449" y="537" type="curve" smooth="yes"/>
      <point x="449" y="526"/>
      <point x="462" y="513"/>
      <point x="538" y="435" type="curve"/>
      <point x="538" y="370" type="line"/>
    </contour>
    <contour>
      <point x="538" y="303" type="line"/>
      <point x="564" y="303" type="line"/>
      <point x="564" y="398" type="line"/>
      <point x="538" y="398" type="line"/>
      <point x="538" y="349" type="line"/>
      <point x="192" y="349" type="line"/>
      <point x="192" y="398" type="line"/>
      <point x="166" y="398" type="line"/>
      <point x="166" y="303" type="line"/>
      <point x="192" y="303" type="line"/>
      <point x="192" y="323" type="line"/>
      <point x="538" y="323" type="line"/>
    </contour>
    <contour>
      <point x="192" y="370" type="line"/>
      <point x="192" y="445" type="line"/>
      <point x="104" y="536" type="line"/>
      <point x="179" y="641" type="line"/>
      <point x="191" y="631"/>
      <point x="234" y="587"/>
      <point x="264" y="587" type="curve" smooth="yes"/>
      <point x="276" y="587"/>
      <point x="285" y="594"/>
      <point x="281" y="612" type="curve"/>
      <point x="250" y="609"/>
      <point x="221" y="634"/>
      <point x="177" y="682" type="curve"/>
      <point x="95" y="569"/>
      <point x="77" y="544"/>
      <point x="77" y="537" type="curve" smooth="yes"/>
      <point x="77" y="526"/>
      <point x="90" y="513"/>
      <point x="166" y="435" type="curve"/>
      <point x="166" y="370" type="line"/>
    </contour>
    <contour>
      <point x="564" y="380" type="line"/>
      <point x="538" y="380" type="line"/>
      <point x="538" y="228" type="line"/>
      <point x="460" y="226"/>
      <point x="447" y="168"/>
      <point x="447" y="136" type="curve" smooth="yes"/>
      <point x="447" y="95"/>
      <point x="467" y="56"/>
      <point x="538" y="0" type="curve"/>
      <point x="564" y="0" type="line"/>
    </contour>
    <contour>
      <point x="538" y="35" type="line"/>
      <point x="500" y="68"/>
      <point x="473" y="92"/>
      <point x="473" y="137" type="curve" smooth="yes"/>
      <point x="473" y="165"/>
      <point x="483" y="199"/>
      <point x="538" y="202" type="curve"/>
    </contour>
    <contour>
      <point x="192" y="380" type="line"/>
      <point x="166" y="380" type="line"/>
      <point x="166" y="228" type="line"/>
      <point x="88" y="226"/>
      <point x="75" y="168"/>
      <point x="75" y="136" type="curve" smooth="yes"/>
      <point x="75" y="95"/>
      <point x="95" y="56"/>
      <point x="166" y="0" type="curve"/>
      <point x="192" y="0" type="line"/>
    </contour>
    <contour>
      <point x="166" y="35" type="line"/>
      <point x="128" y="68"/>
      <point x="101" y="92"/>
      <point x="101" y="137" type="curve" smooth="yes"/>
      <point x="101" y="165"/>
      <point x="111" y="199"/>
      <point x="166" y="202" type="curve"/>
    </contour>
  </outline>
</glyph>
<glyph name="uni17A4" format="2">
  <advance width="1039"/>
  <unicode hex="17A4"/>
  <note>
uni17A4
</note>
  <anchor x="360" y="760" name="abvm"/>
  <anchor x="721" y="760" name="abvm_a"/>
  <anchor x="835" y="740" name="abvm_high"/>
  <anchor x="357" y="0" name="blwm"/>
  <anchor x="718" y="0" name="blwm_a"/>
  <outline>
    <contour>
      <point x="538" y="355" type="line"/>
      <point x="564" y="355" type="line"/>
      <point x="564" y="431" type="line"/>
      <point x="477" y="518" type="line"/>
      <point x="530" y="602"/>
      <point x="568" y="656"/>
      <point x="592" y="656" type="curve" smooth="yes"/>
      <point x="609" y="656"/>
      <point x="674" y="629"/>
      <point x="735" y="597" type="curve" smooth="yes"/>
      <point x="804" y="561"/>
      <point x="883" y="527"/>
      <point x="883" y="475" type="curve" smooth="yes"/>
      <point x="883" y="0" type="line"/>
      <point x="909" y="0" type="line"/>
      <point x="909" y="469" type="line" smooth="yes"/>
      <point x="909" y="524"/>
      <point x="889" y="548"/>
      <point x="765" y="611" type="curve" smooth="yes"/>
      <point x="647" y="671"/>
      <point x="612" y="682"/>
      <point x="593" y="682" type="curve" smooth="yes"/>
      <point x="566" y="682"/>
      <point x="545" y="662"/>
      <point x="498" y="599" type="curve" smooth="yes"/>
      <point x="461" y="549"/>
      <point x="449" y="527"/>
      <point x="449" y="515" type="curve" smooth="yes"/>
      <point x="449" y="505"/>
      <point x="473" y="482"/>
      <point x="538" y="420" type="curve"/>
    </contour>
    <contour>
      <point x="538" y="303" type="line"/>
      <point x="564" y="303" type="line"/>
      <point x="564" y="398" type="line"/>
      <point x="538" y="398" type="line"/>
      <point x="538" y="349" type="line"/>
      <point x="192" y="349" type="line"/>
      <point x="192" y="398" type="line"/>
      <point x="166" y="398" type="line"/>
      <point x="166" y="303" type="line"/>
      <point x="192" y="303" type="line"/>
      <point x="192" y="323" type="line"/>
      <point x="538" y="323" type="line"/>
    </contour>
    <contour>
      <point x="192" y="370" type="line"/>
      <point x="192" y="445" type="line"/>
      <point x="104" y="536" type="line"/>
      <point x="179" y="641" type="line"/>
      <point x="191" y="631"/>
      <point x="234" y="587"/>
      <point x="264" y="587" type="curve" smooth="yes"/>
      <point x="276" y="587"/>
      <point x="285" y="594"/>
      <point x="281" y="612" type="curve"/>
      <point x="250" y="609"/>
      <point x="221" y="634"/>
      <point x="177" y="682" type="curve"/>
      <point x="95" y="569"/>
      <point x="77" y="544"/>
      <point x="77" y="537" type="curve" smooth="yes"/>
      <point x="77" y="526"/>
      <point x="90" y="513"/>
      <point x="166" y="435" type="curve"/>
      <point x="166" y="370" type="line"/>
    </contour>
    <contour>
      <point x="564" y="380" type="line"/>
      <point x="538" y="380" type="line"/>
      <point x="538" y="228" type="line"/>
      <point x="460" y="226"/>
      <point x="447" y="168"/>
      <point x="447" y="136" type="curve" smooth="yes"/>
      <point x="447" y="95"/>
      <point x="467" y="56"/>
      <point x="538" y="0" type="curve"/>
      <point x="564" y="0" type="line"/>
    </contour>
    <contour>
      <point x="538" y="35" type="line"/>
      <point x="500" y="68"/>
      <point x="473" y="92"/>
      <point x="473" y="137" type="curve" smooth="yes"/>
      <point x="473" y="165"/>
      <point x="483" y="199"/>
      <point x="538" y="202" type="curve"/>
    </contour>
    <contour>
      <point x="192" y="380" type="line"/>
      <point x="166" y="380" type="line"/>
      <point x="166" y="228" type="line"/>
      <point x="88" y="226"/>
      <point x="75" y="168"/>
      <point x="75" y="136" type="curve" smooth="yes"/>
      <point x="75" y="95"/>
      <point x="95" y="56"/>
      <point x="166" y="0" type="curve"/>
      <point x="192" y="0" type="line"/>
    </contour>
    <contour>
      <point x="166" y="35" type="line"/>
      <point x="128" y="68"/>
      <point x="101" y="92"/>
      <point x="101" y="137" type="curve" smooth="yes"/>
      <point x="101" y="165"/>
      <point x="111" y="199"/>
      <point x="166" y="202" type="curve"/>
    </contour>
  </outline>
</glyph>
<glyph name="uni17A5" format="2">
  <advance width="684"/>
  <unicode hex="17A5"/>
  <note>
uni17A5
</note>
  <outline>
    <contour>
      <point x="156" y="280" type="line"/>
      <point x="182" y="280" type="line"/>
      <point x="182" y="375" type="line" smooth="yes"/>
      <point x="182" y="434"/>
      <point x="255" y="487"/>
      <point x="354" y="487" type="curve" smooth="yes"/>
      <point x="450" y="487"/>
      <point x="526" y="436"/>
      <point x="526" y="375" type="curve" smooth="yes"/>
      <point x="526" y="0" type="line"/>
      <point x="552" y="0" type="line"/>
      <point x="552" y="370" type="line" smooth="yes"/>
      <point x="552" y="449"/>
      <point x="473" y="513"/>
      <point x="355" y="513" type="curve" smooth="yes"/>
      <point x="238" y="513"/>
      <point x="156" y="452"/>
      <point x="156" y="370" type="curve" smooth="yes"/>
    </contour>
    <contour>
      <point x="156" y="316" type="line"/>
      <point x="156" y="0" type="line"/>
      <point x="182" y="0" type="line"/>
      <point x="249" y="63"/>
      <point x="273" y="101"/>
      <point x="273" y="149" type="curve" smooth="yes"/>
      <point x="273" y="186"/>
      <point x="257" y="226"/>
      <point x="182" y="227" type="curve"/>
      <point x="182" y="316" type="line"/>
    </contour>
    <contour>
      <point x="182" y="200" type="line"/>
      <point x="222" y="199"/>
      <point x="247" y="185"/>
      <point x="247" y="146" type="curve" smooth="yes"/>
      <point x="247" y="106"/>
      <point x="220" y="72"/>
      <point x="182" y="35" type="curve"/>
    </contour>
    <contour>
      <point x="171" y="503" type="curve"/>
      <point x="193" y="519" type="line"/>
      <point x="161" y="555"/>
      <point x="134" y="577"/>
      <point x="134" y="592" type="curve" smooth="yes"/>
      <point x="134" y="602"/>
      <point x="146" y="618"/>
      <point x="183" y="657" type="curve" smooth="yes"/>
      <point x="212" y="687"/>
      <point x="225" y="697"/>
      <point x="234" y="697" type="curve" smooth="yes"/>
      <point x="248" y="697"/>
      <point x="273" y="670"/>
      <point x="312" y="629" type="curve" smooth="yes"/>
      <point x="354" y="585"/>
      <point x="398" y="564"/>
      <point x="443" y="564" type="curve" smooth="yes"/>
      <point x="493" y="564"/>
      <point x="574" y="590"/>
      <point x="574" y="685" type="curve" smooth="yes"/>
      <point x="574" y="779"/>
      <point x="494" y="804"/>
      <point x="447" y="804" type="curve" smooth="yes"/>
      <point x="426" y="804"/>
      <point x="418" y="791"/>
      <point x="423" y="769" type="curve"/>
      <point x="500" y="785"/>
      <point x="548" y="747"/>
      <point x="548" y="683" type="curve" smooth="yes"/>
      <point x="548" y="632"/>
      <point x="512" y="590"/>
      <point x="445" y="590" type="curve" smooth="yes"/>
      <point x="388" y="590"/>
      <point x="354" y="624"/>
      <point x="323" y="655" type="curve" smooth="yes"/>
      <point x="287" y="691"/>
      <point x="264" y="725"/>
      <point x="235" y="725" type="curve" smooth="yes"/>
      <point x="217" y="725"/>
      <point x="202" y="713"/>
      <point x="162" y="673" type="curve" smooth="yes"/>
      <point x="120" y="631"/>
      <point x="107" y="608"/>
      <point x="107" y="592" type="curve" smooth="yes"/>
      <point x="107" y="574"/>
      <point x="126" y="553"/>
    </contour>
  </outline>
</glyph>
<glyph name="uni17A6" format="2">
  <advance width="1043"/>
  <unicode hex="17A6"/>
  <note>
uni17A6
</note>
  <outline>
    <contour>
      <point x="876" y="371" type="line"/>
      <point x="876" y="-171" type="line" smooth="yes"/>
      <point x="876" y="-241"/>
      <point x="819" y="-291"/>
      <point x="699" y="-291" type="curve" smooth="yes"/>
      <point x="571" y="-291"/>
      <point x="530" y="-248"/>
      <point x="530" y="-171" type="curve" smooth="yes"/>
      <point x="530" y="-106"/>
      <point x="470" y="-24"/>
      <point x="354" y="-24" type="curve" smooth="yes"/>
      <point x="238" y="-24"/>
      <point x="178" y="-106"/>
      <point x="178" y="-171" type="curve" smooth="yes"/>
      <point x="178" y="-285" type="line" smooth="yes"/>
      <point x="178" y="-307"/>
      <point x="196" y="-317"/>
      <point x="210" y="-317" type="curve" smooth="yes"/>
      <point x="227" y="-317"/>
      <point x="242" y="-300"/>
      <point x="242" y="-279" type="curve" smooth="yes"/>
      <point x="242" y="-258"/>
      <point x="227" y="-241"/>
      <point x="204" y="-241" type="curve"/>
      <point x="204" y="-171" type="line" smooth="yes"/>
      <point x="204" y="-133"/>
      <point x="248" y="-50"/>
      <point x="354" y="-50" type="curve" smooth="yes"/>
      <point x="460" y="-50"/>
      <point x="504" y="-126"/>
      <point x="504" y="-171" type="curve" smooth="yes"/>
      <point x="504" y="-256"/>
      <point x="547" y="-317"/>
      <point x="700" y="-317" type="curve" smooth="yes"/>
      <point x="840" y="-317"/>
      <point x="902" y="-246"/>
      <point x="902" y="-171" type="curve" smooth="yes"/>
      <point x="902" y="371" type="line"/>
    </contour>
    <contour>
      <point x="156" y="288" type="line"/>
      <point x="182" y="288" type="line"/>
      <point x="182" y="543" type="line" smooth="yes"/>
      <point x="182" y="602"/>
      <point x="255" y="655"/>
      <point x="354" y="655" type="curve" smooth="yes"/>
      <point x="450" y="655"/>
      <point x="526" y="604"/>
      <point x="526" y="543" type="curve" smooth="yes"/>
      <point x="526" y="0" type="line"/>
      <point x="552" y="0" type="line"/>
      <point x="552" y="538" type="line" smooth="yes"/>
      <point x="552" y="617"/>
      <point x="473" y="681"/>
      <point x="355" y="681" type="curve" smooth="yes"/>
      <point x="238" y="681"/>
      <point x="156" y="620"/>
      <point x="156" y="538" type="curve" smooth="yes"/>
    </contour>
    <contour>
      <point x="876" y="330" type="line"/>
      <point x="902" y="330" type="line"/>
      <point x="902" y="445" type="line"/>
      <point x="814" y="536" type="line"/>
      <point x="891" y="644" type="line"/>
      <point x="903" y="633"/>
      <point x="917" y="628"/>
      <point x="931" y="628" type="curve" smooth="yes"/>
      <point x="966" y="628"/>
      <point x="998" y="656"/>
      <point x="998" y="698" type="curve" smooth="yes"/>
      <point x="998" y="742"/>
      <point x="963" y="773"/>
      <point x="943" y="773" type="curve" smooth="yes"/>
      <point x="931" y="773"/>
      <point x="918" y="762"/>
      <point x="919" y="746" type="curve"/>
      <point x="946" y="746"/>
      <point x="972" y="726"/>
      <point x="972" y="697" type="curve" smooth="yes"/>
      <point x="972" y="671"/>
      <point x="951" y="654"/>
      <point x="934" y="654" type="curve" smooth="yes"/>
      <point x="921" y="654"/>
      <point x="907" y="663"/>
      <point x="887" y="682" type="curve"/>
      <point x="805" y="568"/>
      <point x="787" y="543"/>
      <point x="787" y="534" type="curve" smooth="yes"/>
      <point x="787" y="526"/>
      <point x="800" y="513"/>
      <point x="876" y="435" type="curve"/>
    </contour>
    <contour>
      <point x="156" y="316" type="line"/>
      <point x="156" y="0" type="line"/>
      <point x="182" y="0" type="line"/>
      <point x="249" y="63"/>
      <point x="273" y="101"/>
      <point x="273" y="149" type="curve" smooth="yes"/>
      <point x="273" y="186"/>
      <point x="257" y="226"/>
      <point x="182" y="227" type="curve"/>
      <point x="182" y="316" type="line"/>
    </contour>
    <contour>
      <point x="182" y="200" type="line"/>
      <point x="222" y="199"/>
      <point x="247" y="185"/>
      <point x="247" y="146" type="curve" smooth="yes"/>
      <point x="247" y="106"/>
      <point x="220" y="72"/>
      <point x="182" y="35" type="curve"/>
    </contour>
  </outline>
</glyph>
<glyph name="uni17A7" format="2">
  <advance width="660"/>
  <unicode hex="17A7"/>
  <note>
uni17A7
</note>
  <anchor x="330" y="760" name="abvm"/>
  <anchor x="330" y="-50" name="blwm"/>
  <outline>
    <contour>
      <point x="130" y="513" type="line"/>
      <point x="156" y="513" type="line"/>
      <point x="156" y="549" type="line" smooth="yes"/>
      <point x="156" y="602"/>
      <point x="230" y="656"/>
      <point x="330" y="656" type="curve" smooth="yes"/>
      <point x="430" y="656"/>
      <point x="504" y="604"/>
      <point x="504" y="549" type="curve" smooth="yes"/>
      <point x="504" y="463" type="line" smooth="yes"/>
      <point x="504" y="437"/>
      <point x="446" y="397"/>
      <point x="330" y="338" type="curve" smooth="yes"/>
      <point x="130" y="235" type="line"/>
      <point x="130" y="100" type="line" smooth="yes"/>
      <point x="130" y="38"/>
      <point x="169" y="0"/>
      <point x="217" y="0" type="curve" smooth="yes"/>
      <point x="260" y="0"/>
      <point x="318" y="40"/>
      <point x="367" y="74" type="curve" smooth="yes"/>
      <point x="400" y="97"/>
      <point x="482" y="154"/>
      <point x="504" y="157" type="curve"/>
      <point x="504" y="21" type="line" smooth="yes"/>
      <point x="504" y="9"/>
      <point x="503" y="-7"/>
      <point x="478" y="-18" type="curve"/>
      <point x="478" y="-41"/>
      <point x="492" y="-49"/>
      <point x="503" y="-49" type="curve" smooth="yes"/>
      <point x="520" y="-49"/>
      <point x="530" y="-30"/>
      <point x="530" y="-4" type="curve" smooth="yes"/>
      <point x="530" y="252" type="line"/>
      <point x="504" y="235" type="line"/>
      <point x="504" y="183" type="line"/>
      <point x="469" y="175"/>
      <point x="399" y="127"/>
      <point x="336" y="83" type="curve" smooth="yes"/>
      <point x="288" y="50"/>
      <point x="260" y="26"/>
      <point x="224" y="26" type="curve" smooth="yes"/>
      <point x="178" y="26"/>
      <point x="156" y="65"/>
      <point x="156" y="100" type="curve" smooth="yes"/>
      <point x="156" y="219" type="line"/>
      <point x="376" y="333" type="line" smooth="yes"/>
      <point x="478" y="386"/>
      <point x="530" y="413"/>
      <point x="530" y="476" type="curve" smooth="yes"/>
      <point x="530" y="556" type="line" smooth="yes"/>
      <point x="530" y="619"/>
      <point x="440" y="682"/>
      <point x="330" y="682" type="curve" smooth="yes"/>
      <point x="220" y="682"/>
      <point x="130" y="620"/>
      <point x="130" y="556" type="curve" smooth="yes"/>
    </contour>
    <contour>
      <point x="156" y="536" type="line"/>
      <point x="130" y="536" type="line"/>
      <point x="130" y="397" type="line" smooth="yes"/>
      <point x="130" y="377"/>
      <point x="144" y="372"/>
      <point x="157" y="372" type="curve" smooth="yes"/>
      <point x="188" y="372"/>
      <point x="227" y="401"/>
      <point x="227" y="452" type="curve" smooth="yes"/>
      <point x="227" y="502"/>
      <point x="189" y="528"/>
      <point x="156" y="528" type="curve"/>
    </contour>
    <contour>
      <point x="156" y="502" type="line"/>
      <point x="176" y="502"/>
      <point x="201" y="487"/>
      <point x="201" y="453" type="curve" smooth="yes"/>
      <point x="201" y="428"/>
      <point x="187" y="400"/>
      <point x="156" y="398" type="curve"/>
    </contour>
  </outline>
</glyph>
<glyph name="uni17A8" format="2">
  <advance width="660"/>
  <unicode hex="17A8"/>
  <note>
uni17A8
</note>
  <anchor x="333" y="940" name="abvm"/>
  <anchor x="362" y="-50" name="blwm"/>
  <outline>
    <contour>
      <point x="130" y="513" type="line"/>
      <point x="156" y="513" type="line"/>
      <point x="156" y="549" type="line" smooth="yes"/>
      <point x="156" y="602"/>
      <point x="230" y="656"/>
      <point x="330" y="656" type="curve" smooth="yes"/>
      <point x="430" y="656"/>
      <point x="504" y="604"/>
      <point x="504" y="549" type="curve" smooth="yes"/>
      <point x="504" y="463" type="line" smooth="yes"/>
      <point x="504" y="437"/>
      <point x="446" y="397"/>
      <point x="330" y="338" type="curve" smooth="yes"/>
      <point x="130" y="235" type="line"/>
      <point x="130" y="100" type="line" smooth="yes"/>
      <point x="130" y="38"/>
      <point x="169" y="0"/>
      <point x="217" y="0" type="curve" smooth="yes"/>
      <point x="260" y="0"/>
      <point x="318" y="40"/>
      <point x="367" y="74" type="curve" smooth="yes"/>
      <point x="400" y="97"/>
      <point x="482" y="154"/>
      <point x="504" y="157" type="curve"/>
      <point x="504" y="21" type="line" smooth="yes"/>
      <point x="504" y="9"/>
      <point x="503" y="-7"/>
      <point x="478" y="-18" type="curve"/>
      <point x="478" y="-41"/>
      <point x="492" y="-49"/>
      <point x="503" y="-49" type="curve" smooth="yes"/>
      <point x="520" y="-49"/>
      <point x="530" y="-30"/>
      <point x="530" y="-4" type="curve" smooth="yes"/>
      <point x="530" y="252" type="line"/>
      <point x="504" y="235" type="line"/>
      <point x="504" y="183" type="line"/>
      <point x="469" y="175"/>
      <point x="399" y="127"/>
      <point x="336" y="83" type="curve" smooth="yes"/>
      <point x="288" y="50"/>
      <point x="260" y="26"/>
      <point x="224" y="26" type="curve" smooth="yes"/>
      <point x="178" y="26"/>
      <point x="156" y="65"/>
      <point x="156" y="100" type="curve" smooth="yes"/>
      <point x="156" y="219" type="line"/>
      <point x="376" y="333" type="line" smooth="yes"/>
      <point x="478" y="386"/>
      <point x="530" y="413"/>
      <point x="530" y="476" type="curve" smooth="yes"/>
      <point x="530" y="556" type="line" smooth="yes"/>
      <point x="530" y="619"/>
      <point x="440" y="682"/>
      <point x="330" y="682" type="curve" smooth="yes"/>
      <point x="220" y="682"/>
      <point x="130" y="620"/>
      <point x="130" y="556" type="curve" smooth="yes"/>
    </contour>
    <contour>
      <point x="156" y="536" type="line"/>
      <point x="130" y="536" type="line"/>
      <point x="130" y="397" type="line" smooth="yes"/>
      <point x="130" y="377"/>
      <point x="144" y="372"/>
      <point x="157" y="372" type="curve" smooth="yes"/>
      <point x="188" y="372"/>
      <point x="227" y="401"/>
      <point x="227" y="452" type="curve" smooth="yes"/>
      <point x="227" y="502"/>
      <point x="189" y="528"/>
      <point x="156" y="528" type="curve"/>
    </contour>
    <contour>
      <point x="156" y="502" type="line"/>
      <point x="176" y="502"/>
      <point x="201" y="487"/>
      <point x="201" y="453" type="curve" smooth="yes"/>
      <point x="201" y="428"/>
      <point x="187" y="400"/>
      <point x="156" y="398" type="curve"/>
    </contour>
    <contour>
      <point x="174" y="705" type="line"/>
      <point x="130" y="754"/>
      <point x="121" y="766"/>
      <point x="121" y="777" type="curve" smooth="yes"/>
      <point x="121" y="789"/>
      <point x="132" y="802"/>
      <point x="161" y="827" type="curve" smooth="yes"/>
      <point x="191" y="853"/>
      <point x="210" y="865"/>
      <point x="219" y="865" type="curve" smooth="yes"/>
      <point x="229" y="865"/>
      <point x="246" y="846"/>
      <point x="267" y="823" type="curve" smooth="yes"/>
      <point x="305" y="781"/>
      <point x="320" y="773"/>
      <point x="336" y="773" type="curve" smooth="yes"/>
      <point x="359" y="773"/>
      <point x="381" y="790"/>
      <point x="397" y="803" type="curve" smooth="yes"/>
      <point x="438" y="836"/>
      <point x="458" y="865"/>
      <point x="467" y="865" type="curve" smooth="yes"/>
      <point x="482" y="865"/>
      <point x="551" y="752"/>
      <point x="583" y="752" type="curve" smooth="yes"/>
      <point x="592" y="752"/>
      <point x="599" y="762"/>
      <point x="599" y="779" type="curve"/>
      <point x="580" y="779"/>
      <point x="567" y="791"/>
      <point x="549" y="813" type="curve" smooth="yes"/>
      <point x="511" y="859" type="line" smooth="yes"/>
      <point x="493" y="880"/>
      <point x="479" y="891"/>
      <point x="468" y="891" type="curve" smooth="yes"/>
      <point x="451" y="891"/>
      <point x="424" y="860"/>
      <point x="391" y="832" type="curve" smooth="yes"/>
      <point x="362" y="808"/>
      <point x="344" y="799"/>
      <point x="337" y="799" type="curve" smooth="yes"/>
      <point x="328" y="799"/>
      <point x="311" y="816"/>
      <point x="283" y="844" type="curve" smooth="yes"/>
      <point x="247" y="880"/>
      <point x="237" y="891"/>
      <point x="219" y="891" type="curve" smooth="yes"/>
      <point x="201" y="891"/>
      <point x="182" y="879"/>
      <point x="146" y="847" type="curve" smooth="yes"/>
      <point x="100" y="807"/>
      <point x="94" y="788"/>
      <point x="94" y="776" type="curve" smooth="yes"/>
      <point x="94" y="764"/>
      <point x="102" y="746"/>
      <point x="154" y="689" type="curve"/>
    </contour>
  </outline>
</glyph>
<glyph name="uni17AA" format="2">
  <advance width="708"/>
  <unicode hex="17AA"/>
  <note>
uni17AA
</note>
  <anchor x="364" y="1057" name="abvm"/>
  <anchor x="362" y="-50" name="blwm"/>
  <outline>
    <contour>
      <point x="130" y="513" type="line"/>
      <point x="156" y="513" type="line"/>
      <point x="156" y="549" type="line" smooth="yes"/>
      <point x="156" y="602"/>
      <point x="230" y="656"/>
      <point x="330" y="656" type="curve" smooth="yes"/>
      <point x="430" y="656"/>
      <point x="504" y="604"/>
      <point x="504" y="549" type="curve" smooth="yes"/>
      <point x="504" y="463" type="line" smooth="yes"/>
      <point x="504" y="437"/>
      <point x="446" y="397"/>
      <point x="330" y="338" type="curve" smooth="yes"/>
      <point x="130" y="235" type="line"/>
      <point x="130" y="100" type="line" smooth="yes"/>
      <point x="130" y="38"/>
      <point x="169" y="0"/>
      <point x="217" y="0" type="curve" smooth="yes"/>
      <point x="260" y="0"/>
      <point x="318" y="40"/>
      <point x="367" y="74" type="curve" smooth="yes"/>
      <point x="400" y="97"/>
      <point x="482" y="154"/>
      <point x="504" y="157" type="curve"/>
      <point x="504" y="21" type="line" smooth="yes"/>
      <point x="504" y="9"/>
      <point x="503" y="-7"/>
      <point x="478" y="-18" type="curve"/>
      <point x="478" y="-41"/>
      <point x="492" y="-49"/>
      <point x="503" y="-49" type="curve" smooth="yes"/>
      <point x="520" y="-49"/>
      <point x="530" y="-30"/>
      <point x="530" y="-4" type="curve" smooth="yes"/>
      <point x="530" y="252" type="line"/>
      <point x="504" y="235" type="line"/>
      <point x="504" y="183" type="line"/>
      <point x="469" y="175"/>
      <point x="399" y="127"/>
      <point x="336" y="83" type="curve" smooth="yes"/>
      <point x="288" y="50"/>
      <point x="260" y="26"/>
      <point x="224" y="26" type="curve" smooth="yes"/>
      <point x="178" y="26"/>
      <point x="156" y="65"/>
      <point x="156" y="100" type="curve" smooth="yes"/>
      <point x="156" y="219" type="line"/>
      <point x="376" y="333" type="line" smooth="yes"/>
      <point x="478" y="386"/>
      <point x="530" y="413"/>
      <point x="530" y="476" type="curve" smooth="yes"/>
      <point x="530" y="556" type="line" smooth="yes"/>
      <point x="530" y="619"/>
      <point x="440" y="682"/>
      <point x="330" y="682" type="curve" smooth="yes"/>
      <point x="220" y="682"/>
      <point x="130" y="620"/>
      <point x="130" y="556" type="curve" smooth="yes"/>
    </contour>
    <contour>
      <point x="156" y="536" type="line"/>
      <point x="130" y="536" type="line"/>
      <point x="130" y="397" type="line" smooth="yes"/>
      <point x="130" y="377"/>
      <point x="144" y="372"/>
      <point x="157" y="372" type="curve" smooth="yes"/>
      <point x="188" y="372"/>
      <point x="227" y="401"/>
      <point x="227" y="452" type="curve" smooth="yes"/>
      <point x="227" y="502"/>
      <point x="189" y="528"/>
      <point x="156" y="528" type="curve"/>
    </contour>
    <contour>
      <point x="156" y="502" type="line"/>
      <point x="176" y="502"/>
      <point x="201" y="487"/>
      <point x="201" y="453" type="curve" smooth="yes"/>
      <point x="201" y="428"/>
      <point x="187" y="400"/>
      <point x="156" y="398" type="curve"/>
    </contour>
    <contour>
      <point x="167" y="688" type="curve"/>
      <point x="189" y="704" type="line"/>
      <point x="157" y="740"/>
      <point x="130" y="762"/>
      <point x="130" y="777" type="curve" smooth="yes"/>
      <point x="130" y="787"/>
      <point x="142" y="803"/>
      <point x="179" y="842" type="curve" smooth="yes"/>
      <point x="208" y="872"/>
      <point x="221" y="882"/>
      <point x="230" y="882" type="curve" smooth="yes"/>
      <point x="244" y="882"/>
      <point x="269" y="855"/>
      <point x="308" y="814" type="curve" smooth="yes"/>
      <point x="350" y="770"/>
      <point x="394" y="749"/>
      <point x="439" y="749" type="curve" smooth="yes"/>
      <point x="489" y="749"/>
      <point x="570" y="775"/>
      <point x="570" y="870" type="curve" smooth="yes"/>
      <point x="570" y="964"/>
      <point x="490" y="989"/>
      <point x="443" y="989" type="curve" smooth="yes"/>
      <point x="422" y="989"/>
      <point x="414" y="976"/>
      <point x="419" y="954" type="curve"/>
      <point x="496" y="970"/>
      <point x="544" y="932"/>
      <point x="544" y="868" type="curve" smooth="yes"/>
      <point x="544" y="817"/>
      <point x="508" y="775"/>
      <point x="441" y="775" type="curve" smooth="yes"/>
      <point x="384" y="775"/>
      <point x="350" y="809"/>
      <point x="319" y="840" type="curve" smooth="yes"/>
      <point x="283" y="876"/>
      <point x="260" y="910"/>
      <point x="231" y="910" type="curve" smooth="yes"/>
      <point x="213" y="910"/>
      <point x="198" y="898"/>
      <point x="158" y="858" type="curve" smooth="yes"/>
      <point x="116" y="816"/>
      <point x="103" y="793"/>
      <point x="103" y="777" type="curve" smooth="yes"/>
      <point x="103" y="759"/>
      <point x="122" y="738"/>
    </contour>
  </outline>
</glyph>
<glyph name="uni17AB" format="2">
  <advance width="702"/>
  <unicode hex="17AB"/>
  <note>
uni17AB
</note>
  <anchor x="331" y="760" name="abvm"/>
  <anchor x="324" y="0" name="blwm"/>
  <outline>
    <contour>
      <point x="512" y="384" type="line"/>
      <point x="486" y="384" type="line"/>
      <point x="486" y="136" type="line" smooth="yes"/>
      <point x="486" y="77"/>
      <point x="415" y="26"/>
      <point x="323" y="26" type="curve" smooth="yes"/>
      <point x="233" y="26"/>
      <point x="160" y="76"/>
      <point x="160" y="136" type="curve" smooth="yes"/>
      <point x="160" y="384" type="line"/>
      <point x="134" y="384" type="line"/>
      <point x="134" y="132" type="line" smooth="yes"/>
      <point x="134" y="54"/>
      <point x="223" y="0"/>
      <point x="323" y="0" type="curve" smooth="yes"/>
      <point x="423" y="0"/>
      <point x="512" y="62"/>
      <point x="512" y="132" type="curve" smooth="yes"/>
    </contour>
    <contour>
      <point x="160" y="370" type="line"/>
      <point x="160" y="445" type="line"/>
      <point x="72" y="536" type="line"/>
      <point x="147" y="641" type="line"/>
      <point x="159" y="631"/>
      <point x="202" y="587"/>
      <point x="232" y="587" type="curve" smooth="yes"/>
      <point x="244" y="587"/>
      <point x="253" y="594"/>
      <point x="249" y="612" type="curve"/>
      <point x="218" y="609"/>
      <point x="189" y="634"/>
      <point x="145" y="682" type="curve"/>
      <point x="63" y="569"/>
      <point x="45" y="544"/>
      <point x="45" y="537" type="curve" smooth="yes"/>
      <point x="45" y="526"/>
      <point x="58" y="513"/>
      <point x="134" y="435" type="curve"/>
      <point x="134" y="370" type="line"/>
    </contour>
    <contour>
      <point x="512" y="370" type="line"/>
      <point x="512" y="445" type="line"/>
      <point x="424" y="536" type="line"/>
      <point x="499" y="641" type="line"/>
      <point x="511" y="631"/>
      <point x="554" y="587"/>
      <point x="584" y="587" type="curve" smooth="yes"/>
      <point x="596" y="587"/>
      <point x="605" y="594"/>
      <point x="601" y="612" type="curve"/>
      <point x="570" y="609"/>
      <point x="541" y="634"/>
      <point x="497" y="682" type="curve"/>
      <point x="415" y="569"/>
      <point x="397" y="544"/>
      <point x="397" y="537" type="curve" smooth="yes"/>
      <point x="397" y="526"/>
      <point x="410" y="513"/>
      <point x="486" y="435" type="curve"/>
      <point x="486" y="370" type="line"/>
    </contour>
    <contour>
      <point x="542" y="-132" type="curve" smooth="yes"/>
      <point x="542" y="-76"/>
      <point x="515" y="-41"/>
      <point x="487" y="-41" type="curve" smooth="yes"/>
      <point x="471" y="-41"/>
      <point x="464" y="-53"/>
      <point x="465" y="-74" type="curve"/>
      <point x="498" y="-74"/>
      <point x="515" y="-97"/>
      <point x="515" y="-135" type="curve" smooth="yes"/>
      <point x="515" y="-220"/>
      <point x="431" y="-243"/>
      <point x="364" y="-243" type="curve" smooth="yes"/>
      <point x="242" y="-243"/>
      <point x="165" y="-148"/>
      <point x="144" y="-121" type="curve"/>
      <point x="118" y="-121" type="line"/>
      <point x="142" y="-153"/>
      <point x="216" y="-269"/>
      <point x="366" y="-269" type="curve" smooth="yes"/>
      <point x="452" y="-269"/>
      <point x="542" y="-233"/>
    </contour>
  </outline>
</glyph>
<glyph name="uni17AC" format="2">
  <advance width="692"/>
  <unicode hex="17AC"/>
  <note>
uni17AC
</note>
  <anchor x="331" y="760" name="abvm"/>
  <anchor x="324" y="0" name="blwm"/>
  <outline>
    <contour>
      <point x="512" y="384" type="line"/>
      <point x="486" y="384" type="line"/>
      <point x="486" y="136" type="line" smooth="yes"/>
      <point x="486" y="77"/>
      <point x="415" y="26"/>
      <point x="323" y="26" type="curve" smooth="yes"/>
      <point x="233" y="26"/>
      <point x="160" y="76"/>
      <point x="160" y="136" type="curve" smooth="yes"/>
      <point x="160" y="384" type="line"/>
      <point x="134" y="384" type="line"/>
      <point x="134" y="132" type="line" smooth="yes"/>
      <point x="134" y="54"/>
      <point x="223" y="0"/>
      <point x="323" y="0" type="curve" smooth="yes"/>
      <point x="423" y="0"/>
      <point x="512" y="62"/>
      <point x="512" y="132" type="curve" smooth="yes"/>
    </contour>
    <contour>
      <point x="160" y="370" type="line"/>
      <point x="160" y="445" type="line"/>
      <point x="72" y="536" type="line"/>
      <point x="147" y="641" type="line"/>
      <point x="159" y="631"/>
      <point x="202" y="587"/>
      <point x="232" y="587" type="curve" smooth="yes"/>
      <point x="244" y="587"/>
      <point x="253" y="594"/>
      <point x="249" y="612" type="curve"/>
      <point x="218" y="609"/>
      <point x="189" y="634"/>
      <point x="145" y="682" type="curve"/>
      <point x="63" y="569"/>
      <point x="45" y="544"/>
      <point x="45" y="537" type="curve" smooth="yes"/>
      <point x="45" y="526"/>
      <point x="58" y="513"/>
      <point x="134" y="435" type="curve"/>
      <point x="134" y="370" type="line"/>
    </contour>
    <contour>
      <point x="512" y="370" type="line"/>
      <point x="512" y="445" type="line"/>
      <point x="424" y="536" type="line"/>
      <point x="499" y="641" type="line"/>
      <point x="511" y="631"/>
      <point x="554" y="587"/>
      <point x="584" y="587" type="curve" smooth="yes"/>
      <point x="596" y="587"/>
      <point x="605" y="594"/>
      <point x="601" y="612" type="curve"/>
      <point x="570" y="609"/>
      <point x="541" y="634"/>
      <point x="497" y="682" type="curve"/>
      <point x="415" y="569"/>
      <point x="397" y="544"/>
      <point x="397" y="537" type="curve" smooth="yes"/>
      <point x="397" y="526"/>
      <point x="410" y="513"/>
      <point x="486" y="435" type="curve"/>
      <point x="486" y="370" type="line"/>
    </contour>
    <contour>
      <point x="484" y="-226" type="line"/>
      <point x="501" y="-246"/>
      <point x="532" y="-269"/>
      <point x="574" y="-269" type="curve" smooth="yes"/>
      <point x="608" y="-269"/>
      <point x="632" y="-254"/>
      <point x="632" y="-234" type="curve"/>
      <point x="579" y="-246"/>
      <point x="537" y="-243"/>
      <point x="507" y="-209" type="curve"/>
    </contour>
    <contour>
      <point x="532" y="-132" type="curve" smooth="yes"/>
      <point x="532" y="-76"/>
      <point x="505" y="-41"/>
      <point x="477" y="-41" type="curve" smooth="yes"/>
      <point x="461" y="-41"/>
      <point x="454" y="-53"/>
      <point x="455" y="-74" type="curve"/>
      <point x="488" y="-74"/>
      <point x="505" y="-97"/>
      <point x="505" y="-135" type="curve" smooth="yes"/>
      <point x="505" y="-220"/>
      <point x="421" y="-243"/>
      <point x="354" y="-243" type="curve" smooth="yes"/>
      <point x="232" y="-243"/>
      <point x="155" y="-148"/>
      <point x="134" y="-121" type="curve"/>
      <point x="108" y="-121" type="line"/>
      <point x="132" y="-153"/>
      <point x="206" y="-269"/>
      <point x="356" y="-269" type="curve" smooth="yes"/>
      <point x="442" y="-269"/>
      <point x="532" y="-233"/>
    </contour>
  </outline>
</glyph>
<glyph name="uni17AE" format="2">
  <advance width="656"/>
  <unicode hex="17AE"/>
  <note>
uni17AE
</note>
  <anchor x="299" y="760" name="abvm"/>
  <anchor x="320" y="0" name="blwm"/>
  <outline>
    <contour>
      <point x="120" y="302" type="line"/>
      <point x="146" y="302" type="line"/>
      <point x="146" y="479" type="line"/>
      <point x="115" y="516"/>
      <point x="93" y="542"/>
      <point x="93" y="552" type="curve" smooth="yes"/>
      <point x="93" y="560"/>
      <point x="103" y="572"/>
      <point x="144" y="610" type="curve" smooth="yes"/>
      <point x="176" y="639"/>
      <point x="197" y="655"/>
      <point x="203" y="655" type="curve" smooth="yes"/>
      <point x="217" y="655"/>
      <point x="268" y="578"/>
      <point x="298" y="578" type="curve" smooth="yes"/>
      <point x="328" y="578"/>
      <point x="371" y="656"/>
      <point x="408" y="656" type="curve" smooth="yes"/>
      <point x="442" y="656"/>
      <point x="492" y="592"/>
      <point x="492" y="531" type="curve" smooth="yes"/>
      <point x="492" y="0" type="line"/>
      <point x="518" y="0" type="line"/>
      <point x="518" y="531" type="line" smooth="yes"/>
      <point x="518" y="604"/>
      <point x="464" y="682"/>
      <point x="409" y="682" type="curve" smooth="yes"/>
      <point x="382" y="682"/>
      <point x="360" y="663"/>
      <point x="348" y="651" type="curve" smooth="yes"/>
      <point x="325" y="629"/>
      <point x="312" y="606"/>
      <point x="299" y="606" type="curve" smooth="yes"/>
      <point x="291" y="606"/>
      <point x="282" y="615"/>
      <point x="256" y="643" type="curve" smooth="yes"/>
      <point x="236" y="665"/>
      <point x="221" y="681"/>
      <point x="204" y="681" type="curve" smooth="yes"/>
      <point x="191" y="681"/>
      <point x="172" y="672"/>
      <point x="123" y="626" type="curve" smooth="yes"/>
      <point x="72" y="578"/>
      <point x="66" y="562"/>
      <point x="66" y="552" type="curve" smooth="yes"/>
      <point x="66" y="532"/>
      <point x="91" y="503"/>
      <point x="120" y="469" type="curve"/>
    </contour>
    <contour>
      <point x="120" y="316" type="line"/>
      <point x="120" y="0" type="line"/>
      <point x="146" y="0" type="line"/>
      <point x="213" y="63"/>
      <point x="237" y="101"/>
      <point x="237" y="149" type="curve" smooth="yes"/>
      <point x="237" y="186"/>
      <point x="221" y="226"/>
      <point x="146" y="227" type="curve"/>
      <point x="146" y="316" type="line"/>
    </contour>
    <contour>
      <point x="146" y="200" type="line"/>
      <point x="186" y="199"/>
      <point x="211" y="185"/>
      <point x="211" y="146" type="curve" smooth="yes"/>
      <point x="211" y="106"/>
      <point x="184" y="72"/>
      <point x="146" y="35" type="curve"/>
    </contour>
    <contour>
      <point x="468" y="-226" type="line"/>
      <point x="485" y="-246"/>
      <point x="516" y="-269"/>
      <point x="558" y="-269" type="curve" smooth="yes"/>
      <point x="592" y="-269"/>
      <point x="616" y="-254"/>
      <point x="616" y="-234" type="curve"/>
      <point x="563" y="-246"/>
      <point x="521" y="-243"/>
      <point x="491" y="-209" type="curve"/>
    </contour>
    <contour>
      <point x="516" y="-132" type="curve" smooth="yes"/>
      <point x="516" y="-76"/>
      <point x="489" y="-41"/>
      <point x="461" y="-41" type="curve" smooth="yes"/>
      <point x="445" y="-41"/>
      <point x="438" y="-53"/>
      <point x="439" y="-74" type="curve"/>
      <point x="472" y="-74"/>
      <point x="489" y="-97"/>
      <point x="489" y="-135" type="curve" smooth="yes"/>
      <point x="489" y="-220"/>
      <point x="405" y="-243"/>
      <point x="338" y="-243" type="curve" smooth="yes"/>
      <point x="216" y="-243"/>
      <point x="139" y="-148"/>
      <point x="118" y="-121" type="curve"/>
      <point x="92" y="-121" type="line"/>
      <point x="116" y="-153"/>
      <point x="190" y="-269"/>
      <point x="340" y="-269" type="curve" smooth="yes"/>
      <point x="426" y="-269"/>
      <point x="516" y="-233"/>
    </contour>
  </outline>
</glyph>
<glyph name="uni17AF" format="2">
  <advance width="676"/>
  <unicode hex="17AF"/>
  <note>
uni17AF
</note>
  <outline>
    <contour>
      <point x="182" y="206" type="line"/>
      <point x="156" y="206" type="line"/>
      <point x="156" y="0" type="line"/>
      <point x="189" y="0" type="line"/>
      <point x="356" y="155" type="line"/>
      <point x="523" y="0" type="line"/>
      <point x="554" y="0" type="line"/>
      <point x="554" y="519" type="line" smooth="yes"/>
      <point x="554" y="539"/>
      <point x="540" y="549"/>
      <point x="510" y="571" type="curve" smooth="yes"/>
      <point x="400" y="653" type="line" smooth="yes"/>
      <point x="367" y="677"/>
      <point x="353" y="682"/>
      <point x="336" y="682" type="curve" smooth="yes"/>
      <point x="298" y="682"/>
      <point x="272" y="655"/>
      <point x="184" y="562" type="curve"/>
      <point x="187" y="665"/>
      <point x="217" y="681"/>
      <point x="217" y="737" type="curve" smooth="yes"/>
      <point x="217" y="790"/>
      <point x="189" y="825"/>
      <point x="167" y="825" type="curve" smooth="yes"/>
      <point x="154" y="825"/>
      <point x="140" y="813"/>
      <point x="144" y="793" type="curve"/>
      <point x="174" y="793"/>
      <point x="191" y="771"/>
      <point x="191" y="735" type="curve" smooth="yes"/>
      <point x="191" y="684"/>
      <point x="156" y="640"/>
      <point x="156" y="579" type="curve" smooth="yes"/>
      <point x="156" y="544"/>
      <point x="170" y="536"/>
      <point x="181" y="536" type="curve" smooth="yes"/>
      <point x="225" y="536"/>
      <point x="282" y="656"/>
      <point x="333" y="656" type="curve" smooth="yes"/>
      <point x="365" y="656"/>
      <point x="419" y="606"/>
      <point x="528" y="525" type="curve"/>
      <point x="528" y="30" type="line"/>
      <point x="356" y="189" type="line"/>
      <point x="182" y="29" type="line"/>
    </contour>
    <contour>
      <point x="182" y="196" type="line"/>
      <point x="182" y="386" type="line" smooth="yes"/>
      <point x="182" y="411"/>
      <point x="173" y="418"/>
      <point x="156" y="418" type="curve" smooth="yes"/>
      <point x="108" y="418"/>
      <point x="65" y="364"/>
      <point x="65" y="303" type="curve" smooth="yes"/>
      <point x="65" y="246"/>
      <point x="104" y="207"/>
      <point x="156" y="204" type="curve"/>
      <point x="156" y="196" type="line"/>
    </contour>
    <contour>
      <point x="156" y="230" type="line"/>
      <point x="137" y="230"/>
      <point x="91" y="244"/>
      <point x="91" y="302" type="curve" smooth="yes"/>
      <point x="91" y="353"/>
      <point x="127" y="391"/>
      <point x="156" y="391" type="curve"/>
    </contour>
  </outline>
</glyph>
<glyph name="uni17B0" format="2">
  <advance width="648"/>
  <unicode hex="17B0"/>
  <note>
uni17B0
</note>
  <anchor x="299" y="760" name="abvm"/>
  <anchor x="356" y="-266" name="blwm"/>
  <outline>
    <contour>
      <point x="492" y="17" type="line"/>
      <point x="492" y="-42" type="line"/>
      <point x="518" y="-82" type="line"/>
      <point x="518" y="17" type="line"/>
    </contour>
    <contour>
      <point x="120" y="302" type="line"/>
      <point x="146" y="302" type="line"/>
      <point x="146" y="479" type="line"/>
      <point x="115" y="516"/>
      <point x="93" y="542"/>
      <point x="93" y="552" type="curve" smooth="yes"/>
      <point x="93" y="560"/>
      <point x="103" y="572"/>
      <point x="144" y="610" type="curve" smooth="yes"/>
      <point x="176" y="639"/>
      <point x="197" y="655"/>
      <point x="203" y="655" type="curve" smooth="yes"/>
      <point x="217" y="655"/>
      <point x="268" y="578"/>
      <point x="298" y="578" type="curve" smooth="yes"/>
      <point x="328" y="578"/>
      <point x="371" y="656"/>
      <point x="408" y="656" type="curve" smooth="yes"/>
      <point x="442" y="656"/>
      <point x="492" y="592"/>
      <point x="492" y="531" type="curve" smooth="yes"/>
      <point x="492" y="0" type="line"/>
      <point x="518" y="0" type="line"/>
      <point x="518" y="531" type="line" smooth="yes"/>
      <point x="518" y="604"/>
      <point x="464" y="682"/>
      <point x="409" y="682" type="curve" smooth="yes"/>
      <point x="382" y="682"/>
      <point x="360" y="663"/>
      <point x="348" y="651" type="curve" smooth="yes"/>
      <point x="325" y="629"/>
      <point x="312" y="606"/>
      <point x="299" y="606" type="curve" smooth="yes"/>
      <point x="291" y="606"/>
      <point x="282" y="615"/>
      <point x="256" y="643" type="curve" smooth="yes"/>
      <point x="236" y="665"/>
      <point x="221" y="681"/>
      <point x="204" y="681" type="curve" smooth="yes"/>
      <point x="191" y="681"/>
      <point x="172" y="672"/>
      <point x="123" y="626" type="curve" smooth="yes"/>
      <point x="72" y="578"/>
      <point x="66" y="562"/>
      <point x="66" y="552" type="curve" smooth="yes"/>
      <point x="66" y="532"/>
      <point x="91" y="503"/>
      <point x="120" y="469" type="curve"/>
    </contour>
    <contour>
      <point x="120" y="316" type="line"/>
      <point x="120" y="0" type="line"/>
      <point x="146" y="0" type="line"/>
      <point x="213" y="63"/>
      <point x="237" y="101"/>
      <point x="237" y="149" type="curve" smooth="yes"/>
      <point x="237" y="186"/>
      <point x="221" y="226"/>
      <point x="146" y="227" type="curve"/>
      <point x="146" y="316" type="line"/>
    </contour>
    <contour>
      <point x="146" y="200" type="line"/>
      <point x="186" y="199"/>
      <point x="211" y="185"/>
      <point x="211" y="146" type="curve" smooth="yes"/>
      <point x="211" y="106"/>
      <point x="184" y="72"/>
      <point x="146" y="35" type="curve"/>
    </contour>
    <contour>
      <point x="145" y="-183" type="curve" smooth="yes"/>
      <point x="145" y="-224"/>
      <point x="178" y="-261"/>
      <point x="238" y="-261" type="curve" smooth="yes"/>
      <point x="300" y="-261"/>
      <point x="356" y="-221"/>
      <point x="356" y="-129" type="curve"/>
      <point x="329" y="-137" type="line"/>
      <point x="329" y="-194"/>
      <point x="297" y="-235"/>
      <point x="241" y="-235" type="curve" smooth="yes"/>
      <point x="182" y="-235"/>
      <point x="166" y="-189"/>
      <point x="176" y="-168" type="curve"/>
      <point x="236" y="-163"/>
      <point x="297" y="-158"/>
      <point x="346" y="-135" type="curve" smooth="yes"/>
      <point x="404" y="-108"/>
      <point x="439" y="-59"/>
      <point x="439" y="-7" type="curve" smooth="yes"/>
      <point x="439" y="2"/>
      <point x="435" y="9"/>
      <point x="420" y="9" type="curve" smooth="yes"/>
      <point x="409" y="9"/>
      <point x="397" y="3"/>
      <point x="395" y="-4" type="curve"/>
      <point x="402" y="-12"/>
      <point x="404" y="-20"/>
      <point x="404" y="-29" type="curve" smooth="yes"/>
      <point x="404" y="-100"/>
      <point x="284" y="-140"/>
      <point x="175" y="-140" type="curve" smooth="yes"/>
      <point x="155" y="-140"/>
      <point x="145" y="-160"/>
    </contour>
    <contour>
      <point x="328" y="-132" type="line"/>
      <point x="328" y="-157"/>
      <point x="376" y="-184"/>
      <point x="419" y="-184" type="curve" smooth="yes"/>
      <point x="475" y="-184"/>
      <point x="518" y="-139"/>
      <point x="518" y="-78" type="curve" smooth="yes"/>
      <point x="518" y="-19"/>
      <point x="478" y="7"/>
      <point x="456" y="7" type="curve" smooth="yes"/>
      <point x="450" y="7"/>
      <point x="439" y="5"/>
      <point x="434" y="-16" type="curve"/>
      <point x="458" y="-16"/>
      <point x="492" y="-29"/>
      <point x="492" y="-80" type="curve" smooth="yes"/>
      <point x="492" y="-127"/>
      <point x="464" y="-158"/>
      <point x="420" y="-158" type="curve" smooth="yes"/>
      <point x="389" y="-158"/>
      <point x="356" y="-142"/>
      <point x="356" y="-127" type="curve"/>
    </contour>
  </outline>
</glyph>
<glyph name="uni17B1" format="2">
  <advance width="656"/>
  <unicode hex="17B1"/>
  <note>
uni17B1
</note>
  <anchor x="319" y="967" name="abvm"/>
  <anchor x="333" y="-50" name="blwm"/>
  <outline>
    <contour>
      <point x="101" y="513" type="line"/>
      <point x="127" y="513" type="line"/>
      <point x="127" y="549" type="line" smooth="yes"/>
      <point x="127" y="602"/>
      <point x="201" y="656"/>
      <point x="301" y="656" type="curve" smooth="yes"/>
      <point x="401" y="656"/>
      <point x="475" y="604"/>
      <point x="475" y="549" type="curve" smooth="yes"/>
      <point x="475" y="463" type="line" smooth="yes"/>
      <point x="475" y="437"/>
      <point x="417" y="397"/>
      <point x="301" y="338" type="curve" smooth="yes"/>
      <point x="101" y="235" type="line"/>
      <point x="101" y="100" type="line" smooth="yes"/>
      <point x="101" y="38"/>
      <point x="140" y="0"/>
      <point x="188" y="0" type="curve" smooth="yes"/>
      <point x="231" y="0"/>
      <point x="289" y="40"/>
      <point x="338" y="74" type="curve" smooth="yes"/>
      <point x="371" y="97"/>
      <point x="453" y="154"/>
      <point x="475" y="157" type="curve"/>
      <point x="475" y="21" type="line" smooth="yes"/>
      <point x="475" y="9"/>
      <point x="474" y="-7"/>
      <point x="449" y="-18" type="curve"/>
      <point x="449" y="-41"/>
      <point x="463" y="-49"/>
      <point x="474" y="-49" type="curve" smooth="yes"/>
      <point x="491" y="-49"/>
      <point x="501" y="-30"/>
      <point x="501" y="-4" type="curve" smooth="yes"/>
      <point x="501" y="252" type="line"/>
      <point x="475" y="235" type="line"/>
      <point x="475" y="183" type="line"/>
      <point x="440" y="175"/>
      <point x="370" y="127"/>
      <point x="307" y="83" type="curve" smooth="yes"/>
      <point x="259" y="50"/>
      <point x="231" y="26"/>
      <point x="195" y="26" type="curve" smooth="yes"/>
      <point x="149" y="26"/>
      <point x="127" y="65"/>
      <point x="127" y="100" type="curve" smooth="yes"/>
      <point x="127" y="219" type="line"/>
      <point x="347" y="333" type="line" smooth="yes"/>
      <point x="449" y="386"/>
      <point x="501" y="413"/>
      <point x="501" y="476" type="curve" smooth="yes"/>
      <point x="501" y="556" type="line" smooth="yes"/>
      <point x="501" y="619"/>
      <point x="411" y="682"/>
      <point x="301" y="682" type="curve" smooth="yes"/>
      <point x="191" y="682"/>
      <point x="101" y="620"/>
      <point x="101" y="556" type="curve" smooth="yes"/>
    </contour>
    <contour>
      <point x="127" y="536" type="line"/>
      <point x="101" y="536" type="line"/>
      <point x="101" y="397" type="line" smooth="yes"/>
      <point x="101" y="377"/>
      <point x="115" y="372"/>
      <point x="128" y="372" type="curve" smooth="yes"/>
      <point x="159" y="372"/>
      <point x="198" y="401"/>
      <point x="198" y="452" type="curve" smooth="yes"/>
      <point x="198" y="502"/>
      <point x="160" y="528"/>
      <point x="127" y="528" type="curve"/>
    </contour>
    <contour>
      <point x="127" y="502" type="line"/>
      <point x="147" y="502"/>
      <point x="172" y="487"/>
      <point x="172" y="453" type="curve" smooth="yes"/>
      <point x="172" y="428"/>
      <point x="158" y="400"/>
      <point x="127" y="398" type="curve"/>
    </contour>
    <contour>
      <point x="149" y="728" type="line"/>
      <point x="121" y="743"/>
      <point x="96" y="768"/>
      <point x="96" y="801" type="curve" smooth="yes"/>
      <point x="96" y="867"/>
      <point x="197" y="922"/>
      <point x="307" y="922" type="curve" smooth="yes"/>
      <point x="436" y="922"/>
      <point x="532" y="847"/>
      <point x="532" y="759" type="curve"/>
      <point x="551" y="759"/>
      <point x="559" y="765"/>
      <point x="559" y="783" type="curve" smooth="yes"/>
      <point x="559" y="843"/>
      <point x="468" y="948"/>
      <point x="306" y="948" type="curve" smooth="yes"/>
      <point x="181" y="948"/>
      <point x="70" y="888"/>
      <point x="70" y="801" type="curve" smooth="yes"/>
      <point x="70" y="761"/>
      <point x="94" y="730"/>
      <point x="127" y="713" type="curve"/>
    </contour>
  </outline>
</glyph>
<glyph name="uni17B2" format="2">
  <advance width="648"/>
  <unicode hex="17B2"/>
  <note>
uni17B2
</note>
  <outline>
    <contour>
      <point x="322" y="208" type="line"/>
      <point x="425" y="273"/>
      <point x="518" y="361"/>
      <point x="518" y="445" type="curve" smooth="yes"/>
      <point x="518" y="501"/>
      <point x="477" y="555"/>
      <point x="387" y="555" type="curve" smooth="yes"/>
      <point x="320" y="555"/>
      <point x="252" y="525"/>
      <point x="252" y="450" type="curve" smooth="yes"/>
      <point x="252" y="379"/>
      <point x="312" y="364"/>
      <point x="347" y="364" type="curve" smooth="yes"/>
      <point x="370" y="364"/>
      <point x="382" y="370"/>
      <point x="382" y="398" type="curve"/>
      <point x="330" y="380"/>
      <point x="278" y="397"/>
      <point x="278" y="454" type="curve" smooth="yes"/>
      <point x="278" y="511"/>
      <point x="332" y="529"/>
      <point x="384" y="529" type="curve" smooth="yes"/>
      <point x="466" y="529"/>
      <point x="492" y="485"/>
      <point x="492" y="442" type="curve" smooth="yes"/>
      <point x="492" y="365"/>
      <point x="407" y="288"/>
      <point x="301" y="224" type="curve"/>
    </contour>
    <contour>
      <point x="457" y="324" type="curve"/>
      <point x="437" y="305" type="line"/>
      <point x="459" y="298"/>
      <point x="490" y="282"/>
      <point x="490" y="197" type="curve" smooth="yes"/>
      <point x="490" y="147" type="line" smooth="yes"/>
      <point x="490" y="83"/>
      <point x="414" y="26"/>
      <point x="314" y="26" type="curve" smooth="yes"/>
      <point x="218" y="26"/>
      <point x="146" y="78"/>
      <point x="146" y="136" type="curve" smooth="yes"/>
      <point x="146" y="607" type="line" smooth="yes"/>
      <point x="146" y="649"/>
      <point x="215" y="699"/>
      <point x="323" y="699" type="curve" smooth="yes"/>
      <point x="397" y="699"/>
      <point x="445" y="678"/>
      <point x="493" y="628" type="curve"/>
      <point x="518" y="635" type="line"/>
      <point x="476" y="700"/>
      <point x="400" y="725"/>
      <point x="322" y="725" type="curve" smooth="yes"/>
      <point x="201" y="725"/>
      <point x="120" y="667"/>
      <point x="120" y="603" type="curve" smooth="yes"/>
      <point x="120" y="130" type="line" smooth="yes"/>
      <point x="120" y="61"/>
      <point x="207" y="0"/>
      <point x="313" y="0" type="curve" smooth="yes"/>
      <point x="425" y="0"/>
      <point x="516" y="66"/>
      <point x="516" y="137" type="curve" smooth="yes"/>
      <point x="516" y="208" type="line" smooth="yes"/>
      <point x="516" y="278"/>
      <point x="497" y="306"/>
    </contour>
  </outline>
</glyph>
<glyph name="uni17B3" format="2">
  <advance width="708"/>
  <unicode hex="17B3"/>
  <note>
uni17B3
</note>
  <anchor x="334" y="1064" name="abvm"/>
  <anchor x="362" y="-50" name="blwm"/>
  <outline>
    <contour>
      <point x="130" y="513" type="line"/>
      <point x="156" y="513" type="line"/>
      <point x="156" y="549" type="line" smooth="yes"/>
      <point x="156" y="602"/>
      <point x="230" y="656"/>
      <point x="330" y="656" type="curve" smooth="yes"/>
      <point x="430" y="656"/>
      <point x="504" y="604"/>
      <point x="504" y="549" type="curve" smooth="yes"/>
      <point x="504" y="463" type="line" smooth="yes"/>
      <point x="504" y="437"/>
      <point x="446" y="397"/>
      <point x="330" y="338" type="curve" smooth="yes"/>
      <point x="130" y="235" type="line"/>
      <point x="130" y="100" type="line" smooth="yes"/>
      <point x="130" y="38"/>
      <point x="169" y="0"/>
      <point x="217" y="0" type="curve" smooth="yes"/>
      <point x="260" y="0"/>
      <point x="318" y="40"/>
      <point x="367" y="74" type="curve" smooth="yes"/>
      <point x="400" y="97"/>
      <point x="482" y="154"/>
      <point x="504" y="157" type="curve"/>
      <point x="504" y="21" type="line" smooth="yes"/>
      <point x="504" y="9"/>
      <point x="503" y="-7"/>
      <point x="478" y="-18" type="curve"/>
      <point x="478" y="-41"/>
      <point x="492" y="-49"/>
      <point x="503" y="-49" type="curve" smooth="yes"/>
      <point x="520" y="-49"/>
      <point x="530" y="-30"/>
      <point x="530" y="-4" type="curve" smooth="yes"/>
      <point x="530" y="252" type="line"/>
      <point x="504" y="235" type="line"/>
      <point x="504" y="183" type="line"/>
      <point x="469" y="175"/>
      <point x="399" y="127"/>
      <point x="336" y="83" type="curve" smooth="yes"/>
      <point x="288" y="50"/>
      <point x="260" y="26"/>
      <point x="224" y="26" type="curve" smooth="yes"/>
      <point x="178" y="26"/>
      <point x="156" y="65"/>
      <point x="156" y="100" type="curve" smooth="yes"/>
      <point x="156" y="219" type="line"/>
      <point x="376" y="333" type="line" smooth="yes"/>
      <point x="478" y="386"/>
      <point x="530" y="413"/>
      <point x="530" y="476" type="curve" smooth="yes"/>
      <point x="530" y="556" type="line" smooth="yes"/>
      <point x="530" y="619"/>
      <point x="440" y="682"/>
      <point x="330" y="682" type="curve" smooth="yes"/>
      <point x="220" y="682"/>
      <point x="130" y="620"/>
      <point x="130" y="556" type="curve" smooth="yes"/>
    </contour>
    <contour>
      <point x="156" y="536" type="line"/>
      <point x="130" y="536" type="line"/>
      <point x="130" y="397" type="line" smooth="yes"/>
      <point x="130" y="377"/>
      <point x="144" y="372"/>
      <point x="157" y="372" type="curve" smooth="yes"/>
      <point x="188" y="372"/>
      <point x="227" y="401"/>
      <point x="227" y="452" type="curve" smooth="yes"/>
      <point x="227" y="502"/>
      <point x="189" y="528"/>
      <point x="156" y="528" type="curve"/>
    </contour>
    <contour>
      <point x="156" y="502" type="line"/>
      <point x="176" y="502"/>
      <point x="201" y="487"/>
      <point x="201" y="453" type="curve" smooth="yes"/>
      <point x="201" y="428"/>
      <point x="187" y="400"/>
      <point x="156" y="398" type="curve"/>
    </contour>
    <contour>
      <point x="570" y="831" type="curve" smooth="yes"/>
      <point x="570" y="932"/>
      <point x="520" y="1058"/>
      <point x="478" y="1058" type="curve" smooth="yes"/>
      <point x="469" y="1058"/>
      <point x="452" y="1052"/>
      <point x="452" y="1030" type="curve"/>
      <point x="498" y="1020"/>
      <point x="535" y="918"/>
      <point x="544" y="835" type="curve"/>
      <point x="510" y="890"/>
      <point x="429" y="948"/>
      <point x="308" y="948" type="curve" smooth="yes"/>
      <point x="183" y="948"/>
      <point x="72" y="888"/>
      <point x="72" y="801" type="curve" smooth="yes"/>
      <point x="72" y="761"/>
      <point x="96" y="730"/>
      <point x="129" y="713" type="curve"/>
      <point x="151" y="728" type="line"/>
      <point x="123" y="743"/>
      <point x="98" y="768"/>
      <point x="98" y="801" type="curve" smooth="yes"/>
      <point x="98" y="867"/>
      <point x="199" y="922"/>
      <point x="309" y="922" type="curve" smooth="yes"/>
      <point x="438" y="922"/>
      <point x="534" y="847"/>
      <point x="534" y="759" type="curve"/>
      <point x="564" y="759"/>
      <point x="570" y="782"/>
    </contour>
  </outline>
</glyph>
<glyph name="uni17B5" format="2">
  <advance width="310"/>
  <unicode hex="17B5"/>
  <anchor x="8" y="740" name="abvm_a"/>
  <anchor x="8" y="740" name="abvm_high"/>
  <anchor x="-38" y="0" name="blwm_a"/>
  <outline>
    <contour>
      <point x="-110" y="605" type="curve"/>
      <point x="-67" y="633"/>
      <point x="-29" y="656"/>
      <point x="-10" y="656" type="curve" smooth="yes"/>
      <point x="5" y="656"/>
      <point x="22" y="641"/>
      <point x="52" y="615" type="curve" smooth="yes"/>
      <point x="154" y="529" type="line"/>
      <point x="154" y="0" type="line"/>
      <point x="180" y="0" type="line"/>
      <point x="180" y="527" type="line" smooth="yes"/>
      <point x="180" y="541"/>
      <point x="168" y="551"/>
      <point x="144" y="571" type="curve" smooth="yes"/>
      <point x="51" y="650" type="line" smooth="yes"/>
      <point x="23" y="674"/>
      <point x="5" y="682"/>
      <point x="-8" y="682" type="curve" smooth="yes"/>
      <point x="-37" y="682"/>
      <point x="-70" y="663"/>
      <point x="-88" y="652" type="curve" smooth="yes"/>
      <point x="-109" y="639"/>
      <point x="-122" y="631"/>
      <point x="-122" y="621" type="curve" smooth="yes"/>
      <point x="-122" y="616"/>
      <point x="-120" y="611"/>
    </contour>
  </outline>
</glyph>
<glyph name="uni17B7" format="2">
  <unicode hex="17B7"/>
  <note>
uni17B7
</note>
  <anchor x="-353" y="854" name="_abvm"/>
  <anchor x="-353" y="1081" name="abvm"/>
  <outline>
    <contour>
      <point x="-551" y="880" type="curve" smooth="yes"/>
      <point x="-551" y="860"/>
      <point x="-541" y="854"/>
      <point x="-523" y="854" type="curve" smooth="yes"/>
      <point x="-168" y="854" type="line" smooth="yes"/>
      <point x="-152" y="854"/>
      <point x="-144" y="860"/>
      <point x="-144" y="870" type="curve" smooth="yes"/>
      <point x="-144" y="880"/>
      <point x="-169" y="909"/>
      <point x="-212" y="944" type="curve" smooth="yes"/>
      <point x="-262" y="984"/>
      <point x="-331" y="1031"/>
      <point x="-408" y="1031" type="curve" smooth="yes"/>
      <point x="-481" y="1031"/>
      <point x="-551" y="988"/>
    </contour>
    <contour>
      <point x="-524" y="880" type="line"/>
      <point x="-524" y="932"/>
      <point x="-500" y="1005"/>
      <point x="-410" y="1005" type="curve" smooth="yes"/>
      <point x="-316" y="1005"/>
      <point x="-224" y="924"/>
      <point x="-182" y="880" type="curve"/>
    </contour>
  </outline>
</glyph>
<glyph name="uni17B9" format="2">
  <unicode hex="17B9"/>
  <note>
uni17B9
</note>
  <anchor x="-353" y="854" name="_abvm"/>
  <anchor x="-353" y="1111" name="abvm"/>
  <outline>
    <contour>
      <point x="-303" y="978" type="curve"/>
      <point x="-159" y="887" type="line"/>
      <point x="-144" y="909"/>
      <point x="-127" y="943"/>
      <point x="-127" y="973" type="curve" smooth="yes"/>
      <point x="-127" y="1010"/>
      <point x="-154" y="1049"/>
      <point x="-201" y="1049" type="curve" smooth="yes"/>
      <point x="-245" y="1049"/>
      <point x="-285" y="1016"/>
    </contour>
    <contour>
      <point x="-275" y="975" type="line"/>
      <point x="-261" y="1002"/>
      <point x="-230" y="1023"/>
      <point x="-202" y="1023" type="curve" smooth="yes"/>
      <point x="-173" y="1023"/>
      <point x="-153" y="1001"/>
      <point x="-153" y="973" type="curve" smooth="yes"/>
      <point x="-153" y="951"/>
      <point x="-165" y="929"/>
      <point x="-175" y="911" type="curve"/>
    </contour>
    <contour>
      <point x="-551" y="880" type="curve" smooth="yes"/>
      <point x="-551" y="860"/>
      <point x="-541" y="854"/>
      <point x="-523" y="854" type="curve" smooth="yes"/>
      <point x="-168" y="854" type="line" smooth="yes"/>
      <point x="-152" y="854"/>
      <point x="-144" y="860"/>
      <point x="-144" y="870" type="curve" smooth="yes"/>
      <point x="-144" y="880"/>
      <point x="-169" y="909"/>
      <point x="-212" y="944" type="curve" smooth="yes"/>
      <point x="-262" y="984"/>
      <point x="-331" y="1031"/>
      <point x="-408" y="1031" type="curve" smooth="yes"/>
      <point x="-481" y="1031"/>
      <point x="-551" y="988"/>
    </contour>
    <contour>
      <point x="-524" y="880" type="line"/>
      <point x="-524" y="932"/>
      <point x="-500" y="1005"/>
      <point x="-410" y="1005" type="curve" smooth="yes"/>
      <point x="-316" y="1005"/>
      <point x="-224" y="924"/>
      <point x="-182" y="880" type="curve"/>
    </contour>
  </outline>
</glyph>
<glyph name="uni17BB" format="2">
  <unicode hex="17BB"/>
  <note>
uni17BB
</note>
  <anchor x="-197" y="16" name="_blwm"/>
  <outline>
    <contour>
      <point x="-193" y="-49" type="curve" smooth="yes"/>
      <point x="-211" y="-49"/>
      <point x="-221" y="-63"/>
      <point x="-221" y="-78" type="curve" smooth="yes"/>
      <point x="-221" y="-95"/>
      <point x="-207" y="-104"/>
      <point x="-194" y="-104" type="curve"/>
      <point x="-194" y="-267" type="line"/>
      <point x="-168" y="-267" type="line"/>
      <point x="-168" y="-78" type="line" smooth="yes"/>
      <point x="-168" y="-60"/>
      <point x="-178" y="-49"/>
    </contour>
  </outline>
</glyph>
<glyph name="uni17BC" format="2">
  <unicode hex="17BC"/>
  <note>
uni17BC
</note>
  <anchor x="-197" y="16" name="_blwm"/>
  <outline>
    <contour>
      <point x="-233" y="-277" type="curve" smooth="yes"/>
      <point x="-101" y="-277"/>
      <point x="-74" y="-125"/>
      <point x="-74" y="-76" type="curve" smooth="yes"/>
      <point x="-74" y="-58"/>
      <point x="-77" y="-53"/>
      <point x="-83" y="-53" type="curve" smooth="yes"/>
      <point x="-104" y="-53"/>
      <point x="-89" y="-105"/>
      <point x="-124" y="-175" type="curve" smooth="yes"/>
      <point x="-137" y="-201"/>
      <point x="-168" y="-251"/>
      <point x="-236" y="-251" type="curve" smooth="yes"/>
      <point x="-300" y="-251"/>
      <point x="-318" y="-207"/>
      <point x="-295" y="-164" type="curve" smooth="yes"/>
      <point x="-276" y="-129"/>
      <point x="-264" y="-103"/>
      <point x="-264" y="-80" type="curve" smooth="yes"/>
      <point x="-264" y="-56"/>
      <point x="-277" y="-49"/>
      <point x="-291" y="-49" type="curve" smooth="yes"/>
      <point x="-314" y="-49"/>
      <point x="-323" y="-67"/>
      <point x="-322" y="-81" type="curve" smooth="yes"/>
      <point x="-321" y="-96"/>
      <point x="-308" y="-104"/>
      <point x="-294" y="-104" type="curve"/>
      <point x="-318" y="-152" type="line" smooth="yes"/>
      <point x="-327" y="-170"/>
      <point x="-332" y="-187"/>
      <point x="-332" y="-201" type="curve" smooth="yes"/>
      <point x="-332" y="-247"/>
      <point x="-291" y="-277"/>
    </contour>
  </outline>
</glyph>
<glyph name="uni17BD" format="2">
  <unicode hex="17BD"/>
  <note>
uni17BD
</note>
  <anchor x="-197" y="16" name="_blwm"/>
  <outline>
    <contour>
      <point x="-349" y="-220" type="curve" smooth="yes"/>
      <point x="-349" y="-254"/>
      <point x="-326" y="-273"/>
      <point x="-298" y="-273" type="curve" smooth="yes"/>
      <point x="-267" y="-273"/>
      <point x="-234" y="-249"/>
      <point x="-212" y="-224" type="curve"/>
      <point x="-198" y="-254"/>
      <point x="-171" y="-273"/>
      <point x="-144" y="-273" type="curve" smooth="yes"/>
      <point x="-80" y="-273"/>
      <point x="-63" y="-166"/>
      <point x="-63" y="-70" type="curve" smooth="yes"/>
      <point x="-63" y="-49"/>
      <point x="-82" y="-49"/>
      <point x="-96" y="-49" type="curve"/>
      <point x="-87" y="-78"/>
      <point x="-86" y="-119"/>
      <point x="-95" y="-170" type="curve" smooth="yes"/>
      <point x="-101" y="-204"/>
      <point x="-113" y="-247"/>
      <point x="-143" y="-247" type="curve" smooth="yes"/>
      <point x="-173" y="-247"/>
      <point x="-197" y="-204"/>
      <point x="-205" y="-183" type="curve"/>
      <point x="-234" y="-214"/>
      <point x="-274" y="-247"/>
      <point x="-300" y="-247" type="curve" smooth="yes"/>
      <point x="-331" y="-247"/>
      <point x="-325" y="-203"/>
      <point x="-303" y="-159" type="curve" smooth="yes"/>
      <point x="-282" y="-117"/>
      <point x="-275" y="-100"/>
      <point x="-275" y="-82" type="curve" smooth="yes"/>
      <point x="-275" y="-60"/>
      <point x="-283" y="-49"/>
      <point x="-300" y="-49" type="curve" smooth="yes"/>
      <point x="-317" y="-49"/>
      <point x="-329" y="-61"/>
      <point x="-329" y="-78" type="curve" smooth="yes"/>
      <point x="-329" y="-93"/>
      <point x="-318" y="-104"/>
      <point x="-304" y="-104" type="curve"/>
      <point x="-321" y="-137" type="line" smooth="yes"/>
      <point x="-339" y="-171"/>
      <point x="-349" y="-197"/>
    </contour>
  </outline>
</glyph>
<glyph name="uni17BE" format="2">
  <unicode hex="17BE"/>
  <note>
uni17BE
</note>
  <anchor x="538" y="752" name="_abvm"/>
  <anchor x="575" y="645" name="abvm"/>
  <anchor x="575" y="45" name="blwm"/>
  <outline>
    <contour>
      <point x="747" y="768" type="line"/>
      <point x="747" y="984" type="line"/>
      <point x="721" y="984" type="line"/>
      <point x="721" y="768" type="line"/>
    </contour>
    <contour>
      <point x="340" y="778" type="curve" smooth="yes"/>
      <point x="340" y="758"/>
      <point x="350" y="752"/>
      <point x="368" y="752" type="curve" smooth="yes"/>
      <point x="723" y="752" type="line" smooth="yes"/>
      <point x="739" y="752"/>
      <point x="747" y="758"/>
      <point x="747" y="768" type="curve" smooth="yes"/>
      <point x="747" y="778"/>
      <point x="722" y="807"/>
      <point x="679" y="842" type="curve" smooth="yes"/>
      <point x="629" y="882"/>
      <point x="560" y="929"/>
      <point x="483" y="929" type="curve" smooth="yes"/>
      <point x="410" y="929"/>
      <point x="340" y="886"/>
    </contour>
    <contour>
      <point x="367" y="778" type="line"/>
      <point x="367" y="830"/>
      <point x="391" y="903"/>
      <point x="481" y="903" type="curve" smooth="yes"/>
      <point x="575" y="903"/>
      <point x="667" y="822"/>
      <point x="709" y="778" type="curve"/>
    </contour>
    <contour>
      <point x="124" y="264" type="line"/>
      <point x="150" y="264" type="line"/>
      <point x="150" y="396" type="line"/>
      <point x="124" y="396" type="line"/>
    </contour>
    <contour>
      <point x="150" y="370" type="line"/>
      <point x="150" y="445" type="line"/>
      <point x="62" y="536" type="line"/>
      <point x="137" y="641" type="line"/>
      <point x="149" y="631"/>
      <point x="192" y="587"/>
      <point x="222" y="587" type="curve" smooth="yes"/>
      <point x="234" y="587"/>
      <point x="243" y="594"/>
      <point x="239" y="612" type="curve"/>
      <point x="208" y="609"/>
      <point x="179" y="634"/>
      <point x="135" y="682" type="curve"/>
      <point x="53" y="569"/>
      <point x="35" y="544"/>
      <point x="35" y="537" type="curve" smooth="yes"/>
      <point x="35" y="526"/>
      <point x="48" y="513"/>
      <point x="124" y="435" type="curve"/>
      <point x="124" y="370" type="line"/>
    </contour>
    <contour>
      <point x="124" y="316" type="line"/>
      <point x="124" y="0" type="line"/>
      <point x="150" y="0" type="line"/>
      <point x="217" y="63"/>
      <point x="241" y="101"/>
      <point x="241" y="149" type="curve" smooth="yes"/>
      <point x="241" y="186"/>
      <point x="225" y="226"/>
      <point x="150" y="227" type="curve"/>
      <point x="150" y="316" type="line"/>
    </contour>
    <contour>
      <point x="150" y="200" type="line"/>
      <point x="190" y="199"/>
      <point x="215" y="185"/>
      <point x="215" y="146" type="curve" smooth="yes"/>
      <point x="215" y="106"/>
      <point x="188" y="72"/>
      <point x="150" y="35" type="curve"/>
    </contour>
    <contour>
      <point x="379" y="320" type="curve" smooth="yes"/>
      <point x="388" y="320"/>
      <point x="395" y="327"/>
      <point x="395" y="336" type="curve" smooth="yes"/>
      <point x="395" y="345"/>
      <point x="388" y="352"/>
      <point x="379" y="352" type="curve" smooth="yes"/>
      <point x="370" y="352"/>
      <point x="363" y="345"/>
      <point x="363" y="336" type="curve" smooth="yes"/>
      <point x="363" y="327"/>
      <point x="370" y="320"/>
    </contour>
    <contour>
      <point x="405" y="421" type="curve" smooth="yes"/>
      <point x="414" y="421"/>
      <point x="421" y="428"/>
      <point x="421" y="437" type="curve" smooth="yes"/>
      <point x="421" y="446"/>
      <point x="414" y="453"/>
      <point x="405" y="453" type="curve" smooth="yes"/>
      <point x="396" y="453"/>
      <point x="389" y="446"/>
      <point x="389" y="437" type="curve" smooth="yes"/>
      <point x="389" y="428"/>
      <point x="396" y="421"/>
    </contour>
    <contour>
      <point x="476" y="491" type="curve" smooth="yes"/>
      <point x="485" y="491"/>
      <point x="492" y="498"/>
      <point x="492" y="507" type="curve" smooth="yes"/>
      <point x="492" y="516"/>
      <point x="485" y="523"/>
      <point x="476" y="523" type="curve" smooth="yes"/>
      <point x="467" y="523"/>
      <point x="460" y="516"/>
      <point x="460" y="507" type="curve" smooth="yes"/>
      <point x="460" y="498"/>
      <point x="467" y="491"/>
    </contour>
    <contour>
      <point x="573" y="515" type="curve" smooth="yes"/>
      <point x="582" y="515"/>
      <point x="589" y="522"/>
      <point x="589" y="531" type="curve" smooth="yes"/>
      <point x="589" y="540"/>
      <point x="582" y="547"/>
      <point x="573" y="547" type="curve" smooth="yes"/>
      <point x="564" y="547"/>
      <point x="557" y="540"/>
      <point x="557" y="531" type="curve" smooth="yes"/>
      <point x="557" y="522"/>
      <point x="564" y="515"/>
    </contour>
    <contour>
      <point x="670" y="491" type="curve" smooth="yes"/>
      <point x="679" y="491"/>
      <point x="686" y="498"/>
      <point x="686" y="507" type="curve" smooth="yes"/>
      <point x="686" y="516"/>
      <point x="679" y="523"/>
      <point x="670" y="523" type="curve" smooth="yes"/>
      <point x="661" y="523"/>
      <point x="654" y="516"/>
      <point x="654" y="507" type="curve" smooth="yes"/>
      <point x="654" y="498"/>
      <point x="661" y="491"/>
    </contour>
    <contour>
      <point x="740" y="419" type="curve" smooth="yes"/>
      <point x="749" y="419"/>
      <point x="756" y="426"/>
      <point x="756" y="435" type="curve" smooth="yes"/>
      <point x="756" y="444"/>
      <point x="749" y="451"/>
      <point x="740" y="451" type="curve" smooth="yes"/>
      <point x="731" y="451"/>
      <point x="724" y="444"/>
      <point x="724" y="435" type="curve" smooth="yes"/>
      <point x="724" y="426"/>
      <point x="731" y="419"/>
    </contour>
    <contour>
      <point x="770" y="320" type="curve" smooth="yes"/>
      <point x="779" y="320"/>
      <point x="786" y="327"/>
      <point x="786" y="336" type="curve" smooth="yes"/>
      <point x="786" y="345"/>
      <point x="779" y="352"/>
      <point x="770" y="352" type="curve" smooth="yes"/>
      <point x="761" y="352"/>
      <point x="754" y="345"/>
      <point x="754" y="336" type="curve" smooth="yes"/>
      <point x="754" y="327"/>
      <point x="761" y="320"/>
    </contour>
    <contour>
      <point x="742" y="226" type="curve" smooth="yes"/>
      <point x="751" y="226"/>
      <point x="758" y="233"/>
      <point x="758" y="242" type="curve" smooth="yes"/>
      <point x="758" y="251"/>
      <point x="751" y="258"/>
      <point x="742" y="258" type="curve" smooth="yes"/>
      <point x="733" y="258"/>
      <point x="726" y="251"/>
      <point x="726" y="242" type="curve" smooth="yes"/>
      <point x="726" y="233"/>
      <point x="733" y="226"/>
    </contour>
    <contour>
      <point x="671" y="154" type="curve" smooth="yes"/>
      <point x="680" y="154"/>
      <point x="687" y="161"/>
      <point x="687" y="170" type="curve" smooth="yes"/>
      <point x="687" y="179"/>
      <point x="680" y="186"/>
      <point x="671" y="186" type="curve" smooth="yes"/>
      <point x="662" y="186"/>
      <point x="655" y="179"/>
      <point x="655" y="170" type="curve" smooth="yes"/>
      <point x="655" y="161"/>
      <point x="662" y="154"/>
    </contour>
    <contour>
      <point x="573" y="126" type="curve" smooth="yes"/>
      <point x="582" y="126"/>
      <point x="589" y="133"/>
      <point x="589" y="142" type="curve" smooth="yes"/>
      <point x="589" y="151"/>
      <point x="582" y="158"/>
      <point x="573" y="158" type="curve" smooth="yes"/>
      <point x="564" y="158"/>
      <point x="557" y="151"/>
      <point x="557" y="142" type="curve" smooth="yes"/>
      <point x="557" y="133"/>
      <point x="564" y="126"/>
    </contour>
    <contour>
      <point x="476" y="153" type="curve" smooth="yes"/>
      <point x="485" y="153"/>
      <point x="492" y="160"/>
      <point x="492" y="169" type="curve" smooth="yes"/>
      <point x="492" y="178"/>
      <point x="485" y="185"/>
      <point x="476" y="185" type="curve" smooth="yes"/>
      <point x="467" y="185"/>
      <point x="460" y="178"/>
      <point x="460" y="169" type="curve" smooth="yes"/>
      <point x="460" y="160"/>
      <point x="467" y="153"/>
    </contour>
    <contour>
      <point x="403" y="225" type="curve" smooth="yes"/>
      <point x="412" y="225"/>
      <point x="419" y="232"/>
      <point x="419" y="241" type="curve" smooth="yes"/>
      <point x="419" y="250"/>
      <point x="412" y="257"/>
      <point x="403" y="257" type="curve" smooth="yes"/>
      <point x="394" y="257"/>
      <point x="387" y="250"/>
      <point x="387" y="241" type="curve" smooth="yes"/>
      <point x="387" y="232"/>
      <point x="394" y="225"/>
    </contour>
  </outline>
</glyph>
<glyph name="uni17BF" format="2">
  <advance width="1252"/>
  <unicode hex="17BF"/>
  <note>
uni17BF
</note>
  <anchor x="949" y="1220" name="abvm"/>
  <anchor x="632" y="45" name="blwm"/>
  <outline>
    <contour>
      <point x="124" y="264" type="line"/>
      <point x="150" y="264" type="line"/>
      <point x="150" y="396" type="line"/>
      <point x="124" y="396" type="line"/>
    </contour>
    <contour>
      <point x="150" y="370" type="line"/>
      <point x="150" y="445" type="line"/>
      <point x="62" y="536" type="line"/>
      <point x="137" y="641" type="line"/>
      <point x="149" y="631"/>
      <point x="192" y="587"/>
      <point x="222" y="587" type="curve" smooth="yes"/>
      <point x="234" y="587"/>
      <point x="243" y="594"/>
      <point x="239" y="612" type="curve"/>
      <point x="208" y="609"/>
      <point x="179" y="634"/>
      <point x="135" y="682" type="curve"/>
      <point x="53" y="569"/>
      <point x="35" y="544"/>
      <point x="35" y="537" type="curve" smooth="yes"/>
      <point x="35" y="526"/>
      <point x="48" y="513"/>
      <point x="124" y="435" type="curve"/>
      <point x="124" y="370" type="line"/>
    </contour>
    <contour>
      <point x="124" y="316" type="line"/>
      <point x="124" y="0" type="line"/>
      <point x="150" y="0" type="line"/>
      <point x="217" y="63"/>
      <point x="241" y="101"/>
      <point x="241" y="149" type="curve" smooth="yes"/>
      <point x="241" y="186"/>
      <point x="225" y="226"/>
      <point x="150" y="227" type="curve"/>
      <point x="150" y="316" type="line"/>
    </contour>
    <contour>
      <point x="150" y="200" type="line"/>
      <point x="190" y="199"/>
      <point x="215" y="185"/>
      <point x="215" y="146" type="curve" smooth="yes"/>
      <point x="215" y="106"/>
      <point x="188" y="72"/>
      <point x="150" y="35" type="curve"/>
    </contour>
    <contour>
      <point x="436" y="320" type="curve" smooth="yes"/>
      <point x="445" y="320"/>
      <point x="452" y="327"/>
      <point x="452" y="336" type="curve" smooth="yes"/>
      <point x="452" y="345"/>
      <point x="445" y="352"/>
      <point x="436" y="352" type="curve" smooth="yes"/>
      <point x="427" y="352"/>
      <point x="420" y="345"/>
      <point x="420" y="336" type="curve" smooth="yes"/>
      <point x="420" y="327"/>
      <point x="427" y="320"/>
    </contour>
    <contour>
      <point x="462" y="421" type="curve" smooth="yes"/>
      <point x="471" y="421"/>
      <point x="478" y="428"/>
      <point x="478" y="437" type="curve" smooth="yes"/>
      <point x="478" y="446"/>
      <point x="471" y="453"/>
      <point x="462" y="453" type="curve" smooth="yes"/>
      <point x="453" y="453"/>
      <point x="446" y="446"/>
      <point x="446" y="437" type="curve" smooth="yes"/>
      <point x="446" y="428"/>
      <point x="453" y="421"/>
    </contour>
    <contour>
      <point x="533" y="491" type="curve" smooth="yes"/>
      <point x="542" y="491"/>
      <point x="549" y="498"/>
      <point x="549" y="507" type="curve" smooth="yes"/>
      <point x="549" y="516"/>
      <point x="542" y="523"/>
      <point x="533" y="523" type="curve" smooth="yes"/>
      <point x="524" y="523"/>
      <point x="517" y="516"/>
      <point x="517" y="507" type="curve" smooth="yes"/>
      <point x="517" y="498"/>
      <point x="524" y="491"/>
    </contour>
    <contour>
      <point x="630" y="515" type="curve" smooth="yes"/>
      <point x="639" y="515"/>
      <point x="646" y="522"/>
      <point x="646" y="531" type="curve" smooth="yes"/>
      <point x="646" y="540"/>
      <point x="639" y="547"/>
      <point x="630" y="547" type="curve" smooth="yes"/>
      <point x="621" y="547"/>
      <point x="614" y="540"/>
      <point x="614" y="531" type="curve" smooth="yes"/>
      <point x="614" y="522"/>
      <point x="621" y="515"/>
    </contour>
    <contour>
      <point x="727" y="491" type="curve" smooth="yes"/>
      <point x="736" y="491"/>
      <point x="743" y="498"/>
      <point x="743" y="507" type="curve" smooth="yes"/>
      <point x="743" y="516"/>
      <point x="736" y="523"/>
      <point x="727" y="523" type="curve" smooth="yes"/>
      <point x="718" y="523"/>
      <point x="711" y="516"/>
      <point x="711" y="507" type="curve" smooth="yes"/>
      <point x="711" y="498"/>
      <point x="718" y="491"/>
    </contour>
    <contour>
      <point x="797" y="419" type="curve" smooth="yes"/>
      <point x="806" y="419"/>
      <point x="813" y="426"/>
      <point x="813" y="435" type="curve" smooth="yes"/>
      <point x="813" y="444"/>
      <point x="806" y="451"/>
      <point x="797" y="451" type="curve" smooth="yes"/>
      <point x="788" y="451"/>
      <point x="781" y="444"/>
      <point x="781" y="435" type="curve" smooth="yes"/>
      <point x="781" y="426"/>
      <point x="788" y="419"/>
    </contour>
    <contour>
      <point x="827" y="320" type="curve" smooth="yes"/>
      <point x="836" y="320"/>
      <point x="843" y="327"/>
      <point x="843" y="336" type="curve" smooth="yes"/>
      <point x="843" y="345"/>
      <point x="836" y="352"/>
      <point x="827" y="352" type="curve" smooth="yes"/>
      <point x="818" y="352"/>
      <point x="811" y="345"/>
      <point x="811" y="336" type="curve" smooth="yes"/>
      <point x="811" y="327"/>
      <point x="818" y="320"/>
    </contour>
    <contour>
      <point x="799" y="226" type="curve" smooth="yes"/>
      <point x="808" y="226"/>
      <point x="815" y="233"/>
      <point x="815" y="242" type="curve" smooth="yes"/>
      <point x="815" y="251"/>
      <point x="808" y="258"/>
      <point x="799" y="258" type="curve" smooth="yes"/>
      <point x="790" y="258"/>
      <point x="783" y="251"/>
      <point x="783" y="242" type="curve" smooth="yes"/>
      <point x="783" y="233"/>
      <point x="790" y="226"/>
    </contour>
    <contour>
      <point x="728" y="154" type="curve" smooth="yes"/>
      <point x="737" y="154"/>
      <point x="744" y="161"/>
      <point x="744" y="170" type="curve" smooth="yes"/>
      <point x="744" y="179"/>
      <point x="737" y="186"/>
      <point x="728" y="186" type="curve" smooth="yes"/>
      <point x="719" y="186"/>
      <point x="712" y="179"/>
      <point x="712" y="170" type="curve" smooth="yes"/>
      <point x="712" y="161"/>
      <point x="719" y="154"/>
    </contour>
    <contour>
      <point x="630" y="126" type="curve" smooth="yes"/>
      <point x="639" y="126"/>
      <point x="646" y="133"/>
      <point x="646" y="142" type="curve" smooth="yes"/>
      <point x="646" y="151"/>
      <point x="639" y="158"/>
      <point x="630" y="158" type="curve" smooth="yes"/>
      <point x="621" y="158"/>
      <point x="614" y="151"/>
      <point x="614" y="142" type="curve" smooth="yes"/>
      <point x="614" y="133"/>
      <point x="621" y="126"/>
    </contour>
    <contour>
      <point x="533" y="153" type="curve" smooth="yes"/>
      <point x="542" y="153"/>
      <point x="549" y="160"/>
      <point x="549" y="169" type="curve" smooth="yes"/>
      <point x="549" y="178"/>
      <point x="542" y="185"/>
      <point x="533" y="185" type="curve" smooth="yes"/>
      <point x="524" y="185"/>
      <point x="517" y="178"/>
      <point x="517" y="169" type="curve" smooth="yes"/>
      <point x="517" y="160"/>
      <point x="524" y="153"/>
    </contour>
    <contour>
      <point x="460" y="225" type="curve" smooth="yes"/>
      <point x="469" y="225"/>
      <point x="476" y="232"/>
      <point x="476" y="241" type="curve" smooth="yes"/>
      <point x="476" y="250"/>
      <point x="469" y="257"/>
      <point x="460" y="257" type="curve" smooth="yes"/>
      <point x="451" y="257"/>
      <point x="444" y="250"/>
      <point x="444" y="241" type="curve" smooth="yes"/>
      <point x="444" y="232"/>
      <point x="451" y="225"/>
    </contour>
    <contour>
      <point x="1126" y="750" type="line"/>
      <point x="1152" y="750" type="line"/>
      <point x="1152" y="761" type="line" smooth="yes"/>
      <point x="1152" y="858"/>
      <point x="1111" y="924"/>
      <point x="1022" y="1003" type="curve" smooth="yes"/>
      <point x="941" y="1075"/>
      <point x="900" y="1090"/>
      <point x="856" y="1090" type="curve" smooth="yes"/>
      <point x="770" y="1090"/>
      <point x="738" y="1035"/>
      <point x="738" y="966" type="curve" smooth="yes"/>
      <point x="738" y="942"/>
      <point x="742" y="933"/>
      <point x="770" y="933" type="curve" smooth="yes"/>
      <point x="1048" y="933" type="line" smooth="yes"/>
      <point x="1067" y="933"/>
      <point x="1126" y="860"/>
      <point x="1126" y="761" type="curve" smooth="yes"/>
    </contour>
    <contour>
      <point x="764" y="959" type="line"/>
      <point x="764" y="1026"/>
      <point x="794" y="1064"/>
      <point x="852" y="1064" type="curve" smooth="yes"/>
      <point x="924" y="1064"/>
      <point x="986" y="1005"/>
      <point x="1030" y="959" type="curve"/>
    </contour>
    <contour>
      <point x="996" y="1019" type="line"/>
      <point x="996" y="1144" type="line"/>
      <point x="970" y="1144" type="line"/>
      <point x="970" y="1040" type="line"/>
    </contour>
    <contour>
      <point x="1088" y="929" type="line"/>
      <point x="1088" y="1128" type="line"/>
      <point x="1062" y="1128" type="line"/>
      <point x="1062" y="962" type="line"/>
    </contour>
    <contour>
      <point x="1152" y="768" type="line"/>
      <point x="1126" y="768" type="line"/>
      <point x="1126" y="-208" type="line" smooth="yes"/>
      <point x="1126" y="-249"/>
      <point x="1075" y="-291"/>
      <point x="966" y="-291" type="curve" smooth="yes"/>
      <point x="859" y="-291"/>
      <point x="804" y="-249"/>
      <point x="804" y="-208" type="curve" smooth="yes"/>
      <point x="804" y="-49" type="line"/>
      <point x="778" y="-49" type="line"/>
      <point x="778" y="-206" type="line" smooth="yes"/>
      <point x="778" y="-268"/>
      <point x="846" y="-317"/>
      <point x="966" y="-317" type="curve" smooth="yes"/>
      <point x="1087" y="-317"/>
      <point x="1152" y="-268"/>
      <point x="1152" y="-206" type="curve" smooth="yes"/>
    </contour>
  </outline>
</glyph>
